<svg width="825.84" height="123.115" viewBox="0 0 825.84 123.115" xmlns="http://www.w3.org/2000/svg"><g id="svgGroup" stroke-linecap="round" fill-rule="evenodd" font-size="9pt" stroke="#6c757d" stroke-width="0.25mm" fill="#111111" style="stroke:#6c757d;stroke-width:0.25mm;fill:#111111"><path d="M 142.017 69.403 L 142.017 69.208 L 141.626 70.77 A 9.307 9.307 0 0 0 141.396 71.804 A 10.87 10.87 0 0 0 141.333 72.235 Q 141.235 73.016 141.04 73.7 L 136.157 75.849 Q 135.669 76.044 134.937 76.141 Q 134.204 76.239 133.569 75.897 Q 132.935 75.556 132.642 74.481 Q 132.409 73.627 132.67 72.095 A 15.558 15.558 0 0 1 132.837 71.259 L 138.989 45.77 A 41.872 41.872 0 0 0 139.374 43.921 A 36.431 36.431 0 0 0 139.478 43.329 A 16.171 16.171 0 0 0 139.707 41.486 A 14.788 14.788 0 0 0 139.722 41.229 A 8.565 8.565 0 0 0 139.731 40.929 Q 139.741 40.101 139.575 39.52 Q 140.846 38.922 141.888 38.553 A 15.499 15.499 0 0 1 142.505 38.349 A 70.338 70.338 0 0 1 143.109 38.165 Q 143.97 37.909 144.556 37.763 Q 145.532 37.47 146.216 37.47 A 2.487 2.487 0 0 1 147.34 37.705 Q 149.116 38.594 148.267 42.841 Q 147.968 44.037 147.439 46.092 A 1343.391 1343.391 0 0 1 147.095 47.431 A 51.374 51.374 0 0 1 151.05 42.987 A 46.064 46.064 0 0 1 154.227 40.085 A 40.321 40.321 0 0 1 155.298 39.227 A 22.773 22.773 0 0 1 158.002 37.419 A 19.016 19.016 0 0 1 159.644 36.591 A 11.456 11.456 0 0 1 162.235 35.776 A 9.726 9.726 0 0 1 163.989 35.614 A 4.657 4.657 0 0 1 165.381 35.814 A 3.839 3.839 0 0 1 166.772 36.591 A 6.022 6.022 0 0 1 168.036 38.146 A 7.771 7.771 0 0 1 168.53 39.179 A 9.878 9.878 0 0 1 169.03 40.933 Q 169.191 41.767 169.248 42.714 A 16.789 16.789 0 0 1 169.263 42.987 A 24.948 24.948 0 0 1 169.287 44.095 Q 169.287 45.718 169.081 47.418 A 30.148 30.148 0 0 1 169.067 47.528 A 61.076 61.076 0 0 1 171.603 44.425 A 70.394 70.394 0 0 1 172.534 43.378 A 33.445 33.445 0 0 1 176.276 39.827 A 30.893 30.893 0 0 1 176.538 39.618 Q 178.638 37.958 180.884 36.884 A 11.07 11.07 0 0 1 183.551 35.987 A 9.548 9.548 0 0 1 185.376 35.809 Q 187.763 35.809 189.15 37.09 A 4.464 4.464 0 0 1 189.429 37.372 Q 190.845 38.934 191.382 41.376 Q 191.751 43.054 191.751 44.917 A 20.164 20.164 0 0 1 191.675 46.649 A 41.697 41.697 0 0 1 190.845 52.118 L 187.524 65.302 A 14.26 14.26 0 0 0 187.38 66.051 Q 186.76 69.82 189.096 70.152 A 3.405 3.405 0 0 0 189.575 70.184 Q 192.017 70.184 194.946 67.841 A 40.765 40.765 0 0 0 198.728 64.386 A 49.412 49.412 0 0 0 200.659 62.274 Q 203.442 59.052 205.884 55.634 A 192.289 192.289 0 0 1 207.056 54.01 Q 208.74 51.703 209.985 50.165 Q 210.571 49.481 211.206 49.384 A 1.848 1.848 0 0 1 211.412 49.363 Q 211.914 49.343 212.28 49.628 Q 212.651 49.916 212.744 50.517 A 2.595 2.595 0 0 1 212.769 50.751 Q 212.816 51.517 212.254 52.659 A 8.623 8.623 0 0 1 212.231 52.704 A 93.349 93.349 0 0 1 210.207 56.069 Q 208.951 58.067 207.446 60.272 Q 204.614 64.423 201.245 68.036 A 38.87 38.87 0 0 1 196.06 72.711 A 34.303 34.303 0 0 1 194.067 74.091 A 15.674 15.674 0 0 1 189.814 76.031 A 13.558 13.558 0 0 1 186.157 76.532 Q 184.79 76.532 183.472 76.239 A 6.834 6.834 0 0 1 181.03 75.165 A 5.589 5.589 0 0 1 179.413 73.406 A 6.678 6.678 0 0 1 179.224 73.065 Q 178.663 71.984 178.562 70.411 A 11.171 11.171 0 0 1 178.54 69.696 A 23.014 23.014 0 0 1 178.624 67.79 Q 178.705 66.816 178.865 65.739 A 40.252 40.252 0 0 1 178.979 65.009 A 72.228 72.228 0 0 1 179.935 60.282 A 80.199 80.199 0 0 1 180.103 59.589 A 435.964 435.964 0 0 1 181.47 54.169 A 303.116 303.116 0 0 0 182.03 51.974 Q 182.283 50.97 182.5 50.07 A 174 174 0 0 0 182.642 49.481 Q 183.205 47.041 182.595 45.683 A 2.87 2.87 0 0 0 182.544 45.575 Q 181.966 44.419 180.69 44.241 A 3.533 3.533 0 0 0 180.2 44.208 A 1.674 1.674 0 0 0 179.768 44.278 Q 179.094 44.464 177.876 45.141 A 29.147 29.147 0 0 0 177.124 45.575 A 12.221 12.221 0 0 0 175.5 46.752 Q 173.906 48.1 172.144 50.311 A 30.337 30.337 0 0 0 170.143 53.168 Q 168.488 55.823 166.87 59.393 Q 164.901 63.739 163.583 69.866 A 87.588 87.588 0 0 0 162.817 73.895 Q 160.962 74.872 159.302 75.165 Q 158.546 75.333 157.935 75.428 A 14.703 14.703 0 0 1 157.739 75.458 A 9.278 9.278 0 0 1 157.459 75.468 Q 155.743 75.502 155.2 74.823 A 0.99 0.99 0 0 1 155.033 74.49 Q 154.756 73.579 155.396 71.259 A 40.283 40.283 0 0 1 155.63 70.471 Q 156.042 69.135 156.812 66.864 A 104.739 104.739 0 0 0 157.825 63.703 A 130.213 130.213 0 0 0 158.813 60.272 A 113.21 113.21 0 0 0 160.522 53.143 Q 161.083 50.414 161.215 48.229 A 21.458 21.458 0 0 0 161.255 46.942 Q 161.255 45.472 160.856 44.738 A 1.632 1.632 0 0 0 160.62 44.403 A 2.058 2.058 0 0 0 159.586 43.808 Q 159.235 43.72 158.813 43.72 A 2.557 2.557 0 0 0 158.301 43.781 Q 157.422 43.964 155.884 44.696 Q 153.92 45.631 151.509 48.267 A 32.128 32.128 0 0 0 151.294 48.505 A 24.343 24.343 0 0 0 149.397 50.938 Q 147.821 53.223 146.265 56.366 A 40.128 40.128 0 0 0 144.5 60.557 Q 143.115 64.398 142.017 69.403 Z M 56.763 29.364 Q 56.665 29.071 57.349 27.85 A 30.934 30.934 0 0 0 57.882 26.853 Q 58.344 25.952 58.862 24.823 A 45.655 45.655 0 0 0 59.692 22.894 A 62.066 62.066 0 0 0 60.522 20.722 Q 61.353 18.427 61.694 15.985 Q 62.036 13.544 61.646 11.102 A 10.158 10.158 0 0 0 60.387 7.622 A 12.652 12.652 0 0 0 59.595 6.415 A 3.483 3.483 0 0 0 57.963 5.334 Q 57.416 5.155 56.757 5.1 A 6.629 6.629 0 0 0 56.714 5.097 A 8.452 8.452 0 0 0 56.066 5.072 Q 54.411 5.072 52.417 5.682 A 20.977 20.977 0 0 0 49.683 6.745 A 27.583 27.583 0 0 0 47.437 7.929 A 26.681 26.681 0 0 0 42.7 11.444 A 21.643 21.643 0 0 0 39.038 15.888 A 12.051 12.051 0 0 0 37.777 18.587 A 10.058 10.058 0 0 0 37.329 20.868 Q 37.161 22.633 37.391 24.182 A 11.247 11.247 0 0 0 37.476 24.677 Q 37.817 26.434 38.403 27.899 A 27.525 27.525 0 0 0 39.337 29.987 A 24.062 24.062 0 0 0 39.673 30.634 A 67.454 67.454 0 0 0 40.292 31.759 Q 40.631 32.361 40.942 32.88 A 10.239 10.239 0 0 0 41.652 33.946 Q 42.346 34.87 43.384 35.907 A 124.971 124.971 0 0 1 45.117 37.677 A 168.594 168.594 0 0 1 46.997 39.667 A 51.093 51.093 0 0 1 49.438 42.501 A 62.523 62.523 0 0 1 50.903 44.403 A 29.778 29.778 0 0 1 53.546 48.718 A 34.873 34.873 0 0 1 54.321 50.36 A 26.324 26.324 0 0 1 55.865 55.055 A 32.354 32.354 0 0 1 56.372 57.782 A 27.429 27.429 0 0 1 56.633 60.982 Q 56.702 63.751 56.274 66.864 A 56.02 56.02 0 0 1 55.29 71.948 Q 54.654 74.544 53.805 76.737 A 29.1 29.1 0 0 1 52.856 78.925 Q 50.882 82.996 48.596 85.717 A 21.358 21.358 0 0 1 47.729 86.688 Q 45.248 89.3 42.728 90.632 A 13.63 13.63 0 0 1 42.114 90.936 Q 39.412 92.195 37.598 92.608 A 10.605 10.605 0 0 1 37.427 92.645 A 35.165 35.165 0 0 1 36.253 92.858 Q 35.602 92.966 34.869 93.065 A 65.279 65.279 0 0 1 33.96 93.182 A 14.051 14.051 0 0 1 32.258 93.284 Q 31.042 93.284 29.761 93.085 A 16.294 16.294 0 0 1 26.472 92.201 A 19.277 19.277 0 0 1 25.317 91.718 A 10.661 10.661 0 0 1 22.227 89.552 A 13.161 13.161 0 0 1 21.313 88.544 A 20.143 20.143 0 0 1 18.091 83.27 A 20.934 20.934 0 0 1 17.077 80.381 A 27.834 27.834 0 0 1 16.479 77.655 A 12.821 12.821 0 0 1 16.3 75.512 Q 16.3 73.342 17.017 71.063 A 12.479 12.479 0 0 1 18.622 69.544 A 11.59 11.59 0 0 1 18.677 69.501 A 14.42 14.42 0 0 1 19.885 68.653 A 12.387 12.387 0 0 1 20.435 68.329 A 20.344 20.344 0 0 1 22.485 67.255 Q 23.755 66.864 25.024 66.571 A 15.682 15.682 0 0 1 26.571 66.372 A 18.582 18.582 0 0 1 27.319 66.327 Q 28.538 66.278 29.611 66.667 A 6.228 6.228 0 0 1 29.614 66.669 Q 28.149 68.329 27.563 69.794 A 14.681 14.681 0 0 0 27.298 70.352 Q 27.174 70.629 27.08 70.876 A 7.089 7.089 0 0 0 26.978 71.161 Q 26.614 72.89 26.716 75.255 A 26.348 26.348 0 0 0 26.733 75.604 A 16.227 16.227 0 0 0 27.808 80.585 A 11.375 11.375 0 0 0 30.493 84.686 A 6.208 6.208 0 0 0 33.504 86.284 A 8.829 8.829 0 0 0 35.181 86.493 Q 42.31 86.688 47.29 75.36 A 17.646 17.646 0 0 0 48.844 70.256 A 16.165 16.165 0 0 0 48.999 68.231 A 26.689 26.689 0 0 0 49.001 67.871 A 24.312 24.312 0 0 0 48.12 61.298 A 31.692 31.692 0 0 0 45.866 55.458 A 29.392 29.392 0 0 0 45.679 55.097 A 42.179 42.179 0 0 0 44.249 52.578 Q 43.433 51.254 42.603 50.165 A 53.144 53.144 0 0 0 40.998 48.167 Q 40.134 47.139 39.132 46.038 A 87.446 87.446 0 0 0 38.843 45.722 A 70.077 70.077 0 0 1 35.574 41.886 A 80.235 80.235 0 0 1 34.497 40.497 A 41.81 41.81 0 0 1 30.64 34.345 A 23.119 23.119 0 0 1 28.382 27.362 A 25.938 25.938 0 0 1 28.345 27.118 A 23.008 23.008 0 0 1 28.113 24.294 Q 28.041 20.45 29.37 17.108 Q 31.177 12.567 34.253 9.149 Q 37.329 5.731 40.991 3.583 Q 44.653 1.434 47.485 0.849 A 48.642 48.642 0 0 1 50.941 0.284 Q 60.729 -0.937 65.565 3.106 A 11.28 11.28 0 0 1 68.091 6.122 A 14.205 14.205 0 0 1 70.163 11.396 A 13.689 13.689 0 0 1 70.337 12.958 A 30.954 30.954 0 0 1 70.383 14.629 Q 70.383 17.295 69.897 19.647 A 34.572 34.572 0 0 1 69.38 21.817 Q 69.075 22.929 68.72 23.876 A 17.718 17.718 0 0 1 68.335 24.823 A 47.092 47.092 0 0 1 68.113 25.318 Q 67.371 26.947 67.114 27.118 A 4.489 4.489 0 0 1 66.681 27.494 Q 66.209 27.858 65.498 28.256 A 16.349 16.349 0 0 1 65.259 28.388 Q 63.989 29.071 61.157 29.657 A 6.421 6.421 0 0 1 59.595 29.852 A 10.921 10.921 0 0 1 58.714 29.815 A 13.498 13.498 0 0 1 58.13 29.755 A 4.862 4.862 0 0 1 57.4 29.609 A 3.673 3.673 0 0 1 56.763 29.364 Z M 628.082 52.296 A 3.309 3.309 0 0 0 627.661 52.704 Q 627.075 53.29 626.27 54.205 A 65.88 65.88 0 0 0 625.708 54.852 A 134.987 134.987 0 0 1 624.487 56.256 A 162.708 162.708 0 0 1 623.169 57.733 Q 621.802 59.247 620.337 60.712 A 56.494 56.494 0 0 1 619.666 61.372 Q 618.597 62.406 617.7 63.153 Q 612.524 67.352 609.937 68.182 Q 607.349 69.013 606.47 67.45 A 2.924 2.924 0 0 1 606.071 65.95 Q 606.071 65.367 606.274 64.716 Q 606.763 63.153 607.642 60.907 A 673.498 673.498 0 0 0 608.402 58.969 Q 608.765 58.038 609.095 57.184 A 387.869 387.869 0 0 0 609.839 55.243 Q 610.767 52.802 611.353 50.8 A 54.365 54.365 0 0 0 611.877 48.883 A 39.836 39.836 0 0 0 612.28 47.138 A 17.752 17.752 0 0 0 612.396 46.518 A 15.599 15.599 0 0 0 612.622 43.915 A 23.072 23.072 0 0 0 612.626 43.809 Q 612.71 41.34 612.231 39.667 A 9.923 9.923 0 0 0 612.136 39.352 Q 611.656 37.862 610.815 36.932 A 6.167 6.167 0 0 0 610.698 36.807 A 5.247 5.247 0 0 0 608.667 35.468 A 7.268 7.268 0 0 0 608.629 35.454 A 7.59 7.59 0 0 0 606.079 35.028 A 11.38 11.38 0 0 0 601.099 36.151 A 22.275 22.275 0 0 0 596.655 38.983 A 30.076 30.076 0 0 0 592.798 42.743 Q 591.04 44.794 589.771 46.747 Q 591.919 38.251 594.458 30.78 A 217.087 217.087 0 0 0 599.048 15.399 A 287.946 287.946 0 0 0 599.512 13.324 A 229.964 229.964 0 0 0 599.927 11.395 A 36.65 36.65 0 0 0 599.979 10.958 A 32.887 32.887 0 0 0 600.171 8.368 A 6.998 6.998 0 0 0 600.173 8.312 Q 600.196 7.394 599.963 6.87 A 1.226 1.226 0 0 0 599.634 6.415 Q 599.495 6.068 599.109 5.893 A 1.749 1.749 0 0 0 598.755 5.78 A 6.278 6.278 0 0 0 598.273 5.697 A 7.4 7.4 0 0 0 597.29 5.634 A 7.939 7.939 0 0 0 597.262 5.634 Q 596.821 5.635 596.332 5.686 A 13.009 13.009 0 0 0 595.337 5.829 A 25.499 25.499 0 0 0 593.188 6.317 A 19.55 19.55 0 0 0 592.857 6.394 A 21.953 21.953 0 0 0 591.382 6.806 Q 590.454 7.099 589.673 7.587 A 12.625 12.625 0 0 1 589.883 8.933 A 16.352 16.352 0 0 1 589.966 10.614 A 25.968 25.968 0 0 1 589.771 13.837 A 72.904 72.904 0 0 1 589.746 14.057 A 79.86 79.86 0 0 1 589.282 17.45 Q 588.838 19.448 587.833 23.858 A 4770.409 4770.409 0 0 1 587.134 26.923 A 1724.433 1724.433 0 0 0 586.429 29.908 Q 585.172 35.248 583.228 43.622 A 1428.93 1428.93 0 0 1 582.671 46.008 Q 580.909 53.543 578.375 64.038 A 5029.273 5029.273 0 0 1 576.294 72.626 A 5.96 5.96 0 0 0 576.351 72.823 Q 576.482 73.243 576.66 73.59 A 3.345 3.345 0 0 0 577.173 74.335 Q 577.466 74.652 577.759 74.909 A 5.664 5.664 0 0 0 578.345 75.36 A 5.746 5.746 0 0 0 579.81 75.946 Q 580.493 76.044 581.177 76.044 A 4.016 4.016 0 0 0 581.788 75.995 A 5.384 5.384 0 0 0 582.446 75.849 A 3.27 3.27 0 0 0 582.782 75.733 A 3.546 3.546 0 0 0 583.716 75.165 Q 584.1 73.572 584.5 71.716 A 209.174 209.174 0 0 0 585.132 68.671 Q 585.864 65.009 586.548 61.884 Q 587.329 58.173 588.11 54.364 A 44.327 44.327 0 0 1 589.117 52.812 A 52.965 52.965 0 0 1 591.04 50.165 Q 592.7 48.016 594.507 46.307 A 23.919 23.919 0 0 1 596.088 44.934 A 18.542 18.542 0 0 1 598.12 43.524 A 10.207 10.207 0 0 1 598.655 43.227 Q 600.16 42.45 601.489 42.45 Q 603.174 42.45 603.76 43.686 A 3.235 3.235 0 0 1 604.028 44.647 A 8.964 8.964 0 0 1 604.065 44.966 Q 604.269 47.068 603.589 49.97 A 51.672 51.672 0 0 1 603.083 51.947 A 60.958 60.958 0 0 1 601.636 56.464 Q 600.873 58.569 600.32 60.313 A 60.053 60.053 0 0 0 599.731 62.274 A 42.333 42.333 0 0 0 599.137 64.696 Q 598.895 65.836 598.763 66.833 A 17.369 17.369 0 0 0 598.608 68.768 A 7.402 7.402 0 0 0 598.607 68.908 Q 598.607 71.417 600.317 73.602 Q 602.271 76.141 604.272 76.141 Q 606.274 76.141 609.204 74.481 A 35.182 35.182 0 0 0 611.719 72.936 A 46.189 46.189 0 0 0 614.673 70.77 A 106.888 106.888 0 0 0 620.288 65.985 Q 623.071 63.446 625.513 60.761 A 72.458 72.458 0 0 0 627.331 58.685 A 58.47 58.47 0 0 0 629.81 55.536 Q 630.273 54.898 630.479 54.329 A 2.626 2.626 0 0 0 630.64 53.583 Q 630.664 53.143 630.566 52.813 A 1.271 1.271 0 0 0 630.249 52.265 Q 629.854 51.869 629.221 51.869 A 2.158 2.158 0 0 0 629.077 51.874 Q 628.568 51.908 628.082 52.296 Z M 688.989 88.153 L 687.769 94.013 A 252.213 252.213 0 0 1 686.987 97.626 A 298.123 298.123 0 0 1 686.108 101.434 A 109.879 109.879 0 0 1 683.96 109.198 A 61.618 61.618 0 0 1 682.678 112.86 A 47.6 47.6 0 0 1 681.274 116.132 A 26.189 26.189 0 0 1 679.949 118.588 Q 679.047 120.055 678.052 121.161 A 6.928 6.928 0 0 1 676.797 122.273 A 4.643 4.643 0 0 1 674.146 123.114 A 9.089 9.089 0 0 1 671.112 122.623 A 8.037 8.037 0 0 1 668.628 121.21 A 15.621 15.621 0 0 1 665.435 117.555 A 18.499 18.499 0 0 1 664.771 116.425 Q 663.208 113.544 662.476 110.224 A 32.951 32.951 0 0 1 661.926 107.025 A 25.01 25.01 0 0 1 661.743 104.071 A 36.886 36.886 0 0 1 661.835 101.38 Q 661.994 99.215 662.427 97.577 A 14.423 14.423 0 0 1 664.31 93.384 A 16.763 16.763 0 0 1 664.819 92.645 A 25.403 25.403 0 0 1 666.479 90.616 Q 667.362 89.635 668.439 88.608 A 48.056 48.056 0 0 1 669.458 87.665 A 225.278 225.278 0 0 1 671.027 86.267 Q 673.535 84.052 676.978 81.122 Q 679.224 79.169 681.274 77.411 A 135.725 135.725 0 0 1 683.762 75.328 A 111.005 111.005 0 0 1 685.181 74.188 A 622.818 622.818 0 0 1 685.657 72.296 A 511.165 511.165 0 0 1 686.108 70.526 Q 686.519 68.931 686.801 67.633 A 56.02 56.02 0 0 0 686.841 67.45 A 23.906 23.906 0 0 1 680.737 73.212 A 14.31 14.31 0 0 1 673.435 75.535 A 17.435 17.435 0 0 1 672.583 75.556 A 7.651 7.651 0 0 1 666.644 72.879 A 10.814 10.814 0 0 1 665.796 71.796 A 12.477 12.477 0 0 1 664.219 68.475 Q 663.212 65.301 663.208 60.746 A 41.605 41.605 0 0 1 663.208 60.712 A 23.284 23.284 0 0 1 663.469 57.347 Q 663.711 55.695 664.177 53.868 A 43.981 43.981 0 0 1 664.575 52.411 A 35.502 35.502 0 0 1 668.481 43.622 A 25.537 25.537 0 0 1 674.731 36.688 Q 678.442 33.856 683.032 33.856 Q 685.181 33.856 686.743 34.931 Q 688.306 36.005 689.38 37.616 A 13.828 13.828 0 0 1 691.04 41.034 A 31.175 31.175 0 0 1 691.553 42.78 A 23.867 23.867 0 0 1 691.919 44.403 Q 692.114 43.817 692.212 43.182 A 5.964 5.964 0 0 1 692.334 42.584 A 4.411 4.411 0 0 1 692.505 42.059 Q 693.304 39.342 694.267 38.031 A 4.438 4.438 0 0 1 694.702 37.518 Q 695.923 36.298 698.364 36.298 Q 699.523 36.298 700.366 36.649 A 3.588 3.588 0 0 1 700.659 36.786 A 4.89 4.89 0 0 1 700.998 36.98 Q 701.506 37.302 701.576 37.578 A 0.352 0.352 0 0 1 701.587 37.665 Q 701.213 38.487 700.954 39.024 A 25.67 25.67 0 0 1 700.806 39.325 A 42.853 42.853 0 0 0 700.293 40.388 A 47.191 47.191 0 0 0 700.22 40.546 A 8.68 8.68 0 0 0 700 41.07 Q 699.891 41.353 699.783 41.683 A 18.68 18.68 0 0 0 699.634 42.157 A 43.33 43.33 0 0 0 699.475 42.7 Q 699.219 43.598 698.853 44.989 A 11.432 11.432 0 0 0 698.767 45.309 Q 698.557 46.14 698.12 48.163 A 175.602 175.602 0 0 1 697.676 50.161 Q 697.272 51.935 696.753 54.071 A 429.558 429.558 0 0 0 695.898 57.66 A 561.296 561.296 0 0 0 694.995 61.591 A 7249.384 7249.384 0 0 0 693.188 69.599 A 45.757 45.757 0 0 0 696.326 67.624 A 58.074 58.074 0 0 0 698.853 65.79 A 99.458 99.458 0 0 0 704.419 61.2 A 105.64 105.64 0 0 0 706.909 58.917 A 80.186 80.186 0 0 0 709.106 56.757 A 56.735 56.735 0 0 0 710.065 55.753 Q 711.088 54.652 711.757 53.793 A 15.157 15.157 0 0 0 712.134 53.29 A 6.072 6.072 0 0 1 712.774 52.479 Q 713.297 51.927 713.892 51.63 A 4.294 4.294 0 0 1 714.413 51.408 Q 714.861 51.254 715.25 51.254 A 1.786 1.786 0 0 1 715.601 51.288 Q 716.333 51.434 716.479 52.167 Q 716.611 52.824 715.996 53.912 A 7.91 7.91 0 0 1 715.845 54.169 A 41.411 41.411 0 0 1 711.926 59.451 A 47.792 47.792 0 0 1 710.376 61.151 A 90.694 90.694 0 0 1 703.784 67.401 A 88.442 88.442 0 0 1 699.751 70.658 A 71.817 71.817 0 0 1 697.241 72.479 A 170.697 170.697 0 0 1 695.712 73.526 Q 694.61 74.272 693.638 74.9 A 78.333 78.333 0 0 1 691.821 76.044 A 473.187 473.187 0 0 1 691.351 78.137 Q 690.674 81.122 690.161 83.173 A 193.913 193.913 0 0 0 689.526 85.785 A 142.894 142.894 0 0 0 688.989 88.153 Z M 197.02 115.472 A 4.734 4.734 0 0 0 197.778 115.888 Q 199.731 116.669 201.245 116.278 Q 202.759 115.888 203.345 113.251 A 893.003 893.003 0 0 1 203.565 111.976 Q 204.332 107.547 205.067 103.571 A 533.902 533.902 0 0 1 206.519 96.015 Q 208.032 88.446 209.106 83.173 A 374.913 374.913 0 0 1 209.462 81.471 Q 209.991 78.963 210.504 76.715 A 216.573 216.573 0 0 1 211.548 72.333 Q 211.646 71.845 211.694 71.552 Q 211.725 71.369 211.774 71.147 A 11.746 11.746 0 0 1 211.841 70.868 A 14.636 14.636 0 0 0 212.01 71.442 A 16.858 16.858 0 0 0 212.622 73.065 A 8.31 8.31 0 0 0 213.892 75.116 A 5.043 5.043 0 0 0 214.547 75.763 A 5.751 5.751 0 0 0 215.894 76.581 A 5.359 5.359 0 0 0 215.98 76.618 Q 216.632 76.891 217.406 77.015 A 8.661 8.661 0 0 0 218.774 77.118 A 8.852 8.852 0 0 0 220.275 76.988 A 10.678 10.678 0 0 0 222.388 76.386 Q 224.243 75.653 226.001 74.286 A 30.354 30.354 0 0 1 226.409 74.464 Q 226.604 74.551 226.779 74.633 A 16.591 16.591 0 0 1 227.173 74.823 A 28.121 28.121 0 0 0 227.42 74.945 A 31.62 31.62 0 0 0 228.198 75.311 A 3.172 3.172 0 0 0 228.374 75.385 Q 228.625 75.481 228.922 75.55 A 5.923 5.923 0 0 0 229.517 75.653 A 8.026 8.026 0 0 0 229.551 75.657 Q 230.326 75.751 231.567 75.751 A 10.612 10.612 0 0 0 234.41 75.351 A 13.846 13.846 0 0 0 236.987 74.335 A 27.817 27.817 0 0 0 238.37 73.581 A 31.453 31.453 0 0 0 242.407 70.77 A 46.217 46.217 0 0 0 247.437 65.985 A 87.152 87.152 0 0 0 249.292 63.875 A 69.72 69.72 0 0 0 251.685 60.907 A 104.415 104.415 0 0 0 252.195 60.23 Q 253.719 58.191 254.81 56.513 A 70.602 70.602 0 0 0 254.852 56.448 Q 256.086 54.545 256.47 53.681 Q 256.857 52.842 256.988 52.196 A 3.102 3.102 0 0 0 257.056 51.581 A 3.37 3.37 0 0 0 257.055 51.504 Q 257.037 50.737 256.665 50.458 Q 256.343 50.217 255.823 50.406 A 2.209 2.209 0 0 0 255.591 50.507 Q 255.121 50.742 254.605 51.277 A 7.884 7.884 0 0 0 254.126 51.825 A 10.911 10.911 0 0 0 254.081 51.877 Q 253.648 52.389 252.917 53.372 A 89.195 89.195 0 0 0 252.368 54.12 Q 251.709 55.026 250.88 56.056 A 75.782 75.782 0 0 1 249.487 57.733 A 74.108 74.108 0 0 1 248.151 59.255 A 90.441 90.441 0 0 1 245.679 61.884 Q 243.579 64.032 241.333 65.839 A 28.692 28.692 0 0 1 240.204 66.702 A 24.71 24.71 0 0 1 236.743 68.817 A 12.189 12.189 0 0 1 235.143 69.484 A 9.428 9.428 0 0 1 232.153 69.989 A 8.474 8.474 0 0 1 232.031 69.988 Q 231.646 69.983 231.519 69.94 Q 231.372 69.891 231.372 69.843 A 0.058 0.058 0 0 0 231.362 69.811 Q 231.34 69.778 231.274 69.745 A 0.544 0.544 0 0 0 231.224 69.724 Q 231.128 69.688 230.922 69.633 A 11.038 11.038 0 0 0 230.786 69.599 A 45.709 45.709 0 0 0 231.247 69.006 A 50.477 50.477 0 0 0 234.302 64.52 A 50.624 50.624 0 0 0 237.231 58.954 A 41.239 41.239 0 0 0 237.833 57.544 A 35.815 35.815 0 0 0 239.233 53.388 A 27.262 27.262 0 0 0 239.701 51.337 A 21.788 21.788 0 0 0 240.063 48.212 A 34.594 34.594 0 0 0 240.096 46.709 A 35.814 35.814 0 0 0 239.966 43.671 A 15.7 15.7 0 0 0 239.762 42.145 A 12.697 12.697 0 0 0 238.989 39.52 A 8.724 8.724 0 0 0 238.617 38.744 A 7.079 7.079 0 0 0 236.792 36.542 A 4.675 4.675 0 0 0 236.678 36.455 Q 235.83 35.823 234.698 35.577 A 7.367 7.367 0 0 0 233.13 35.419 A 8.17 8.17 0 0 0 231.487 35.591 A 10.439 10.439 0 0 0 229.663 36.151 A 17.216 17.216 0 0 0 229.325 36.292 A 18.667 18.667 0 0 0 226.147 38.056 A 32.263 32.263 0 0 0 225.721 38.353 A 35.549 35.549 0 0 0 222.778 40.692 A 36.235 36.235 0 0 0 222.368 41.06 A 32.804 32.804 0 0 0 219.751 43.72 A 5.826 5.826 0 0 1 219.758 43.434 A 4.837 4.837 0 0 1 219.8 42.987 A 10.529 10.529 0 0 1 219.835 42.759 Q 219.855 42.638 219.88 42.503 A 21.648 21.648 0 0 1 219.946 42.157 A 22.911 22.911 0 0 0 220.034 41.519 Q 220.37 38.785 219.8 37.47 Q 219.314 36.348 217.654 35.971 A 7.641 7.641 0 0 0 216.528 35.809 A 5.93 5.93 0 0 0 215.991 35.785 A 6.1 6.1 0 0 0 214.38 36.005 Q 213.8 36.121 213.134 36.357 A 14.012 14.012 0 0 0 212.183 36.737 A 9.013 9.013 0 0 0 211.197 37.248 A 11.012 11.012 0 0 0 209.79 38.251 Q 211.45 39.911 211.255 42.206 A 17.565 17.565 0 0 1 211.222 42.547 Q 210.989 44.777 210.083 48.309 A 804.42 804.42 0 0 1 209.265 51.849 A 985.537 985.537 0 0 1 208.374 55.634 A 985.537 985.537 0 0 0 207.483 59.418 A 804.42 804.42 0 0 0 206.665 62.958 L 204.712 70.77 A 323.712 323.712 0 0 0 204.709 70.782 Q 203.636 74.881 202.173 80.927 A 455.697 455.697 0 0 0 202.14 81.05 Q 201.126 84.893 199.82 90.119 A 1280.344 1280.344 0 0 0 198.901 93.817 A 987.01 987.01 0 0 1 197.63 98.906 Q 196.954 101.584 196.197 104.529 A 1806.581 1806.581 0 0 1 194.263 111.981 Q 194.653 113.056 195.239 113.788 A 11.283 11.283 0 0 0 195.248 113.799 Q 195.537 114.159 195.825 114.459 A 7.244 7.244 0 0 0 196.411 115.009 A 6.339 6.339 0 0 0 197.02 115.472 Z M 244.702 75.116 A 2.413 2.413 0 0 0 245.177 74.852 Q 245.733 74.459 246.216 73.7 Q 246.509 73.309 247.729 71.307 A 13202.869 13202.869 0 0 1 248.545 69.97 Q 249.5 68.405 250.708 66.425 A 1240.234 1240.234 0 0 0 252.527 63.434 A 1526.901 1526.901 0 0 0 254.468 60.224 A 1755.064 1755.064 0 0 0 256.421 56.976 A 1521.982 1521.982 0 0 0 258.276 53.876 Q 259.406 51.984 260.363 50.397 A 539.639 539.639 0 0 1 261.45 48.602 Q 262.518 46.848 262.99 46.047 A 33.435 33.435 0 0 0 263.208 45.673 A 8.863 8.863 0 0 1 263.962 45.899 A 11.579 11.579 0 0 1 264.868 46.259 A 3.771 3.771 0 0 0 265.146 46.369 Q 265.567 46.517 266.067 46.587 A 6.871 6.871 0 0 0 267.017 46.649 Q 267.676 46.649 268.088 46.622 A 5.678 5.678 0 0 0 268.335 46.6 Q 268.774 46.552 269.019 46.552 A 2.484 2.484 0 0 0 269.507 46.503 A 1.729 1.729 0 0 1 269.657 46.481 Q 269.903 46.454 270.337 46.454 A 1.91 1.91 0 0 1 270.686 46.484 A 1.283 1.283 0 0 1 271.606 47.138 A 2.862 2.862 0 0 1 271.88 47.797 A 3.373 3.373 0 0 1 271.997 48.7 A 3.706 3.706 0 0 1 271.997 48.765 Q 271.973 50.115 270.972 52.069 A 66.652 66.652 0 0 1 270.269 53.401 Q 269.427 54.956 268.286 56.903 A 43.962 43.962 0 0 1 267.935 57.59 A 48.924 48.924 0 0 1 266.772 59.686 Q 265.942 61.102 265.21 62.518 A 37.515 37.515 0 0 0 264.771 63.394 A 31.67 31.67 0 0 0 263.94 65.253 A 10.023 10.023 0 0 0 263.549 66.398 A 7.485 7.485 0 0 0 263.306 67.743 A 8.128 8.128 0 0 0 263.288 68.284 Q 263.288 69.519 263.647 70.917 Q 264.087 72.626 265.112 74.042 A 8.057 8.057 0 0 0 265.971 75.042 A 9.232 9.232 0 0 0 267.798 76.434 A 6.008 6.008 0 0 0 268.409 76.748 Q 269.224 77.109 270.216 77.274 A 10.9 10.9 0 0 0 271.997 77.411 Q 273.447 77.411 274.982 76.895 A 13.413 13.413 0 0 0 277.124 75.946 A 28.054 28.054 0 0 0 279.474 74.506 A 34.825 34.825 0 0 0 282.495 72.186 A 50.252 50.252 0 0 0 287.622 67.108 A 111.442 111.442 0 0 0 289.105 65.383 A 94.316 94.316 0 0 0 292.065 61.688 A 121.934 121.934 0 0 0 292.617 60.956 Q 293.427 59.873 294.132 58.877 A 71.912 71.912 0 0 0 295.483 56.903 Q 296.899 54.755 297.485 53.778 A 9.36 9.36 0 0 0 297.625 53.538 Q 298.352 52.24 298.218 51.434 A 2.737 2.737 0 0 0 298.181 51.253 Q 298.009 50.524 297.485 50.263 A 1.399 1.399 0 0 0 296.851 50.116 Q 296.664 50.116 296.462 50.16 A 2.484 2.484 0 0 0 296.118 50.263 A 2.384 2.384 0 0 0 295.408 50.68 A 2.795 2.795 0 0 0 294.849 51.337 A 26.029 26.029 0 0 0 294.804 51.397 Q 294.217 52.184 293.042 53.876 Q 292.355 54.865 291.499 55.992 A 92.845 92.845 0 0 1 290.063 57.831 A 97.7 97.7 0 0 1 289.166 58.936 A 111.846 111.846 0 0 1 286.255 62.323 A 61.875 61.875 0 0 1 285.226 63.446 A 54.646 54.646 0 0 1 282.104 66.522 A 31.927 31.927 0 0 1 280.158 68.157 A 23.995 23.995 0 0 1 278.003 69.647 A 11.224 11.224 0 0 1 277.174 70.108 Q 276.495 70.447 275.859 70.634 A 5.36 5.36 0 0 1 274.341 70.868 Q 272.095 70.868 271.606 70.087 A 3.697 3.697 0 0 1 271.401 69.71 Q 271.232 69.352 271.109 68.915 A 7.481 7.481 0 0 1 270.923 68.036 A 4.981 4.981 0 0 1 270.898 67.54 Q 270.898 65.778 272.095 63.641 A 59.316 59.316 0 0 1 273.291 61.599 A 46.676 46.676 0 0 1 274.829 59.247 A 107.5 107.5 0 0 0 275.116 58.846 Q 276.109 57.45 276.964 56.154 A 66.129 66.129 0 0 0 278.638 53.485 Q 280.2 50.849 279.907 48.407 Q 279.81 47.235 279.468 45.819 Q 279.126 44.403 278.442 43.182 Q 277.759 41.962 276.685 41.132 A 3.853 3.853 0 0 0 275.158 40.428 A 5.46 5.46 0 0 0 273.95 40.302 Q 272.968 40.302 272.363 40.403 A 3.235 3.235 0 0 0 271.948 40.497 A 3.028 3.028 0 0 1 271.556 40.585 Q 270.908 40.692 269.751 40.692 A 8.234 8.234 0 0 1 269.412 40.686 Q 268.596 40.652 268.188 40.448 A 11.362 11.362 0 0 1 267.889 40.293 Q 267.604 40.14 267.407 40.009 Q 268.481 38.446 268.872 36.493 Q 269.181 34.947 269.123 33.829 A 5.577 5.577 0 0 0 269.067 33.27 A 7.619 7.619 0 0 0 268.719 31.666 A 8.985 8.985 0 0 0 267.749 29.657 Q 266.942 28.394 265.302 28.038 A 6.667 6.667 0 0 0 263.892 27.899 A 3.36 3.36 0 0 0 262.953 28.037 Q 262.399 28.197 261.831 28.546 A 7.182 7.182 0 0 0 260.864 29.266 A 14.927 14.927 0 0 0 259.916 30.173 A 17.177 17.177 0 0 0 258.032 32.538 A 19.873 19.873 0 0 0 255.981 36.493 A 12.514 12.514 0 0 0 255.645 37.493 Q 255.336 38.57 255.358 39.382 A 3.441 3.441 0 0 0 255.396 39.813 Q 255.539 40.889 255.788 41.412 A 1.3 1.3 0 0 0 255.981 41.718 Q 256.274 42.047 256.952 42.679 A 53.431 53.431 0 0 0 257.446 43.134 Q 256.86 44.208 255.591 46.6 Q 254.321 48.993 252.808 52.02 A 1137.77 1137.77 0 0 0 251.257 55.133 A 1329.819 1329.819 0 0 0 249.634 58.417 A 7952.539 7952.539 0 0 0 248.035 61.664 A 6285.277 6285.277 0 0 0 246.558 64.667 Q 245.142 67.548 244.116 69.599 L 242.798 72.235 A 5.515 5.515 0 0 0 242.584 72.715 Q 242.253 73.573 242.407 74.188 Q 242.603 74.97 243.237 75.214 A 1.554 1.554 0 0 0 243.8 75.315 Q 244.218 75.315 244.702 75.116 Z M 747.534 75.116 A 2.413 2.413 0 0 0 748.01 74.852 Q 748.565 74.459 749.048 73.7 Q 749.341 73.309 750.562 71.307 A 13202.869 13202.869 0 0 1 751.377 69.97 Q 752.332 68.405 753.54 66.425 A 1240.234 1240.234 0 0 0 755.359 63.434 A 1526.901 1526.901 0 0 0 757.3 60.224 A 1755.064 1755.064 0 0 0 759.253 56.976 A 1521.982 1521.982 0 0 0 761.108 53.876 Q 762.238 51.984 763.195 50.397 A 539.639 539.639 0 0 1 764.282 48.602 Q 765.35 46.848 765.822 46.047 A 33.435 33.435 0 0 0 766.04 45.673 A 8.863 8.863 0 0 1 766.794 45.899 A 11.579 11.579 0 0 1 767.7 46.259 A 3.771 3.771 0 0 0 767.978 46.369 Q 768.399 46.517 768.899 46.587 A 6.871 6.871 0 0 0 769.849 46.649 Q 770.508 46.649 770.92 46.622 A 5.678 5.678 0 0 0 771.167 46.6 Q 771.606 46.552 771.851 46.552 A 2.484 2.484 0 0 0 772.339 46.503 A 1.729 1.729 0 0 1 772.489 46.481 Q 772.735 46.454 773.169 46.454 A 1.91 1.91 0 0 1 773.518 46.484 A 1.283 1.283 0 0 1 774.438 47.138 A 2.862 2.862 0 0 1 774.712 47.797 A 3.373 3.373 0 0 1 774.829 48.7 A 3.706 3.706 0 0 1 774.829 48.765 Q 774.805 50.115 773.804 52.069 A 66.652 66.652 0 0 1 773.101 53.401 Q 772.26 54.956 771.118 56.903 A 43.962 43.962 0 0 1 770.767 57.59 A 48.924 48.924 0 0 1 769.604 59.686 Q 768.774 61.102 768.042 62.518 A 37.515 37.515 0 0 0 767.603 63.394 A 31.67 31.67 0 0 0 766.772 65.253 A 10.023 10.023 0 0 0 766.381 66.398 A 7.485 7.485 0 0 0 766.138 67.743 A 8.128 8.128 0 0 0 766.12 68.284 Q 766.12 69.519 766.479 70.917 Q 766.919 72.626 767.944 74.042 A 8.057 8.057 0 0 0 768.803 75.042 A 9.232 9.232 0 0 0 770.63 76.434 A 6.008 6.008 0 0 0 771.241 76.748 Q 772.056 77.109 773.048 77.274 A 10.9 10.9 0 0 0 774.829 77.411 Q 776.279 77.411 777.814 76.895 A 13.413 13.413 0 0 0 779.956 75.946 A 28.054 28.054 0 0 0 782.306 74.506 A 34.825 34.825 0 0 0 785.327 72.186 A 50.252 50.252 0 0 0 790.454 67.108 A 111.442 111.442 0 0 0 791.937 65.383 A 94.316 94.316 0 0 0 794.897 61.688 A 121.934 121.934 0 0 0 795.449 60.956 Q 796.259 59.873 796.964 58.877 A 71.912 71.912 0 0 0 798.315 56.903 Q 799.731 54.755 800.317 53.778 A 9.36 9.36 0 0 0 800.457 53.538 Q 801.184 52.24 801.05 51.434 A 2.737 2.737 0 0 0 801.014 51.253 Q 800.841 50.524 800.317 50.263 A 1.399 1.399 0 0 0 799.683 50.116 Q 799.496 50.116 799.294 50.16 A 2.484 2.484 0 0 0 798.95 50.263 A 2.384 2.384 0 0 0 798.24 50.68 A 2.795 2.795 0 0 0 797.681 51.337 A 26.029 26.029 0 0 0 797.636 51.397 Q 797.049 52.184 795.874 53.876 Q 795.187 54.865 794.331 55.992 A 92.845 92.845 0 0 1 792.896 57.831 A 97.7 97.7 0 0 1 791.998 58.936 A 111.846 111.846 0 0 1 789.087 62.323 A 61.875 61.875 0 0 1 788.058 63.446 A 54.646 54.646 0 0 1 784.937 66.522 A 31.927 31.927 0 0 1 782.99 68.157 A 23.995 23.995 0 0 1 780.835 69.647 A 11.224 11.224 0 0 1 780.006 70.108 Q 779.327 70.447 778.691 70.634 A 5.36 5.36 0 0 1 777.173 70.868 Q 774.927 70.868 774.438 70.087 A 3.697 3.697 0 0 1 774.233 69.71 Q 774.064 69.352 773.941 68.915 A 7.481 7.481 0 0 1 773.755 68.036 A 4.981 4.981 0 0 1 773.73 67.54 Q 773.73 65.778 774.927 63.641 A 59.316 59.316 0 0 1 776.123 61.599 A 46.676 46.676 0 0 1 777.661 59.247 A 107.5 107.5 0 0 0 777.948 58.846 Q 778.941 57.45 779.796 56.154 A 66.129 66.129 0 0 0 781.47 53.485 Q 783.032 50.849 782.739 48.407 Q 782.642 47.235 782.3 45.819 Q 781.958 44.403 781.274 43.182 Q 780.591 41.962 779.517 41.132 A 3.853 3.853 0 0 0 777.99 40.428 A 5.46 5.46 0 0 0 776.782 40.302 Q 775.8 40.302 775.195 40.403 A 3.235 3.235 0 0 0 774.78 40.497 A 3.028 3.028 0 0 1 774.388 40.585 Q 773.74 40.692 772.583 40.692 A 8.234 8.234 0 0 1 772.244 40.686 Q 771.428 40.652 771.021 40.448 A 11.362 11.362 0 0 1 770.721 40.293 Q 770.436 40.14 770.239 40.009 Q 771.313 38.446 771.704 36.493 Q 772.013 34.947 771.955 33.829 A 5.577 5.577 0 0 0 771.899 33.27 A 7.619 7.619 0 0 0 771.551 31.666 A 8.985 8.985 0 0 0 770.581 29.657 Q 769.774 28.394 768.134 28.038 A 6.667 6.667 0 0 0 766.724 27.899 A 3.36 3.36 0 0 0 765.785 28.037 Q 765.231 28.197 764.663 28.546 A 7.182 7.182 0 0 0 763.696 29.266 A 14.927 14.927 0 0 0 762.748 30.173 A 17.177 17.177 0 0 0 760.864 32.538 A 19.873 19.873 0 0 0 758.813 36.493 A 12.514 12.514 0 0 0 758.477 37.493 Q 758.168 38.57 758.19 39.382 A 3.441 3.441 0 0 0 758.228 39.813 Q 758.371 40.889 758.62 41.412 A 1.3 1.3 0 0 0 758.813 41.718 Q 759.106 42.047 759.784 42.679 A 53.431 53.431 0 0 0 760.278 43.134 Q 759.692 44.208 758.423 46.6 Q 757.153 48.993 755.64 52.02 A 1137.77 1137.77 0 0 0 754.089 55.133 A 1329.819 1329.819 0 0 0 752.466 58.417 A 7952.539 7952.539 0 0 0 750.867 61.664 A 6285.277 6285.277 0 0 0 749.39 64.667 Q 747.974 67.548 746.948 69.599 L 745.63 72.235 A 5.515 5.515 0 0 0 745.416 72.715 Q 745.085 73.573 745.239 74.188 Q 745.435 74.97 746.069 75.214 A 1.554 1.554 0 0 0 746.632 75.315 Q 747.05 75.315 747.534 75.116 Z M 427.075 49.677 L 426.001 53.974 A 159.592 159.592 0 0 1 425.6 55.615 Q 425.238 57.068 424.78 58.807 A 99.663 99.663 0 0 1 423.962 61.725 A 133.02 133.02 0 0 1 422.974 64.911 A 15.173 15.173 0 0 0 422.67 66.246 Q 422.44 67.543 422.531 68.583 A 6.324 6.324 0 0 0 422.534 68.622 A 2.037 2.037 0 0 0 422.717 69.324 Q 423.134 70.184 424.438 70.184 A 3.864 3.864 0 0 0 425.66 69.964 Q 426.746 69.6 428.09 68.637 A 18.747 18.747 0 0 0 428.882 68.036 A 41.685 41.685 0 0 0 431.919 65.341 A 53.878 53.878 0 0 0 434.302 62.86 Q 437.036 59.833 439.478 56.659 Q 441.49 54.043 442.706 52.256 A 41.025 41.025 0 0 0 443.188 51.532 A 9.122 9.122 0 0 1 443.675 50.888 Q 444.287 50.153 444.849 49.872 A 2.751 2.751 0 0 1 445.117 49.754 Q 445.581 49.581 445.903 49.692 A 0.722 0.722 0 0 1 446.069 49.774 A 0.783 0.783 0 0 1 446.333 50.088 Q 446.47 50.365 446.5 50.818 A 4.103 4.103 0 0 1 446.509 51.093 A 3.553 3.553 0 0 1 446.419 51.852 Q 446.258 52.583 445.811 53.511 A 12.797 12.797 0 0 1 445.728 53.681 A 24.602 24.602 0 0 1 445.229 54.621 Q 444.601 55.75 443.628 57.294 A 54.836 54.836 0 0 1 442.078 59.613 A 72.656 72.656 0 0 1 440.259 62.079 A 110.789 110.789 0 0 1 436.617 66.56 A 122.53 122.53 0 0 1 436.06 67.206 A 45.901 45.901 0 0 1 431.828 71.495 A 41.994 41.994 0 0 1 431.372 71.893 A 32.209 32.209 0 0 1 428.716 73.956 A 25.146 25.146 0 0 1 426.538 75.311 A 11.966 11.966 0 0 1 424.634 76.165 Q 423.273 76.63 421.997 76.63 Q 419.791 76.63 418.197 75.829 A 6.4 6.4 0 0 1 418.14 75.8 Q 416.528 74.97 415.552 73.602 Q 414.575 72.235 414.282 70.429 A 8.667 8.667 0 0 1 414.172 69.039 Q 414.172 68.187 414.33 67.285 A 12.003 12.003 0 0 1 414.478 66.571 Q 414.742 65.336 415.326 63.344 A 98.468 98.468 0 0 1 415.454 62.909 Q 416.138 60.614 416.87 57.929 Q 417.603 55.243 418.237 52.557 A 41.578 41.578 0 0 0 418.736 50.147 Q 418.964 48.842 419.067 47.675 A 16.893 16.893 0 0 0 419.122 46.836 Q 419.18 45.341 418.924 44.264 A 5.832 5.832 0 0 0 418.872 44.061 A 2.648 2.648 0 0 0 418.617 43.434 Q 418.159 42.645 417.212 42.645 Q 415.649 42.645 413.989 43.671 Q 412.433 44.632 410.834 46.237 A 24.741 24.741 0 0 0 410.62 46.454 A 36.911 36.911 0 0 0 408.591 48.731 A 46.536 46.536 0 0 0 407.202 50.507 Q 405.493 52.802 403.833 55.243 A 287.43 287.43 0 0 0 403.215 57.617 Q 402.975 58.557 402.763 59.416 A 160.876 160.876 0 0 0 402.368 61.054 A 366.778 366.778 0 0 0 401.835 63.351 Q 401.586 64.441 401.371 65.416 A 220.166 220.166 0 0 0 401.343 65.546 Q 400.965 67.266 400.624 68.626 A 69.769 69.769 0 0 1 400.513 69.061 A 75.417 75.417 0 0 0 400.022 71.073 A 63.721 63.721 0 0 0 399.829 71.942 A 2.277 2.277 0 0 1 399.447 72.664 Q 399.035 73.205 398.25 73.73 A 8.54 8.54 0 0 1 398.071 73.847 A 15.398 15.398 0 0 1 394.946 75.36 A 12.615 12.615 0 0 1 393.81 75.706 Q 393.238 75.848 392.731 75.906 A 5.868 5.868 0 0 1 392.065 75.946 Q 390.845 75.946 391.04 75.067 Q 391.135 74.499 391.643 72.554 A 160.983 160.983 0 0 1 391.675 72.431 A 3232.082 3232.082 0 0 1 392.105 70.789 Q 392.487 69.336 392.944 67.597 A 454.86 454.86 0 0 0 393.689 64.728 A 538.527 538.527 0 0 0 394.458 61.688 A 814.721 814.721 0 0 0 395.215 58.637 A 700.831 700.831 0 0 0 395.923 55.731 A 1490.628 1490.628 0 0 0 396.436 53.363 A 1999.136 1999.136 0 0 0 396.997 50.751 Q 397.485 48.407 398.218 45.282 A 228.456 228.456 0 0 1 399.011 42.011 A 298.514 298.514 0 0 1 399.927 38.446 A 6.592 6.592 0 0 1 400.845 37.782 A 5.632 5.632 0 0 1 401.343 37.518 A 8.374 8.374 0 0 1 402.856 36.981 A 6.829 6.829 0 0 1 404.407 36.604 A 7.571 7.571 0 0 1 404.517 36.591 Q 405.298 36.591 406.079 36.688 A 7.698 7.698 0 0 1 407.042 36.892 A 9.128 9.128 0 0 1 407.495 37.03 A 4.032 4.032 0 0 1 408.813 37.763 Q 408.549 38.38 408.205 39.436 A 43.684 43.684 0 0 0 408.13 39.667 Q 407.739 40.888 407.349 42.255 A 34.575 34.575 0 0 1 406.653 44.653 A 39.525 39.525 0 0 1 406.372 45.477 A 42.41 42.41 0 0 1 408.279 43.037 A 50.027 50.027 0 0 1 409.253 41.913 A 25.692 25.692 0 0 1 412.769 38.641 Q 414.673 37.177 416.821 36.249 Q 418.97 35.321 421.216 35.321 A 5.473 5.473 0 0 1 424.536 36.395 A 6.71 6.71 0 0 1 426.314 38.368 A 8.567 8.567 0 0 1 426.831 39.374 A 11.004 11.004 0 0 1 427.49 41.461 Q 427.704 42.455 427.787 43.588 A 18.817 18.817 0 0 1 427.808 43.915 A 13.76 13.76 0 0 1 427.829 44.678 Q 427.829 46.998 427.075 49.677 Z M 512.088 75.612 A 19.411 19.411 0 0 0 514.478 75.751 A 12.397 12.397 0 0 0 521.216 73.847 A 15.365 15.365 0 0 0 524.048 71.539 A 19.49 19.49 0 0 0 526.489 68.427 Q 527.563 71.845 529.077 73.651 A 4.825 4.825 0 0 0 531.408 75.204 A 6.199 6.199 0 0 0 533.228 75.458 A 7.869 7.869 0 0 0 534.82 75.291 Q 537.044 74.832 539.478 73.114 A 37.381 37.381 0 0 0 542.477 70.75 A 48.056 48.056 0 0 0 546.069 67.255 Q 549.341 63.739 552.222 59.589 A 87.246 87.246 0 0 0 554.871 55.548 A 65.967 65.967 0 0 0 557.056 51.727 A 4.691 4.691 0 0 0 557.178 51.491 Q 557.5 50.827 557.5 50.25 A 2.02 2.02 0 0 0 557.495 50.116 A 2.582 2.582 0 0 0 557.468 49.876 Q 557.379 49.325 557.056 49.042 A 0.875 0.875 0 0 0 556.46 48.824 Q 556.354 48.824 556.239 48.845 A 1.723 1.723 0 0 0 556.03 48.895 Q 555.574 49.036 555.093 49.529 A 5.218 5.218 0 0 0 554.712 49.97 A 21.536 21.536 0 0 0 554.671 50.025 Q 554.409 50.376 553.656 51.41 A 886.639 886.639 0 0 0 553.247 51.972 Q 552.075 53.583 550.415 55.731 A 135.676 135.676 0 0 1 548.669 57.941 A 167.074 167.074 0 0 1 546.753 60.272 A 74.813 74.813 0 0 1 545.721 61.48 A 64.69 64.69 0 0 1 542.749 64.667 A 42.112 42.112 0 0 1 542.687 64.729 Q 540.718 66.689 538.892 67.987 A 12.688 12.688 0 0 1 538.743 68.091 Q 537.655 68.841 536.739 69.128 A 3.588 3.588 0 0 1 535.669 69.306 A 3.452 3.452 0 0 1 535.476 69.3 A 2.887 2.887 0 0 1 534.253 68.964 A 1.868 1.868 0 0 1 533.897 68.712 Q 533.489 68.349 533.179 67.694 A 4.649 4.649 0 0 1 533.115 67.554 Q 532.848 66.939 532.638 66.003 A 18.303 18.303 0 0 1 532.446 65.009 Q 532.245 63.8 532.09 62.038 A 81.091 81.091 0 0 1 531.958 60.321 A 289.652 289.652 0 0 0 532.471 59.601 A 385.004 385.004 0 0 0 533.032 58.807 A 8.401 8.401 0 0 0 533.307 58.392 Q 533.755 57.668 534.204 56.659 A 24.575 24.575 0 0 0 534.481 56.009 Q 534.715 55.44 534.956 54.782 A 49.169 49.169 0 0 0 535.425 53.436 A 42.759 42.759 0 0 0 535.725 52.498 Q 535.977 51.678 536.237 50.732 A 87.216 87.216 0 0 0 536.743 48.798 A 33.033 33.033 0 0 0 537.183 47.15 A 28.225 28.225 0 0 0 537.915 42.352 A 167.562 167.562 0 0 0 537.996 40.973 Q 538.073 39.551 538.098 38.544 A 35.498 35.498 0 0 0 538.11 37.665 A 0.994 0.994 0 0 0 537.816 36.931 Q 537.523 36.639 536.938 36.493 Q 536.713 36.437 536.438 36.396 A 7.927 7.927 0 0 0 536.011 36.347 A 3.749 3.749 0 0 0 535.873 36.337 Q 535.376 36.31 534.692 36.395 Q 532.739 36.493 531.86 37.03 Q 531.187 37.441 530.4 38.912 A 18.089 18.089 0 0 0 529.907 39.911 A 22.745 22.745 0 0 0 529.73 40.273 Q 529.355 41.058 528.891 42.163 A 80.769 80.769 0 0 0 528.491 43.134 A 39.081 39.081 0 0 0 527.686 45.319 A 52.381 52.381 0 0 0 526.929 47.772 Q 526.196 50.36 525.659 53.339 Q 525.122 56.317 525.122 59.442 Q 525.122 61.102 525.415 62.665 A 24.422 24.422 0 0 1 523.698 65.019 A 18.613 18.613 0 0 1 521.118 67.597 A 9.761 9.761 0 0 1 519.634 68.601 A 7.025 7.025 0 0 1 516.235 69.501 A 11.11 11.11 0 0 1 514.796 69.413 Q 512.079 69.058 511.06 67.255 Q 509.966 65.321 510.177 61.793 A 23.175 23.175 0 0 1 510.278 60.614 Q 510.413 59.271 510.87 57.329 A 55.876 55.876 0 0 1 511.353 55.438 A 71.741 71.741 0 0 1 511.525 54.823 Q 512.079 52.884 512.936 50.256 A 236.612 236.612 0 0 1 513.647 48.114 Q 514.783 44.745 516.55 40.112 A 403.227 403.227 0 0 1 517.798 36.884 A 4.414 4.414 0 0 0 517.191 36.705 A 5.143 5.143 0 0 0 516.089 36.591 A 16.353 16.353 0 0 0 514.282 36.688 A 132.019 132.019 0 0 0 513.751 36.786 A 115.161 115.161 0 0 0 512.231 37.079 A 7.147 7.147 0 0 0 508.276 39.96 A 16.484 16.484 0 0 0 507.067 42.089 A 20.92 20.92 0 0 0 505.981 44.891 A 2.972 2.972 0 0 0 505.962 44.942 Q 505.8 45.369 505.438 46.652 A 112.171 112.171 0 0 0 505.249 47.333 Q 504.712 49.286 504.028 52.069 A 58.718 58.718 0 0 0 503.505 54.411 A 72.862 72.862 0 0 0 502.856 58.124 A 47.607 47.607 0 0 0 502.589 60.234 A 39.636 39.636 0 0 0 502.368 64.325 A 10.364 10.364 0 0 0 502.369 64.436 Q 502.378 65.268 502.52 66.185 A 17.027 17.027 0 0 0 502.905 67.987 A 10.475 10.475 0 0 0 504.761 71.698 A 9.114 9.114 0 0 0 506.509 73.407 A 12.358 12.358 0 0 0 508.423 74.579 A 9.293 9.293 0 0 0 509.771 75.121 Q 510.826 75.456 512.088 75.612 Z M 758.569 55.789 A 126.445 126.445 0 0 0 759.302 54.755 A 14.832 14.832 0 0 0 759.35 54.69 Q 760.479 53.168 760.718 52.02 A 5.443 5.443 0 0 0 760.742 51.895 Q 760.941 50.817 760.571 50.263 A 1.309 1.309 0 0 0 760.537 50.214 Q 760.147 49.683 759.399 49.823 A 1.989 1.989 0 0 0 758.862 50.01 Q 758.35 50.272 757.837 50.849 Q 757.251 51.63 755.933 53.29 Q 755.191 54.224 754.341 55.312 A 452.476 452.476 0 0 0 752.954 57.099 A 147.566 147.566 0 0 1 752.109 58.182 A 170.056 170.056 0 0 1 749.39 61.542 A 117.618 117.618 0 0 1 747.522 63.739 A 95.297 95.297 0 0 1 745.728 65.741 Q 743.97 67.645 742.407 68.866 Q 740.845 70.087 739.868 70.087 Q 738.696 70.087 738.062 69.55 A 2.865 2.865 0 0 1 737.549 68.982 A 3.371 3.371 0 0 1 737.134 68.134 A 6.407 6.407 0 0 1 736.968 67.541 A 7.433 7.433 0 0 1 736.792 66.229 Q 736.743 65.204 736.841 64.325 L 737.329 61.884 L 737.671 60.175 L 737.964 58.71 A 67.659 67.659 0 0 1 738.123 57.941 A 89.496 89.496 0 0 1 738.306 57.099 A 1371.173 1371.173 0 0 0 738.507 56.169 Q 739.344 52.308 739.868 49.774 A 290.755 290.755 0 0 0 740.127 48.511 Q 740.393 47.193 740.582 46.185 A 86.451 86.451 0 0 0 740.747 45.282 Q 741.04 43.622 741.04 42.987 Q 741.04 42.501 740.983 42.273 A 0.574 0.574 0 0 0 740.942 42.157 Q 740.747 42.059 740.161 42.059 A 6.586 6.586 0 0 0 739.908 42.065 Q 739.455 42.082 738.745 42.157 A 14.328 14.328 0 0 0 738.191 42.227 Q 737.434 42.337 736.45 42.548 A 18.266 18.266 0 0 0 736.772 42.039 Q 738.465 39.265 738.062 37.518 A 6.024 6.024 0 0 0 737.773 36.598 A 4.377 4.377 0 0 0 736.255 34.638 A 8.298 8.298 0 0 0 735.533 34.222 Q 734.752 33.821 733.798 33.524 A 15.934 15.934 0 0 0 731.958 33.075 A 5.32 5.32 0 0 0 731.497 33.056 Q 729.37 33.056 726.294 34.638 A 20.767 20.767 0 0 0 725.572 35.027 Q 722.505 36.761 719.36 39.862 Q 715.845 43.329 712.866 48.212 A 33.971 33.971 0 0 0 711.932 49.843 A 36.78 36.78 0 0 0 708.521 59.052 A 37.291 37.291 0 0 0 708.3 60.008 Q 707.652 62.998 707.677 65.387 A 15.199 15.199 0 0 0 707.739 66.62 Q 708.032 69.794 709.106 71.796 A 10.861 10.861 0 0 0 709.166 71.904 Q 709.612 72.714 710.14 73.342 A 6.3 6.3 0 0 0 711.743 74.725 A 8.848 8.848 0 0 0 712.137 74.946 Q 712.722 75.255 713.28 75.428 A 4.668 4.668 0 0 0 714.673 75.653 A 19.729 19.729 0 0 0 715.268 75.604 A 21.21 21.21 0 0 0 720.532 74.384 A 16.331 16.331 0 0 0 721.072 74.165 Q 722.249 73.663 723.487 72.927 A 28.832 28.832 0 0 0 725.903 71.307 A 14.84 14.84 0 0 0 726.631 70.732 Q 729.04 68.701 731.079 65.302 A 26.982 26.982 0 0 0 731.071 65.54 Q 731.027 67.105 731.178 68.352 A 11.028 11.028 0 0 0 731.421 69.696 A 25.662 25.662 0 0 0 731.715 70.776 Q 731.864 71.279 732.019 71.709 A 10.965 10.965 0 0 0 732.349 72.528 Q 732.623 73.123 732.962 73.59 A 4.386 4.386 0 0 0 733.813 74.481 A 5.227 5.227 0 0 0 734.607 74.915 A 6.291 6.291 0 0 0 735.864 75.311 A 7.93 7.93 0 0 0 736.075 75.352 Q 737.154 75.547 738.354 75.458 Q 739.673 75.36 740.942 74.97 A 11.737 11.737 0 0 0 741.89 74.635 A 9.28 9.28 0 0 0 743.188 73.993 A 9.378 9.378 0 0 0 743.592 73.707 Q 744.507 73.025 745.673 71.858 A 41.001 41.001 0 0 0 746.851 70.624 A 87.881 87.881 0 0 0 748.512 68.761 A 106.191 106.191 0 0 0 751.343 65.35 A 228.204 228.204 0 0 0 755.786 59.589 Q 757.397 57.428 758.569 55.789 Z M 133.654 61.972 A 74.426 74.426 0 0 0 140.063 53.876 A 6.025 6.025 0 0 0 140.389 53.301 Q 140.554 52.966 140.643 52.657 A 2.476 2.476 0 0 0 140.747 51.972 A 2.612 2.612 0 0 0 140.728 51.65 Q 140.701 51.43 140.634 51.254 A 1.026 1.026 0 0 0 140.308 50.8 A 1.093 1.093 0 0 0 139.928 50.609 Q 139.678 50.539 139.368 50.569 A 2.336 2.336 0 0 0 139.136 50.604 A 1.888 1.888 0 0 0 138.724 50.738 Q 138.21 50.972 137.72 51.532 A 100.733 100.733 0 0 1 136.399 53.083 Q 135.688 53.901 134.878 54.805 A 206.023 206.023 0 0 1 132.788 57.099 A 77.803 77.803 0 0 1 126.343 63.3 A 53.055 53.055 0 0 1 124.819 64.561 A 46.157 46.157 0 0 1 119.263 68.378 A 20.524 20.524 0 0 1 118.956 68.552 Q 117.478 69.378 116.048 69.849 A 11.834 11.834 0 0 1 112.329 70.477 A 10.98 10.98 0 0 1 109.253 70.038 Q 107.739 69.599 106.567 68.573 A 7.162 7.162 0 0 1 105.493 67.389 A 9.218 9.218 0 0 1 104.614 65.888 Q 103.833 64.227 103.735 61.786 Q 104.559 61.182 105.538 60.5 A 134.254 134.254 0 0 1 107.153 59.393 A 987.321 987.321 0 0 0 109.155 58.038 A 1144.49 1144.49 0 0 0 111.255 56.61 Q 113.208 55.243 115.405 53.583 A 34.198 34.198 0 0 0 119.556 49.872 Q 121.509 47.821 122.925 45.282 Q 124.341 42.743 124.634 39.716 Q 124.66 39.35 124.653 39 A 5.793 5.793 0 0 0 123.169 35.126 A 4.84 4.84 0 0 0 121.547 33.954 Q 120.744 33.587 119.723 33.417 A 11.749 11.749 0 0 0 117.798 33.27 A 12.994 12.994 0 0 0 113.601 33.98 A 16.729 16.729 0 0 0 110.034 35.712 A 27.97 27.97 0 0 0 109.764 35.885 A 29.517 29.517 0 0 0 103.101 41.864 A 38.476 38.476 0 0 0 97.925 50.018 A 30.535 30.535 0 0 0 96.373 53.955 A 22.454 22.454 0 0 0 95.435 58.466 Q 95.137 61.441 95.474 63.873 A 14.512 14.512 0 0 0 96.167 66.766 A 18.563 18.563 0 0 0 97.394 69.514 A 13.567 13.567 0 0 0 99.438 72.333 A 15.347 15.347 0 0 0 100.29 73.159 A 12.815 12.815 0 0 0 103.979 75.507 Q 105.166 75.995 106.275 76.251 A 10.421 10.421 0 0 0 108.618 76.532 A 18.385 18.385 0 0 0 112.649 76.074 A 23.122 23.122 0 0 0 117.065 74.579 A 39.217 39.217 0 0 0 119.494 73.384 A 44.803 44.803 0 0 0 125.562 69.452 A 60.473 60.473 0 0 0 133.423 62.225 A 81.265 81.265 0 0 0 133.654 61.972 Z M 328.381 61.972 A 74.426 74.426 0 0 0 334.79 53.876 A 6.025 6.025 0 0 0 335.115 53.301 Q 335.28 52.966 335.369 52.657 A 2.476 2.476 0 0 0 335.474 51.972 A 2.612 2.612 0 0 0 335.455 51.65 Q 335.428 51.43 335.36 51.254 A 1.026 1.026 0 0 0 335.034 50.8 A 1.093 1.093 0 0 0 334.655 50.609 Q 334.405 50.539 334.095 50.569 A 2.336 2.336 0 0 0 333.862 50.604 A 1.888 1.888 0 0 0 333.451 50.738 Q 332.936 50.972 332.446 51.532 A 100.733 100.733 0 0 1 331.125 53.083 Q 330.415 53.901 329.604 54.805 A 206.023 206.023 0 0 1 327.515 57.099 A 77.803 77.803 0 0 1 321.069 63.3 A 53.055 53.055 0 0 1 319.546 64.561 A 46.157 46.157 0 0 1 313.989 68.378 A 20.524 20.524 0 0 1 313.683 68.552 Q 312.204 69.378 310.775 69.849 A 11.834 11.834 0 0 1 307.056 70.477 A 10.98 10.98 0 0 1 303.979 70.038 Q 302.466 69.599 301.294 68.573 A 7.162 7.162 0 0 1 300.22 67.389 A 9.218 9.218 0 0 1 299.341 65.888 Q 298.56 64.227 298.462 61.786 Q 299.286 61.182 300.264 60.5 A 134.254 134.254 0 0 1 301.88 59.393 A 987.321 987.321 0 0 0 303.882 58.038 A 1144.49 1144.49 0 0 0 305.981 56.61 Q 307.935 55.243 310.132 53.583 A 34.198 34.198 0 0 0 314.282 49.872 Q 316.235 47.821 317.651 45.282 Q 319.067 42.743 319.36 39.716 Q 319.386 39.35 319.379 39 A 5.793 5.793 0 0 0 317.896 35.126 A 4.84 4.84 0 0 0 316.274 33.954 Q 315.47 33.587 314.45 33.417 A 11.749 11.749 0 0 0 312.524 33.27 A 12.994 12.994 0 0 0 308.327 33.98 A 16.729 16.729 0 0 0 304.761 35.712 A 27.97 27.97 0 0 0 304.49 35.885 A 29.517 29.517 0 0 0 297.827 41.864 A 38.476 38.476 0 0 0 292.651 50.018 A 30.535 30.535 0 0 0 291.099 53.955 A 22.454 22.454 0 0 0 290.161 58.466 Q 289.864 61.441 290.201 63.873 A 14.512 14.512 0 0 0 290.894 66.766 A 18.563 18.563 0 0 0 292.121 69.514 A 13.567 13.567 0 0 0 294.165 72.333 A 15.347 15.347 0 0 0 295.016 73.159 A 12.815 12.815 0 0 0 298.706 75.507 Q 299.893 75.995 301.002 76.251 A 10.421 10.421 0 0 0 303.345 76.532 A 18.385 18.385 0 0 0 307.375 76.074 A 23.122 23.122 0 0 0 311.792 74.579 A 39.217 39.217 0 0 0 314.221 73.384 A 44.803 44.803 0 0 0 320.288 69.452 A 60.473 60.473 0 0 0 328.149 62.225 A 81.265 81.265 0 0 0 328.381 61.972 Z M 393.615 61.972 A 74.426 74.426 0 0 0 400.024 53.876 A 6.025 6.025 0 0 0 400.35 53.301 Q 400.515 52.966 400.604 52.657 A 2.476 2.476 0 0 0 400.708 51.972 A 2.612 2.612 0 0 0 400.689 51.65 Q 400.662 51.43 400.595 51.254 A 1.026 1.026 0 0 0 400.269 50.8 A 1.093 1.093 0 0 0 399.889 50.609 Q 399.639 50.539 399.329 50.569 A 2.336 2.336 0 0 0 399.097 50.604 A 1.888 1.888 0 0 0 398.685 50.738 Q 398.17 50.972 397.681 51.532 A 100.733 100.733 0 0 1 396.36 53.083 Q 395.649 53.901 394.839 54.805 A 206.023 206.023 0 0 1 392.749 57.099 A 77.803 77.803 0 0 1 386.304 63.3 A 53.055 53.055 0 0 1 384.78 64.561 A 46.157 46.157 0 0 1 379.224 68.378 A 20.524 20.524 0 0 1 378.917 68.552 Q 377.439 69.378 376.009 69.849 A 11.834 11.834 0 0 1 372.29 70.477 A 10.98 10.98 0 0 1 369.214 70.038 Q 367.7 69.599 366.528 68.573 A 7.162 7.162 0 0 1 365.454 67.389 A 9.218 9.218 0 0 1 364.575 65.888 Q 363.794 64.227 363.696 61.786 Q 364.52 61.182 365.499 60.5 A 134.254 134.254 0 0 1 367.114 59.393 A 987.321 987.321 0 0 0 369.116 58.038 A 1144.49 1144.49 0 0 0 371.216 56.61 Q 373.169 55.243 375.366 53.583 A 34.198 34.198 0 0 0 379.517 49.872 Q 381.47 47.821 382.886 45.282 Q 384.302 42.743 384.595 39.716 Q 384.621 39.35 384.614 39 A 5.793 5.793 0 0 0 383.13 35.126 A 4.84 4.84 0 0 0 381.508 33.954 Q 380.705 33.587 379.684 33.417 A 11.749 11.749 0 0 0 377.759 33.27 A 12.994 12.994 0 0 0 373.562 33.98 A 16.729 16.729 0 0 0 369.995 35.712 A 27.97 27.97 0 0 0 369.725 35.885 A 29.517 29.517 0 0 0 363.062 41.864 A 38.476 38.476 0 0 0 357.886 50.018 A 30.535 30.535 0 0 0 356.334 53.955 A 22.454 22.454 0 0 0 355.396 58.466 Q 355.098 61.441 355.435 63.873 A 14.512 14.512 0 0 0 356.128 66.766 A 18.563 18.563 0 0 0 357.355 69.514 A 13.567 13.567 0 0 0 359.399 72.333 A 15.347 15.347 0 0 0 360.251 73.159 A 12.815 12.815 0 0 0 363.94 75.507 Q 365.127 75.995 366.236 76.251 A 10.421 10.421 0 0 0 368.579 76.532 A 18.385 18.385 0 0 0 372.61 76.074 A 23.122 23.122 0 0 0 377.026 74.579 A 39.217 39.217 0 0 0 379.455 73.384 A 44.803 44.803 0 0 0 385.522 69.452 A 60.473 60.473 0 0 0 393.384 62.225 A 81.265 81.265 0 0 0 393.615 61.972 Z M 480.981 70.868 A 2.194 2.194 0 0 0 481.675 71.167 Q 482.045 71.259 482.495 71.259 A 4.65 4.65 0 0 0 484.061 70.981 A 5.44 5.44 0 0 0 484.351 70.868 A 7.017 7.017 0 0 0 485.952 69.919 A 7.91 7.91 0 0 0 486.108 69.794 A 3.971 3.971 0 0 0 487.292 68.136 A 4.719 4.719 0 0 0 487.329 68.036 A 3.027 3.027 0 0 0 487.469 67.482 Q 487.605 66.636 487.406 65.394 A 12.937 12.937 0 0 0 487.329 64.96 A 25.745 25.745 0 0 0 486.77 62.683 A 33.703 33.703 0 0 0 486.108 60.663 A 104.323 104.323 0 0 0 484.302 56.024 A 92.937 92.937 0 0 1 483.398 53.778 A 68.412 68.412 0 0 1 482.642 51.727 A 40.455 40.455 0 0 1 482.104 50.311 A 31.256 31.256 0 0 1 481.665 48.993 A 82.561 82.561 0 0 1 480.954 46.958 A 75.05 75.05 0 0 1 480.933 46.893 A 29.91 29.91 0 0 0 480.771 46.421 Q 480.547 45.785 480.402 45.491 A 2.579 2.579 0 0 0 480.396 45.477 Q 479.946 46.197 478.875 47.745 A 191.938 191.938 0 0 1 478.687 48.016 A 129.099 129.099 0 0 1 477.417 49.811 A 150.735 150.735 0 0 1 476.05 51.679 A 177.26 177.26 0 0 1 474.67 53.51 A 142.494 142.494 0 0 1 473.364 55.194 A 319.357 319.357 0 0 1 472.812 55.893 Q 472.175 56.697 471.807 57.148 A 31.439 31.439 0 0 1 471.606 57.391 Q 471.121 57.937 470.655 58.201 A 1.906 1.906 0 0 1 470.093 58.417 Q 469.91 58.453 469.742 58.453 A 1.257 1.257 0 0 1 468.872 58.124 A 1.539 1.539 0 0 1 468.435 57.427 Q 468.36 57.189 468.338 56.903 A 2.937 2.937 0 0 1 468.335 56.854 Q 468.288 56.057 469.008 54.943 A 7.678 7.678 0 0 1 469.067 54.852 A 32.037 32.037 0 0 0 469.397 54.404 Q 469.919 53.682 470.738 52.489 A 201.496 201.496 0 0 0 470.825 52.362 Q 471.997 50.653 473.169 48.847 A 163.742 163.742 0 0 1 474.258 47.188 Q 474.814 46.354 475.317 45.624 A 53.948 53.948 0 0 0 475.653 45.132 Q 476.312 44.153 476.392 43.915 A 1.415 1.415 0 0 0 476.432 43.612 Q 476.451 42.946 475.928 41.994 A 7.325 7.325 0 0 0 475.854 41.864 A 3.272 3.272 0 0 1 475.415 40.2 Q 475.415 39.599 475.61 38.934 A 6.364 6.364 0 0 1 475.994 37.943 Q 476.471 36.946 477.368 35.761 A 18.012 18.012 0 0 1 480.591 32.489 Q 482.446 31.024 484.399 30.292 A 5.851 5.851 0 0 1 485.322 30.026 Q 486.731 29.748 487.915 30.341 A 9.969 9.969 0 0 1 488.998 31.105 A 7.277 7.277 0 0 1 489.966 32.05 Q 490.591 32.792 490.591 33.565 A 1.978 1.978 0 0 1 490.552 33.954 Q 490.365 34.42 490.001 35.153 A 33.981 33.981 0 0 1 489.966 35.224 Q 489.703 35.748 489.265 36.428 A 24.732 24.732 0 0 1 488.794 37.128 A 25.32 25.32 0 0 1 488.239 37.892 Q 487.555 38.8 486.548 40.009 A 30.687 30.687 0 0 0 486.955 42.412 A 24.151 24.151 0 0 0 487.378 44.11 Q 487.81 45.603 488.211 46.78 A 39.182 39.182 0 0 0 488.403 47.333 A 28.871 28.871 0 0 0 489.134 49.201 A 23.345 23.345 0 0 0 489.673 50.36 A 192.8 192.8 0 0 0 491.286 53.511 A 212.379 212.379 0 0 0 491.528 53.974 A 53.887 53.887 0 0 1 493.088 57.183 A 49.033 49.033 0 0 1 493.286 57.636 A 39.473 39.473 0 0 1 493.994 59.381 A 29.939 29.939 0 0 1 494.556 61.005 A 8.953 8.953 0 0 1 494.768 61.807 Q 494.97 62.753 494.873 63.486 A 3.252 3.252 0 0 1 494.849 63.641 A 7.52 7.52 0 0 1 494.515 64.864 Q 494.076 66.088 493.169 67.597 A 24.566 24.566 0 0 1 493.14 67.645 Q 491.724 69.989 489.624 72.186 Q 487.524 74.384 484.839 75.946 A 11.284 11.284 0 0 1 480.808 77.392 A 10.716 10.716 0 0 1 479.224 77.509 A 6.78 6.78 0 0 1 476.018 76.687 A 8.576 8.576 0 0 1 475.269 76.239 A 13.554 13.554 0 0 1 472.298 73.577 A 12.736 12.736 0 0 1 472.046 73.261 A 15.615 15.615 0 0 1 470.914 71.59 A 11.627 11.627 0 0 1 470.093 69.891 A 6.853 6.853 0 0 1 469.896 69.303 Q 469.643 68.403 469.785 67.779 A 1.612 1.612 0 0 1 469.946 67.352 Q 470.34 66.565 470.69 65.998 A 8.918 8.918 0 0 1 471.021 65.497 Q 471.349 65.038 471.897 64.49 A 15.718 15.718 0 0 1 472.485 63.934 A 15.466 15.466 0 0 1 472.806 63.701 Q 472.951 63.598 473.115 63.485 A 31.572 31.572 0 0 1 473.462 63.251 A 4.211 4.211 0 0 1 473.805 63.068 Q 474.197 62.88 474.75 62.692 A 13.516 13.516 0 0 1 474.829 62.665 L 476.88 61.981 Q 477.762 64.716 478.485 66.375 A 21.006 21.006 0 0 0 478.638 66.718 Q 479.236 68.026 479.662 68.905 A 46.34 46.34 0 0 0 479.907 69.403 A 10.096 10.096 0 0 0 480.194 69.898 Q 480.512 70.409 480.799 70.701 A 2.061 2.061 0 0 0 480.981 70.868 Z M 650.327 65.19 A 34.13 34.13 0 0 0 652.759 58.661 A 26.465 26.465 0 0 0 655.762 57.44 A 35.734 35.734 0 0 0 658.911 55.731 A 81.255 81.255 0 0 0 660.54 54.718 A 70.181 70.181 0 0 0 664.868 51.727 A 108.656 108.656 0 0 0 665.623 51.156 Q 666.733 50.309 667.713 49.513 A 64.445 64.445 0 0 0 669.604 47.919 A 104.52 104.52 0 0 0 669.618 47.907 Q 671.608 46.159 672.095 45.575 A 7.924 7.924 0 0 0 672.538 44.982 Q 672.772 44.634 672.926 44.309 A 3.259 3.259 0 0 0 673.169 43.622 Q 673.364 42.743 673.071 42.255 A 0.789 0.789 0 0 0 672.634 41.896 Q 672.404 41.82 672.095 41.864 Q 671.593 41.936 670.933 42.429 A 7.117 7.117 0 0 0 670.435 42.841 Q 669.693 43.582 668.639 44.441 A 42.2 42.2 0 0 1 667.31 45.477 A 50.931 50.931 0 0 1 666.184 46.298 A 59.142 59.142 0 0 1 663.062 48.358 Q 660.767 49.774 658.325 51.044 A 54.908 54.908 0 0 1 656.522 51.941 A 45.073 45.073 0 0 1 653.638 53.192 A 35.523 35.523 0 0 0 653.699 52.671 Q 653.729 52.393 653.76 52.082 A 72 72 0 0 0 653.833 51.288 Q 653.894 50.586 653.917 50.018 A 15.825 15.825 0 0 0 653.931 49.384 Q 653.931 47.479 653.613 45.856 A 12.546 12.546 0 0 0 652.661 42.89 A 17.806 17.806 0 0 0 651.587 40.933 A 13.763 13.763 0 0 0 649.585 38.446 A 15.856 15.856 0 0 0 647.985 37.076 A 11.944 11.944 0 0 0 645.874 35.809 A 19.58 19.58 0 0 0 645.795 35.773 Q 643.943 34.929 642.7 34.833 A 11.014 11.014 0 0 1 642.419 34.735 A 8.655 8.655 0 0 1 642.163 34.638 A 1.31 1.31 0 0 0 641.971 34.578 A 1.53 1.53 0 0 0 641.626 34.54 A 14.381 14.381 0 0 0 640.741 34.567 A 16.14 16.14 0 0 0 638.013 34.979 Q 636.157 35.419 634.546 36.249 Q 632.935 37.079 631.714 38.349 A 8.041 8.041 0 0 0 629.907 41.278 Q 628.247 43.231 627.026 45.575 A 35.326 35.326 0 0 0 626.728 46.161 A 31.773 31.773 0 0 0 625.024 50.263 A 40.673 40.673 0 0 0 624.743 51.138 A 36.185 36.185 0 0 0 623.804 54.852 A 29.302 29.302 0 0 0 623.797 54.887 Q 623.582 55.991 623.474 57.001 A 18.362 18.362 0 0 0 623.364 58.954 A 62.062 62.062 0 0 0 623.402 61.074 A 76.795 76.795 0 0 0 623.608 64.618 A 19.409 19.409 0 0 0 623.732 65.748 A 16.596 16.596 0 0 0 624.976 70.184 Q 626.099 72.724 628.394 74.432 Q 629.935 75.581 632.249 75.957 A 15.224 15.224 0 0 0 634.692 76.141 A 17.223 17.223 0 0 0 635.538 76.121 A 14.715 14.715 0 0 0 640.991 74.823 A 17.245 17.245 0 0 0 646.167 71.161 A 20.802 20.802 0 0 0 647.605 69.528 A 24.005 24.005 0 0 0 650.122 65.595 A 31.717 31.717 0 0 0 650.327 65.19 Z M 76.392 37.47 Q 76.88 36.884 78.247 36.493 A 25.652 25.652 0 0 1 81.079 35.858 A 25.132 25.132 0 0 1 82.483 35.663 A 18.749 18.749 0 0 1 83.765 35.565 A 25.436 25.436 0 0 1 83.961 35.558 Q 84.959 35.526 85.165 35.607 A 0.2 0.2 0 0 1 85.181 35.614 A 0.049 0.049 0 0 1 85.191 35.639 Q 85.229 35.828 84.831 37.195 A 56.378 56.378 0 0 1 84.692 37.665 Q 84.29 39.008 83.748 40.674 A 220.067 220.067 0 0 1 83.228 42.255 A 362.977 362.977 0 0 1 81.494 47.327 A 396.335 396.335 0 0 1 81.372 47.675 A 123.801 123.801 0 0 0 80.914 49.002 Q 80.364 50.631 80.016 51.834 A 37.349 37.349 0 0 0 79.907 52.216 Q 79.451 53.857 78.825 55.881 A 185.399 185.399 0 0 1 78.735 56.171 A 87.832 87.832 0 0 0 77.582 60.205 A 80.278 80.278 0 0 0 77.515 60.468 A 30.607 30.607 0 0 0 77.019 62.752 A 24.435 24.435 0 0 0 76.782 64.423 A 10.61 10.61 0 0 0 76.74 64.935 Q 76.676 66.082 76.911 66.843 A 2.723 2.723 0 0 0 77.075 67.255 A 6.971 6.971 0 0 0 77.358 67.856 Q 77.728 68.55 78.149 68.866 A 2.203 2.203 0 0 0 78.839 69.221 A 2.006 2.006 0 0 0 79.419 69.306 A 4.744 4.744 0 0 0 80.802 69.077 Q 82.344 68.605 84.351 67.157 A 50.229 50.229 0 0 0 87.922 64.313 A 63.253 63.253 0 0 0 90.405 62.03 A 89.873 89.873 0 0 0 95.953 56.168 A 82.815 82.815 0 0 0 96.118 55.975 A 113.258 113.258 0 0 0 97.351 54.514 Q 98.669 52.923 99.536 51.734 A 28.155 28.155 0 0 0 100.024 51.044 A 5.466 5.466 0 0 1 100.566 50.455 Q 101.09 49.967 101.636 49.774 Q 102.302 49.539 102.78 49.745 A 1.153 1.153 0 0 1 103.003 49.872 Q 103.54 50.263 103.589 51.141 Q 103.626 51.802 103.249 52.627 A 6.383 6.383 0 0 1 102.954 53.192 A 33.529 33.529 0 0 1 101.707 55.193 Q 101.029 56.206 100.193 57.329 A 78.12 78.12 0 0 1 98.364 59.686 A 96.422 96.422 0 0 1 91.919 66.913 Q 88.501 70.38 85.229 72.821 A 23.153 23.153 0 0 1 83.67 73.895 Q 81.445 75.287 79.907 75.36 Q 78.247 75.458 76.636 74.823 A 10.321 10.321 0 0 1 73.706 73.065 A 10.096 10.096 0 0 1 71.509 70.429 A 7.104 7.104 0 0 1 70.547 67.462 A 6.977 6.977 0 0 1 70.532 67.255 Q 70.26 64.985 70.494 61.154 A 75.246 75.246 0 0 1 70.532 60.565 A 82.834 82.834 0 0 1 71.511 52.429 A 90.536 90.536 0 0 1 71.606 51.874 A 72.796 72.796 0 0 1 73.166 44.944 A 65.166 65.166 0 0 1 73.608 43.427 A 30.598 30.598 0 0 1 74.4 41.138 Q 75.242 39 76.222 37.689 A 8.459 8.459 0 0 1 76.392 37.47 Z M 676.685 68.915 A 7.423 7.423 0 0 0 680.542 67.841 Q 682.349 66.766 683.813 65.35 A 19.475 19.475 0 0 0 685.307 63.742 A 15.638 15.638 0 0 0 686.255 62.47 A 64.567 64.567 0 0 0 686.713 61.774 Q 687.354 60.785 687.72 60.126 Q 688.11 59.247 688.647 57.782 A 22.182 22.182 0 0 0 689.27 55.815 A 18.829 18.829 0 0 0 689.478 54.95 A 12.26 12.26 0 0 0 689.658 53.899 Q 689.751 53.151 689.722 52.509 Q 689.7 52.03 689.552 51.746 A 0.721 0.721 0 0 0 688.989 51.337 A 1.112 1.112 0 0 1 688.329 50.96 Q 688.199 50.814 688.092 50.614 A 2.348 2.348 0 0 1 688.062 50.556 A 6.08 6.08 0 0 1 687.723 49.725 A 7.799 7.799 0 0 1 687.524 48.993 Q 687.329 48.114 687.28 47.235 Q 687.238 46.48 687.16 45.869 A 13.284 13.284 0 0 0 687.134 45.673 A 20.396 20.396 0 0 0 686.805 43.897 Q 686.389 42.124 685.716 41.047 A 5.028 5.028 0 0 0 685.474 40.692 A 5.12 5.12 0 0 0 684.752 39.902 Q 684.261 39.474 683.726 39.283 A 2.628 2.628 0 0 0 682.837 39.13 A 6.279 6.279 0 0 0 679.631 40.032 A 8.963 8.963 0 0 0 678.198 41.083 A 16.927 16.927 0 0 0 675.821 43.717 A 22.35 22.35 0 0 0 674.292 46.112 A 28.946 28.946 0 0 0 671.896 51.832 A 32.775 32.775 0 0 0 671.606 52.85 A 29.438 29.438 0 0 0 670.791 57.079 A 24.164 24.164 0 0 0 670.63 59.833 A 23.422 23.422 0 0 0 670.765 62.435 Q 671.028 64.781 671.802 66.425 A 4.043 4.043 0 0 0 674.433 68.621 Q 675.409 68.915 676.685 68.915 Z M 730.688 59.052 Q 731.177 57.099 731.86 54.462 A 95.919 95.919 0 0 0 732.776 50.617 A 83.754 83.754 0 0 0 733.032 49.384 Q 733.496 47.064 733.74 45.493 A 47.197 47.197 0 0 0 733.765 45.331 A 12.147 12.147 0 0 0 733.806 45.037 Q 733.971 43.734 733.621 43.817 A 0.21 0.21 0 0 0 733.618 43.817 A 7.671 7.671 0 0 0 733.105 43.939 Q 732.841 44.011 732.553 44.107 A 12.243 12.243 0 0 0 732.544 44.11 A 3.552 3.552 0 0 1 732.137 44.243 Q 731.927 44.299 731.68 44.342 A 8.021 8.021 0 0 1 731.274 44.403 Q 730.493 44.501 729.712 44.696 A 15.075 15.075 0 0 0 730.138 43.772 Q 730.539 42.813 730.64 42.108 A 10.215 10.215 0 0 0 730.693 41.669 Q 730.764 40.951 730.688 40.497 Q 730.591 39.813 730.298 39.423 A 1.088 1.088 0 0 0 729.619 39.18 Q 728.515 39.15 726.538 40.839 A 14.973 14.973 0 0 0 724.962 42.435 Q 723.376 44.271 721.545 47.246 A 72.937 72.937 0 0 0 720.337 49.286 Q 718.872 51.825 717.993 54.706 A 38.243 38.243 0 0 0 717.174 57.839 A 29.982 29.982 0 0 0 716.772 60.126 A 25.688 25.688 0 0 0 716.609 61.677 Q 716.51 63.032 716.592 64.173 A 12.813 12.813 0 0 0 716.626 64.569 A 10.992 10.992 0 0 0 716.739 65.389 Q 716.878 66.165 717.11 66.629 A 1.64 1.64 0 0 0 717.407 67.059 A 3.758 3.758 0 0 0 718.304 67.734 Q 718.971 68.087 719.73 68.087 A 3.315 3.315 0 0 0 719.849 68.085 A 6.046 6.046 0 0 0 721.664 67.726 A 7.782 7.782 0 0 0 722.632 67.304 A 14.761 14.761 0 0 0 724.402 66.216 A 18.332 18.332 0 0 0 725.464 65.399 A 23.278 23.278 0 0 0 727.535 63.47 A 20.675 20.675 0 0 0 728.003 62.958 Q 729.126 61.688 729.858 60.614 A 13.713 13.713 0 0 0 730.167 60.143 Q 730.581 59.477 730.676 59.108 A 1.097 1.097 0 0 0 730.688 59.052 Z M 672.192 114.227 A 2.589 2.589 0 0 0 674.012 113.461 Q 674.417 113.079 674.774 112.506 A 8.376 8.376 0 0 0 675.366 111.347 Q 676.587 108.466 677.954 103.485 A 335.33 335.33 0 0 0 678.116 102.835 Q 678.381 101.764 678.784 100.116 A 315.883 315.883 0 0 1 679.292 98.072 Q 679.642 96.68 680.054 95.087 A 304.369 304.369 0 0 0 680.798 92.145 A 375.187 375.187 0 0 0 681.567 88.983 Q 682.349 85.712 683.228 82.391 Q 682.446 83.075 681.616 83.807 Q 680.786 84.54 679.907 85.516 Q 677.759 87.567 675.757 89.472 A 31.455 31.455 0 0 0 672.241 93.41 A 29.178 29.178 0 0 0 672.192 93.475 A 18.693 18.693 0 0 0 669.702 98.016 A 13.717 13.717 0 0 0 668.978 100.831 Q 668.774 102.17 668.774 103.681 Q 668.774 106.903 669.019 108.954 Q 669.263 111.005 669.702 112.177 Q 670.142 113.349 670.776 113.788 A 2.431 2.431 0 0 0 672.192 114.227 Z M 0.513 26.63 L 5.591 5.634 A 8.516 8.516 0 0 1 5.969 4.462 Q 6.213 3.868 6.53 3.413 A 3.841 3.841 0 0 1 7.104 2.753 A 4.347 4.347 0 0 1 7.816 2.243 Q 8.899 1.605 10.864 1.044 Q 12.867 0.608 13.822 0.678 A 2.597 2.597 0 0 1 14.038 0.702 A 2.708 2.708 0 0 1 14.323 0.762 Q 14.949 0.931 14.868 1.337 A 16.182 16.182 0 0 0 14.719 1.756 Q 14.486 2.434 14.096 3.688 A 201.242 201.242 0 0 0 13.843 4.511 A 165.17 165.17 0 0 0 13.458 5.786 Q 12.894 7.684 12.186 10.204 A 468.574 468.574 0 0 0 12.085 10.565 A 833.285 833.285 0 0 0 11.141 13.966 Q 10.663 15.7 10.142 17.617 A 1390.044 1390.044 0 0 0 9.79 18.915 A 875.807 875.807 0 0 0 8.496 23.749 A 1040.447 1040.447 0 0 0 7.153 28.876 A 1.793 1.793 0 0 1 7.003 29.068 Q 6.833 29.26 6.561 29.485 A 6.845 6.845 0 0 1 6.47 29.559 A 3.84 3.84 0 0 1 6.065 29.768 Q 5.847 29.866 5.585 29.958 A 8.955 8.955 0 0 1 5.151 30.097 A 5.041 5.041 0 0 1 4.517 30.236 Q 3.851 30.341 2.954 30.341 A 11.68 11.68 0 0 1 2.602 30.361 Q 1.508 30.406 1.001 30.194 A 2.257 2.257 0 0 1 0.674 30.028 Q 0.509 29.925 0.393 29.804 A 1.007 1.007 0 0 1 0.22 29.559 Q -0.063 29.183 0.018 28.715 A 1.339 1.339 0 0 1 0.024 28.681 Q 0.108 28.429 0.192 28.105 A 13.021 13.021 0 0 0 0.22 27.997 A 2.944 2.944 0 0 0 0.301 27.701 Q 0.34 27.521 0.366 27.313 Q 0.411 26.957 0.496 26.682 A 2.553 2.553 0 0 1 0.513 26.63 Z M 797.876 26.63 L 802.954 5.634 A 8.516 8.516 0 0 1 803.332 4.462 Q 803.577 3.868 803.893 3.413 A 3.841 3.841 0 0 1 804.468 2.753 A 4.347 4.347 0 0 1 805.18 2.243 Q 806.262 1.605 808.228 1.044 Q 810.231 0.608 811.185 0.678 A 2.597 2.597 0 0 1 811.401 0.702 A 2.708 2.708 0 0 1 811.687 0.762 Q 812.313 0.931 812.231 1.337 A 16.182 16.182 0 0 0 812.082 1.756 Q 811.85 2.434 811.46 3.688 A 201.242 201.242 0 0 0 811.206 4.511 A 165.17 165.17 0 0 0 810.822 5.786 Q 810.257 7.684 809.55 10.204 A 468.574 468.574 0 0 0 809.448 10.565 A 833.285 833.285 0 0 0 808.504 13.966 Q 808.027 15.7 807.506 17.617 A 1390.044 1390.044 0 0 0 807.153 18.915 A 875.807 875.807 0 0 0 805.859 23.749 A 1040.447 1040.447 0 0 0 804.517 28.876 A 1.793 1.793 0 0 1 804.366 29.068 Q 804.196 29.26 803.925 29.485 A 6.845 6.845 0 0 1 803.833 29.559 A 3.84 3.84 0 0 1 803.428 29.768 Q 803.21 29.866 802.948 29.958 A 8.955 8.955 0 0 1 802.515 30.097 A 5.041 5.041 0 0 1 801.881 30.236 Q 801.215 30.341 800.317 30.341 A 11.68 11.68 0 0 1 799.965 30.361 Q 798.872 30.406 798.364 30.194 A 2.257 2.257 0 0 1 798.037 30.028 Q 797.872 29.925 797.757 29.804 A 1.007 1.007 0 0 1 797.583 29.559 Q 797.3 29.183 797.381 28.715 A 1.339 1.339 0 0 1 797.388 28.681 Q 797.472 28.429 797.556 28.105 A 13.021 13.021 0 0 0 797.583 27.997 A 2.944 2.944 0 0 0 797.664 27.701 Q 797.704 27.521 797.729 27.313 Q 797.774 26.957 797.859 26.682 A 2.553 2.553 0 0 1 797.876 26.63 Z M 14.185 26.63 L 19.36 5.634 Q 19.849 3.681 20.776 2.753 A 3.53 3.53 0 0 1 21.437 2.249 Q 22.153 1.814 23.327 1.413 A 21.383 21.383 0 0 1 24.536 1.044 Q 26.539 0.608 27.494 0.678 A 2.597 2.597 0 0 1 27.71 0.702 A 2.622 2.622 0 0 1 27.97 0.756 Q 28.607 0.924 28.442 1.337 A 18.372 18.372 0 0 1 28.331 1.756 Q 28.144 2.434 27.765 3.688 A 246.118 246.118 0 0 1 27.515 4.511 A 165.17 165.17 0 0 0 27.13 5.786 Q 26.526 7.819 25.757 10.565 Q 24.731 14.227 23.413 18.915 Q 22.095 23.602 20.825 28.876 A 1.793 1.793 0 0 1 20.675 29.068 Q 20.505 29.26 20.233 29.485 A 6.845 6.845 0 0 1 20.142 29.559 A 3.84 3.84 0 0 1 19.737 29.768 Q 19.518 29.866 19.257 29.958 A 8.955 8.955 0 0 1 18.823 30.097 A 5.041 5.041 0 0 1 18.189 30.236 Q 17.523 30.341 16.626 30.341 A 11.68 11.68 0 0 1 16.274 30.361 Q 15.18 30.406 14.673 30.194 A 2.257 2.257 0 0 1 14.346 30.028 Q 14.181 29.925 14.065 29.804 A 1.007 1.007 0 0 1 13.892 29.559 Q 13.609 29.183 13.69 28.715 A 1.339 1.339 0 0 1 13.696 28.681 Q 13.78 28.429 13.864 28.105 A 13.021 13.021 0 0 0 13.892 27.997 A 2.944 2.944 0 0 0 13.972 27.701 Q 14.012 27.521 14.038 27.313 Q 14.083 26.957 14.168 26.682 A 2.553 2.553 0 0 1 14.185 26.63 Z M 811.548 26.63 L 816.724 5.634 Q 817.212 3.681 818.14 2.753 A 3.53 3.53 0 0 1 818.801 2.249 Q 819.516 1.814 820.69 1.413 A 21.383 21.383 0 0 1 821.899 1.044 Q 823.903 0.608 824.857 0.678 A 2.597 2.597 0 0 1 825.073 0.702 A 2.622 2.622 0 0 1 825.334 0.756 Q 825.971 0.924 825.806 1.337 A 18.372 18.372 0 0 1 825.695 1.756 Q 825.507 2.434 825.128 3.688 A 246.118 246.118 0 0 1 824.878 4.511 A 165.17 165.17 0 0 0 824.493 5.786 Q 823.889 7.819 823.12 10.565 Q 822.095 14.227 820.776 18.915 Q 819.458 23.602 818.188 28.876 A 1.793 1.793 0 0 1 818.038 29.068 Q 817.868 29.26 817.597 29.485 A 6.845 6.845 0 0 1 817.505 29.559 A 3.84 3.84 0 0 1 817.1 29.768 Q 816.882 29.866 816.62 29.958 A 8.955 8.955 0 0 1 816.187 30.097 A 5.041 5.041 0 0 1 815.552 30.236 Q 814.886 30.341 813.989 30.341 A 11.68 11.68 0 0 1 813.637 30.361 Q 812.544 30.406 812.036 30.194 A 2.257 2.257 0 0 1 811.709 30.028 Q 811.544 29.925 811.429 29.804 A 1.007 1.007 0 0 1 811.255 29.559 Q 810.972 29.183 811.053 28.715 A 1.339 1.339 0 0 1 811.06 28.681 Q 811.143 28.429 811.227 28.105 A 13.021 13.021 0 0 0 811.255 27.997 A 2.944 2.944 0 0 0 811.336 27.701 Q 811.375 27.521 811.401 27.313 Q 811.446 26.957 811.531 26.682 A 2.553 2.553 0 0 1 811.548 26.63 Z M 215.649 55.341 A 69.407 69.407 0 0 0 215.213 56.896 Q 214.926 57.962 214.624 59.198 Q 214.087 61.395 213.403 64.423 A 5.57 5.57 0 0 1 215.161 63.544 Q 216.138 63.251 217.114 63.251 A 2.753 2.753 0 0 1 217.872 63.369 Q 218.572 63.571 219.452 64.116 A 12.039 12.039 0 0 1 219.849 64.374 A 36.638 36.638 0 0 0 221.19 65.237 Q 222.013 65.743 222.963 66.276 A 67.012 67.012 0 0 0 223.853 66.766 A 71.227 71.227 0 0 0 225.354 64.899 A 92.534 92.534 0 0 0 226.929 62.811 Q 228.54 60.614 229.858 58.27 A 35.409 35.409 0 0 0 232.104 53.485 A 16.725 16.725 0 0 0 232.871 50.873 A 13.344 13.344 0 0 0 233.13 48.798 A 15.959 15.959 0 0 0 233.163 48.054 Q 233.198 46.254 232.779 44.993 A 5.148 5.148 0 0 0 232.446 44.208 Q 231.567 42.548 229.517 42.548 A 6.178 6.178 0 0 0 227.07 43.092 Q 225.222 43.886 223.2 45.842 A 22.959 22.959 0 0 0 222.925 46.112 Q 219.881 49.156 216.73 53.731 A 84.013 84.013 0 0 0 215.649 55.341 Z M 630.005 61.005 A 30.509 30.509 0 0 0 630.2 64.472 A 11.766 11.766 0 0 0 630.505 66.13 A 9.012 9.012 0 0 0 630.981 67.499 A 6.45 6.45 0 0 0 631.764 68.828 A 5.411 5.411 0 0 0 632.544 69.647 A 3.399 3.399 0 0 0 634.067 70.377 A 4.885 4.885 0 0 0 635.083 70.477 A 6.423 6.423 0 0 0 638.306 69.647 A 10.332 10.332 0 0 0 640.942 67.499 A 15.494 15.494 0 0 0 642.563 65.302 A 18.071 18.071 0 0 0 643.042 64.472 A 27.088 27.088 0 0 0 644.653 60.907 Q 643.97 61.005 643.335 61.054 A 15.928 15.928 0 0 1 642.664 61.09 A 21.644 21.644 0 0 1 641.919 61.102 A 10.483 10.483 0 0 1 638.265 60.482 A 9.496 9.496 0 0 1 635.522 58.905 A 14.317 14.317 0 0 1 631.657 53.92 A 16.852 16.852 0 0 1 631.372 53.29 A 51.636 51.636 0 0 0 630.496 56.804 A 46.615 46.615 0 0 0 630.396 57.294 A 20.338 20.338 0 0 0 630.06 59.659 A 16.877 16.877 0 0 0 630.005 61.005 Z M 115.063 38.837 Q 113.892 38.837 112.28 40.009 A 11.218 11.218 0 0 0 110.88 41.23 Q 110.237 41.885 109.602 42.708 A 21.35 21.35 0 0 0 109.106 43.378 A 23.96 23.96 0 0 0 107.685 45.652 Q 107.025 46.842 106.405 48.229 A 40.985 40.985 0 0 0 106.177 48.749 A 27.789 27.789 0 0 0 104.87 52.555 A 36.781 36.781 0 0 0 104.126 56.024 A 61.721 61.721 0 0 1 105.667 54.907 A 73.861 73.861 0 0 1 106.665 54.218 A 48.591 48.591 0 0 0 109.399 52.216 A 48.702 48.702 0 0 0 111.669 50.371 Q 114.091 48.268 115.259 46.552 A 17.005 17.005 0 0 0 116.115 45.162 Q 116.913 43.706 117.09 42.539 A 4.708 4.708 0 0 0 117.114 42.352 A 9.293 9.293 0 0 0 117.151 41.905 Q 117.211 40.839 116.974 40.163 A 2.011 2.011 0 0 0 116.724 39.667 A 1.868 1.868 0 0 0 115.372 38.855 A 2.523 2.523 0 0 0 115.063 38.837 Z M 309.79 38.837 Q 308.618 38.837 307.007 40.009 A 11.218 11.218 0 0 0 305.606 41.23 Q 304.963 41.885 304.329 42.708 A 21.35 21.35 0 0 0 303.833 43.378 A 23.96 23.96 0 0 0 302.411 45.652 Q 301.752 46.842 301.132 48.229 A 40.985 40.985 0 0 0 300.903 48.749 A 27.789 27.789 0 0 0 299.597 52.555 A 36.781 36.781 0 0 0 298.853 56.024 A 61.721 61.721 0 0 1 300.394 54.907 A 73.861 73.861 0 0 1 301.392 54.218 A 48.591 48.591 0 0 0 304.126 52.216 A 48.702 48.702 0 0 0 306.395 50.371 Q 308.818 48.268 309.985 46.552 A 17.005 17.005 0 0 0 310.842 45.162 Q 311.639 43.706 311.816 42.539 A 4.708 4.708 0 0 0 311.841 42.352 A 9.293 9.293 0 0 0 311.877 41.905 Q 311.938 40.839 311.7 40.163 A 2.011 2.011 0 0 0 311.45 39.667 A 1.868 1.868 0 0 0 310.098 38.855 A 2.523 2.523 0 0 0 309.79 38.837 Z M 375.024 38.837 Q 373.853 38.837 372.241 40.009 A 11.218 11.218 0 0 0 370.841 41.23 Q 370.198 41.885 369.563 42.708 A 21.35 21.35 0 0 0 369.067 43.378 A 23.96 23.96 0 0 0 367.645 45.652 Q 366.986 46.842 366.366 48.229 A 40.985 40.985 0 0 0 366.138 48.749 A 27.789 27.789 0 0 0 364.831 52.555 A 36.781 36.781 0 0 0 364.087 56.024 A 61.721 61.721 0 0 1 365.628 54.907 A 73.861 73.861 0 0 1 366.626 54.218 A 48.591 48.591 0 0 0 369.36 52.216 A 48.702 48.702 0 0 0 371.63 50.371 Q 374.052 48.268 375.22 46.552 A 17.005 17.005 0 0 0 376.076 45.162 Q 376.874 43.706 377.051 42.539 A 4.708 4.708 0 0 0 377.075 42.352 A 9.293 9.293 0 0 0 377.112 41.905 Q 377.172 40.839 376.935 40.163 A 2.011 2.011 0 0 0 376.685 39.667 A 1.868 1.868 0 0 0 375.333 38.855 A 2.523 2.523 0 0 0 375.024 38.837 Z M 636.255 43.817 A 5.827 5.827 0 0 0 635.962 45.665 A 6.611 6.611 0 0 0 635.962 45.673 A 27.82 27.82 0 0 0 636.072 48.099 A 32.157 32.157 0 0 0 636.157 48.944 A 8.318 8.318 0 0 0 636.684 51.086 A 7.389 7.389 0 0 0 637.134 52.02 A 5.37 5.37 0 0 0 638.368 53.472 A 7.583 7.583 0 0 0 639.624 54.315 A 6.574 6.574 0 0 0 641.091 54.881 Q 641.823 55.073 642.7 55.163 A 16.261 16.261 0 0 0 644.36 55.243 A 9.808 9.808 0 0 0 645.337 55.194 A 10.103 10.103 0 0 0 646.313 55.048 A 400.206 400.206 0 0 1 646.594 53.839 A 291.5 291.5 0 0 1 646.851 52.753 A 10.324 10.324 0 0 0 647.009 51.96 Q 647.068 51.582 647.086 51.244 A 5.454 5.454 0 0 0 647.095 50.946 Q 647.29 49.091 647.095 47.138 A 18.097 18.097 0 0 0 646.767 45.048 A 14.562 14.562 0 0 0 646.362 43.573 A 10.488 10.488 0 0 0 645.857 42.318 Q 645.547 41.677 645.172 41.166 A 6.04 6.04 0 0 0 644.995 40.936 A 3.058 3.058 0 0 0 644.332 40.317 A 2.343 2.343 0 0 0 642.993 39.911 A 6.743 6.743 0 0 0 639.75 40.753 A 8.095 8.095 0 0 0 639.429 40.936 A 10.699 10.699 0 0 0 637.485 42.447 A 13.97 13.97 0 0 0 636.255 43.817 Z M 89.312 17.96 A 5.214 5.214 0 0 0 89.868 16.669 A 5.72 5.72 0 0 0 90.057 15.778 Q 90.14 15.148 90.112 14.423 Q 90.063 13.153 89.673 12.128 A 4.829 4.829 0 0 0 89.441 11.611 A 3.854 3.854 0 0 0 88.55 10.468 A 1.951 1.951 0 0 0 87.23 9.982 Q 86.996 9.982 86.743 10.028 A 2.965 2.965 0 0 0 86.609 10.056 Q 85.904 10.218 85.039 10.762 A 11.003 11.003 0 0 0 84.204 11.347 Q 82.739 12.47 81.763 14.081 A 6.986 6.986 0 0 0 81.749 14.104 Q 80.875 15.558 80.875 17.172 A 6.055 6.055 0 0 0 80.884 17.499 A 3.425 3.425 0 0 0 81.218 18.791 Q 81.733 19.878 83.032 20.868 A 1.772 1.772 0 0 0 83.6 21.198 Q 83.989 21.335 84.464 21.301 A 3.056 3.056 0 0 0 84.79 21.259 Q 85.864 21.063 86.89 20.429 A 6.828 6.828 0 0 0 87.511 19.994 A 7.732 7.732 0 0 0 88.745 18.768 A 6.832 6.832 0 0 0 89.312 17.96 Z" vector-effect="non-scaling-stroke"/></g></svg>