<svg width="784.77" height="123.115" viewBox="0 0 784.77 123.115" xmlns="http://www.w3.org/2000/svg"><g id="svgGroup" stroke-linecap="round" fill-rule="evenodd" font-size="9pt" stroke="#6c757d" stroke-width="0.25mm" fill="#6c757d" style="stroke:#6c757d;stroke-width:0.25mm;fill:#6c757d"><path d="M 125.716 69.403 L 125.716 69.208 L 125.326 70.77 A 9.307 9.307 0 0 0 125.095 71.804 A 10.87 10.87 0 0 0 125.033 72.235 Q 124.935 73.016 124.74 73.7 L 119.857 75.849 Q 119.368 76.044 118.636 76.141 Q 117.904 76.239 117.269 75.897 Q 116.634 75.556 116.341 74.481 Q 116.108 73.627 116.369 72.095 A 15.558 15.558 0 0 1 116.536 71.259 L 122.689 45.77 A 41.872 41.872 0 0 0 123.073 43.921 A 36.431 36.431 0 0 0 123.177 43.329 A 16.171 16.171 0 0 0 123.407 41.486 A 14.788 14.788 0 0 0 123.421 41.229 A 8.565 8.565 0 0 0 123.43 40.929 Q 123.441 40.101 123.275 39.52 Q 124.546 38.922 125.588 38.553 A 15.499 15.499 0 0 1 126.204 38.349 A 70.338 70.338 0 0 1 126.809 38.165 Q 127.669 37.909 128.255 37.763 Q 129.232 37.47 129.915 37.47 A 2.487 2.487 0 0 1 131.04 37.705 Q 132.816 38.594 131.966 42.841 Q 131.667 44.037 131.139 46.092 A 1343.391 1343.391 0 0 1 130.794 47.431 A 51.374 51.374 0 0 1 134.749 42.987 A 46.064 46.064 0 0 1 137.926 40.085 A 40.321 40.321 0 0 1 138.997 39.227 A 22.773 22.773 0 0 1 141.702 37.419 A 19.016 19.016 0 0 1 143.343 36.591 A 11.456 11.456 0 0 1 145.934 35.776 A 9.726 9.726 0 0 1 147.689 35.614 A 4.657 4.657 0 0 1 149.08 35.814 A 3.839 3.839 0 0 1 150.472 36.591 A 6.022 6.022 0 0 1 151.736 38.146 A 7.771 7.771 0 0 1 152.23 39.179 A 9.878 9.878 0 0 1 152.73 40.933 Q 152.89 41.767 152.948 42.714 A 16.789 16.789 0 0 1 152.962 42.987 A 24.948 24.948 0 0 1 152.987 44.095 Q 152.987 45.718 152.78 47.418 A 30.148 30.148 0 0 1 152.767 47.528 A 61.076 61.076 0 0 1 155.303 44.425 A 70.394 70.394 0 0 1 156.234 43.378 A 33.445 33.445 0 0 1 159.976 39.827 A 30.893 30.893 0 0 1 160.238 39.618 Q 162.337 37.958 164.583 36.884 A 11.07 11.07 0 0 1 167.251 35.987 A 9.548 9.548 0 0 1 169.076 35.809 Q 171.463 35.809 172.849 37.09 A 4.464 4.464 0 0 1 173.128 37.372 Q 174.544 38.934 175.081 41.376 Q 175.451 43.054 175.451 44.917 A 20.164 20.164 0 0 1 175.374 46.649 A 41.697 41.697 0 0 1 174.544 52.118 L 171.224 65.302 A 14.26 14.26 0 0 0 171.079 66.051 Q 170.46 69.82 172.795 70.152 A 3.405 3.405 0 0 0 173.275 70.184 Q 175.716 70.184 178.646 67.841 A 40.765 40.765 0 0 0 182.428 64.386 A 49.412 49.412 0 0 0 184.359 62.274 Q 187.142 59.052 189.583 55.634 A 192.289 192.289 0 0 1 190.755 54.01 Q 192.44 51.703 193.685 50.165 Q 194.271 49.481 194.906 49.384 A 1.848 1.848 0 0 1 195.112 49.363 Q 195.614 49.343 195.98 49.628 Q 196.351 49.916 196.443 50.517 A 2.595 2.595 0 0 1 196.468 50.751 Q 196.516 51.517 195.953 52.659 A 8.623 8.623 0 0 1 195.931 52.704 A 93.349 93.349 0 0 1 193.907 56.069 Q 192.65 58.067 191.146 60.272 Q 188.314 64.423 184.945 68.036 A 38.87 38.87 0 0 1 179.759 72.711 A 34.303 34.303 0 0 1 177.767 74.091 A 15.674 15.674 0 0 1 173.514 76.031 A 13.558 13.558 0 0 1 169.857 76.532 Q 168.49 76.532 167.171 76.239 A 6.834 6.834 0 0 1 164.73 75.165 A 5.589 5.589 0 0 1 163.113 73.406 A 6.678 6.678 0 0 1 162.923 73.065 Q 162.363 71.984 162.262 70.411 A 11.171 11.171 0 0 1 162.24 69.696 A 23.014 23.014 0 0 1 162.324 67.79 Q 162.405 66.816 162.564 65.739 A 40.252 40.252 0 0 1 162.679 65.009 A 72.228 72.228 0 0 1 163.635 60.282 A 80.199 80.199 0 0 1 163.802 59.589 A 435.964 435.964 0 0 1 165.169 54.169 A 303.116 303.116 0 0 0 165.73 51.974 Q 165.982 50.97 166.2 50.07 A 174 174 0 0 0 166.341 49.481 Q 166.904 47.041 166.295 45.683 A 2.87 2.87 0 0 0 166.243 45.575 Q 165.666 44.419 164.39 44.241 A 3.533 3.533 0 0 0 163.9 44.208 A 1.674 1.674 0 0 0 163.468 44.278 Q 162.794 44.464 161.575 45.141 A 29.147 29.147 0 0 0 160.824 45.575 A 12.221 12.221 0 0 0 159.2 46.752 Q 157.605 48.1 155.843 50.311 A 30.337 30.337 0 0 0 153.843 53.168 Q 152.187 55.823 150.57 59.393 Q 148.601 63.739 147.282 69.866 A 87.588 87.588 0 0 0 146.517 73.895 Q 144.661 74.872 143.001 75.165 Q 142.246 75.333 141.635 75.428 A 14.703 14.703 0 0 1 141.439 75.458 A 9.278 9.278 0 0 1 141.159 75.468 Q 139.443 75.502 138.9 74.823 A 0.99 0.99 0 0 1 138.733 74.49 Q 138.455 73.579 139.095 71.259 A 40.283 40.283 0 0 1 139.33 70.471 Q 139.742 69.135 140.511 66.864 A 104.739 104.739 0 0 0 141.524 63.703 A 130.213 130.213 0 0 0 142.513 60.272 A 113.21 113.21 0 0 0 144.222 53.143 Q 144.783 50.414 144.914 48.229 A 21.458 21.458 0 0 0 144.954 46.942 Q 144.954 45.472 144.556 44.738 A 1.632 1.632 0 0 0 144.32 44.403 A 2.058 2.058 0 0 0 143.286 43.808 Q 142.934 43.72 142.513 43.72 A 2.557 2.557 0 0 0 142 43.781 Q 141.121 43.964 139.583 44.696 Q 137.62 45.631 135.209 48.267 A 32.128 32.128 0 0 0 134.993 48.505 A 24.343 24.343 0 0 0 133.096 50.938 Q 131.521 53.223 129.964 56.366 A 40.128 40.128 0 0 0 128.2 60.557 Q 126.815 64.398 125.716 69.403 Z M 40.462 29.364 Q 40.365 29.071 41.048 27.85 A 30.934 30.934 0 0 0 41.581 26.853 Q 42.043 25.952 42.562 24.823 A 45.655 45.655 0 0 0 43.392 22.894 A 62.066 62.066 0 0 0 44.222 20.722 Q 45.052 18.427 45.394 15.985 Q 45.736 13.544 45.345 11.102 A 10.158 10.158 0 0 0 44.087 7.622 A 12.652 12.652 0 0 0 43.294 6.415 A 3.483 3.483 0 0 0 41.662 5.334 Q 41.115 5.155 40.456 5.1 A 6.629 6.629 0 0 0 40.413 5.097 A 8.452 8.452 0 0 0 39.765 5.072 Q 38.11 5.072 36.117 5.682 A 20.977 20.977 0 0 0 33.383 6.745 A 27.583 27.583 0 0 0 31.136 7.929 A 26.681 26.681 0 0 0 26.4 11.444 A 21.643 21.643 0 0 0 22.738 15.888 A 12.051 12.051 0 0 0 21.476 18.587 A 10.058 10.058 0 0 0 21.029 20.868 Q 20.861 22.633 21.09 24.182 A 11.247 11.247 0 0 0 21.175 24.677 Q 21.517 26.434 22.103 27.899 A 27.525 27.525 0 0 0 23.037 29.987 A 24.062 24.062 0 0 0 23.372 30.634 A 67.454 67.454 0 0 0 23.992 31.759 Q 24.331 32.361 24.642 32.88 A 10.239 10.239 0 0 0 25.351 33.946 Q 26.046 34.87 27.083 35.907 A 124.971 124.971 0 0 1 28.817 37.677 A 168.594 168.594 0 0 1 30.697 39.667 A 51.093 51.093 0 0 1 33.138 42.501 A 62.523 62.523 0 0 1 34.603 44.403 A 29.778 29.778 0 0 1 37.245 48.718 A 34.873 34.873 0 0 1 38.021 50.36 A 26.324 26.324 0 0 1 39.565 55.055 A 32.354 32.354 0 0 1 40.072 57.782 A 27.429 27.429 0 0 1 40.333 60.982 Q 40.401 63.751 39.974 66.864 A 56.02 56.02 0 0 1 38.99 71.948 Q 38.354 74.544 37.504 76.737 A 29.1 29.1 0 0 1 36.556 78.925 Q 34.582 82.996 32.296 85.717 A 21.358 21.358 0 0 1 31.429 86.688 Q 28.948 89.3 26.427 90.632 A 13.63 13.63 0 0 1 25.814 90.936 Q 23.111 92.195 21.298 92.608 A 10.605 10.605 0 0 1 21.126 92.645 A 35.165 35.165 0 0 1 19.952 92.858 Q 19.301 92.966 18.568 93.065 A 65.279 65.279 0 0 1 17.66 93.182 A 14.051 14.051 0 0 1 15.957 93.284 Q 14.742 93.284 13.46 93.085 A 16.294 16.294 0 0 1 10.172 92.201 A 19.277 19.277 0 0 1 9.017 91.718 A 10.661 10.661 0 0 1 5.926 89.552 A 13.161 13.161 0 0 1 5.013 88.544 A 20.143 20.143 0 0 1 1.79 83.27 A 20.934 20.934 0 0 1 0.776 80.381 A 27.834 27.834 0 0 1 0.179 77.655 A 12.821 12.821 0 0 1 0 75.512 Q 0 73.342 0.716 71.063 A 12.479 12.479 0 0 1 2.321 69.544 A 11.59 11.59 0 0 1 2.376 69.501 A 14.42 14.42 0 0 1 3.585 68.653 A 12.387 12.387 0 0 1 4.134 68.329 A 20.344 20.344 0 0 1 6.185 67.255 Q 7.454 66.864 8.724 66.571 A 15.682 15.682 0 0 1 10.27 66.372 A 18.582 18.582 0 0 1 11.019 66.327 Q 12.237 66.278 13.31 66.667 A 6.228 6.228 0 0 1 13.314 66.669 Q 11.849 68.329 11.263 69.794 A 14.681 14.681 0 0 0 10.998 70.352 Q 10.874 70.629 10.779 70.876 A 7.089 7.089 0 0 0 10.677 71.161 Q 10.313 72.89 10.415 75.255 A 26.348 26.348 0 0 0 10.433 75.604 A 16.227 16.227 0 0 0 11.507 80.585 A 11.375 11.375 0 0 0 14.193 84.686 A 6.208 6.208 0 0 0 17.204 86.284 A 8.829 8.829 0 0 0 18.88 86.493 Q 26.009 86.688 30.99 75.36 A 17.646 17.646 0 0 0 32.544 70.256 A 16.165 16.165 0 0 0 32.699 68.231 A 26.689 26.689 0 0 0 32.701 67.871 A 24.312 24.312 0 0 0 31.82 61.298 A 31.692 31.692 0 0 0 29.565 55.458 A 29.392 29.392 0 0 0 29.378 55.097 A 42.179 42.179 0 0 0 27.948 52.578 Q 27.132 51.254 26.302 50.165 A 53.144 53.144 0 0 0 24.698 48.167 Q 23.833 47.139 22.831 46.038 A 87.446 87.446 0 0 0 22.542 45.722 A 70.077 70.077 0 0 1 19.274 41.886 A 80.235 80.235 0 0 1 18.197 40.497 A 41.81 41.81 0 0 1 14.339 34.345 A 23.119 23.119 0 0 1 12.082 27.362 A 25.938 25.938 0 0 1 12.044 27.118 A 23.008 23.008 0 0 1 11.812 24.294 Q 11.74 20.45 13.07 17.108 Q 14.876 12.567 17.952 9.149 Q 21.029 5.731 24.691 3.583 Q 28.353 1.434 31.185 0.849 A 48.642 48.642 0 0 1 34.641 0.284 Q 44.428 -0.937 49.265 3.106 A 11.28 11.28 0 0 1 51.79 6.122 A 14.205 14.205 0 0 1 53.862 11.396 A 13.689 13.689 0 0 1 54.036 12.958 A 30.954 30.954 0 0 1 54.082 14.629 Q 54.082 17.295 53.597 19.647 A 34.572 34.572 0 0 1 53.08 21.817 Q 52.774 22.929 52.42 23.876 A 17.718 17.718 0 0 1 52.035 24.823 A 47.092 47.092 0 0 1 51.812 25.318 Q 51.07 26.947 50.814 27.118 A 4.489 4.489 0 0 1 50.381 27.494 Q 49.908 27.858 49.197 28.256 A 16.349 16.349 0 0 1 48.958 28.388 Q 47.689 29.071 44.857 29.657 A 6.421 6.421 0 0 1 43.294 29.852 A 10.921 10.921 0 0 1 42.413 29.815 A 13.498 13.498 0 0 1 41.829 29.755 A 4.862 4.862 0 0 1 41.1 29.609 A 3.673 3.673 0 0 1 40.462 29.364 Z M 611.782 52.296 A 3.309 3.309 0 0 0 611.361 52.704 Q 610.775 53.29 609.969 54.205 A 65.88 65.88 0 0 0 609.408 54.852 A 134.987 134.987 0 0 1 608.187 56.256 A 162.708 162.708 0 0 1 606.868 57.733 Q 605.501 59.247 604.036 60.712 A 56.494 56.494 0 0 1 603.366 61.372 Q 602.297 62.406 601.4 63.153 Q 596.224 67.352 593.636 68.182 Q 591.048 69.013 590.169 67.45 A 2.924 2.924 0 0 1 589.771 65.95 Q 589.771 65.367 589.974 64.716 Q 590.462 63.153 591.341 60.907 A 673.498 673.498 0 0 0 592.101 58.969 Q 592.465 58.038 592.795 57.184 A 387.869 387.869 0 0 0 593.538 55.243 Q 594.466 52.802 595.052 50.8 A 54.365 54.365 0 0 0 595.577 48.883 A 39.836 39.836 0 0 0 595.98 47.138 A 17.752 17.752 0 0 0 596.096 46.518 A 15.599 15.599 0 0 0 596.322 43.915 A 23.072 23.072 0 0 0 596.325 43.809 Q 596.409 41.34 595.931 39.667 A 9.923 9.923 0 0 0 595.836 39.352 Q 595.356 37.862 594.515 36.932 A 6.167 6.167 0 0 0 594.398 36.807 A 5.247 5.247 0 0 0 592.367 35.468 A 7.268 7.268 0 0 0 592.328 35.454 A 7.59 7.59 0 0 0 589.779 35.028 A 11.38 11.38 0 0 0 584.798 36.151 A 22.275 22.275 0 0 0 580.355 38.983 A 30.076 30.076 0 0 0 576.497 42.743 Q 574.74 44.794 573.47 46.747 Q 575.618 38.251 578.158 30.78 A 217.087 217.087 0 0 0 582.747 15.399 A 287.946 287.946 0 0 0 583.211 13.324 A 229.964 229.964 0 0 0 583.626 11.395 A 36.65 36.65 0 0 0 583.678 10.958 A 32.887 32.887 0 0 0 583.87 8.368 A 6.998 6.998 0 0 0 583.872 8.312 Q 583.895 7.394 583.663 6.87 A 1.226 1.226 0 0 0 583.333 6.415 Q 583.194 6.068 582.809 5.893 A 1.749 1.749 0 0 0 582.454 5.78 A 6.278 6.278 0 0 0 581.973 5.697 A 7.4 7.4 0 0 0 580.99 5.634 A 7.939 7.939 0 0 0 580.961 5.634 Q 580.521 5.635 580.031 5.686 A 13.009 13.009 0 0 0 579.036 5.829 A 25.499 25.499 0 0 0 576.888 6.317 A 19.55 19.55 0 0 0 576.557 6.394 A 21.953 21.953 0 0 0 575.081 6.806 Q 574.154 7.099 573.372 7.587 A 12.625 12.625 0 0 1 573.583 8.933 A 16.352 16.352 0 0 1 573.665 10.614 A 25.968 25.968 0 0 1 573.47 13.837 A 72.904 72.904 0 0 1 573.445 14.057 A 79.86 79.86 0 0 1 572.982 17.45 Q 572.538 19.448 571.533 23.858 A 4770.409 4770.409 0 0 1 570.833 26.923 A 1724.433 1724.433 0 0 0 570.128 29.908 Q 568.871 35.248 566.927 43.622 A 1428.93 1428.93 0 0 1 566.371 46.008 Q 564.608 53.543 562.075 64.038 A 5029.273 5029.273 0 0 1 559.993 72.626 A 5.96 5.96 0 0 0 560.051 72.823 Q 560.181 73.243 560.36 73.59 A 3.345 3.345 0 0 0 560.872 74.335 Q 561.165 74.652 561.458 74.909 A 5.664 5.664 0 0 0 562.044 75.36 A 5.746 5.746 0 0 0 563.509 75.946 Q 564.193 76.044 564.876 76.044 A 4.016 4.016 0 0 0 565.487 75.995 A 5.384 5.384 0 0 0 566.146 75.849 A 3.27 3.27 0 0 0 566.482 75.733 A 3.546 3.546 0 0 0 567.415 75.165 Q 567.8 73.572 568.2 71.716 A 209.174 209.174 0 0 0 568.831 68.671 Q 569.564 65.009 570.247 61.884 Q 571.029 58.173 571.81 54.364 A 44.327 44.327 0 0 1 572.817 52.812 A 52.965 52.965 0 0 1 574.74 50.165 Q 576.4 48.016 578.206 46.307 A 23.919 23.919 0 0 1 579.787 44.934 A 18.542 18.542 0 0 1 581.82 43.524 A 10.207 10.207 0 0 1 582.354 43.227 Q 583.86 42.45 585.189 42.45 Q 586.873 42.45 587.459 43.686 A 3.235 3.235 0 0 1 587.728 44.647 A 8.964 8.964 0 0 1 587.764 44.966 Q 587.969 47.068 587.288 49.97 A 51.672 51.672 0 0 1 586.783 51.947 A 60.958 60.958 0 0 1 585.335 56.464 Q 584.572 58.569 584.019 60.313 A 60.053 60.053 0 0 0 583.431 62.274 A 42.333 42.333 0 0 0 582.836 64.696 Q 582.594 65.836 582.463 66.833 A 17.369 17.369 0 0 0 582.308 68.768 A 7.402 7.402 0 0 0 582.307 68.908 Q 582.307 71.417 584.017 73.602 Q 585.97 76.141 587.972 76.141 Q 589.974 76.141 592.904 74.481 A 35.182 35.182 0 0 0 595.418 72.936 A 46.189 46.189 0 0 0 598.372 70.77 A 106.888 106.888 0 0 0 603.988 65.985 Q 606.771 63.446 609.212 60.761 A 72.458 72.458 0 0 0 611.03 58.685 A 58.47 58.47 0 0 0 613.509 55.536 Q 613.973 54.898 614.179 54.329 A 2.626 2.626 0 0 0 614.339 53.583 Q 614.364 53.143 614.266 52.813 A 1.271 1.271 0 0 0 613.949 52.265 Q 613.553 51.869 612.92 51.869 A 2.158 2.158 0 0 0 612.777 51.874 Q 612.267 51.908 611.782 52.296 Z M 672.689 88.153 L 671.468 94.013 A 252.213 252.213 0 0 1 670.687 97.626 A 298.123 298.123 0 0 1 669.808 101.434 A 109.879 109.879 0 0 1 667.66 109.198 A 61.618 61.618 0 0 1 666.378 112.86 A 47.6 47.6 0 0 1 664.974 116.132 A 26.189 26.189 0 0 1 663.649 118.588 Q 662.747 120.055 661.751 121.161 A 6.928 6.928 0 0 1 660.497 122.273 A 4.643 4.643 0 0 1 657.845 123.114 A 9.089 9.089 0 0 1 654.811 122.623 A 8.037 8.037 0 0 1 652.327 121.21 A 15.621 15.621 0 0 1 649.135 117.555 A 18.499 18.499 0 0 1 648.47 116.425 Q 646.908 113.544 646.175 110.224 A 32.951 32.951 0 0 1 645.626 107.025 A 25.01 25.01 0 0 1 645.443 104.071 A 36.886 36.886 0 0 1 645.535 101.38 Q 645.694 99.215 646.126 97.577 A 14.423 14.423 0 0 1 648.01 93.384 A 16.763 16.763 0 0 1 648.519 92.645 A 25.403 25.403 0 0 1 650.178 90.616 Q 651.062 89.635 652.139 88.608 A 48.056 48.056 0 0 1 653.158 87.665 A 225.278 225.278 0 0 1 654.726 86.267 Q 657.235 84.052 660.677 81.122 Q 662.923 79.169 664.974 77.411 A 135.725 135.725 0 0 1 667.461 75.328 A 111.005 111.005 0 0 1 668.88 74.188 A 622.818 622.818 0 0 1 669.356 72.296 A 511.165 511.165 0 0 1 669.808 70.526 Q 670.218 68.931 670.501 67.633 A 56.02 56.02 0 0 0 670.54 67.45 A 23.906 23.906 0 0 1 664.437 73.212 A 14.31 14.31 0 0 1 657.134 75.535 A 17.435 17.435 0 0 1 656.283 75.556 A 7.651 7.651 0 0 1 650.344 72.879 A 10.814 10.814 0 0 1 649.495 71.796 A 12.477 12.477 0 0 1 647.918 68.475 Q 646.911 65.301 646.908 60.746 A 41.605 41.605 0 0 1 646.908 60.712 A 23.284 23.284 0 0 1 647.169 57.347 Q 647.411 55.695 647.876 53.868 A 43.981 43.981 0 0 1 648.275 52.411 A 35.502 35.502 0 0 1 652.181 43.622 A 25.537 25.537 0 0 1 658.431 36.688 Q 662.142 33.856 666.732 33.856 Q 668.88 33.856 670.443 34.931 Q 672.005 36.005 673.079 37.616 A 13.828 13.828 0 0 1 674.74 41.034 A 31.175 31.175 0 0 1 675.252 42.78 A 23.867 23.867 0 0 1 675.618 44.403 Q 675.814 43.817 675.911 43.182 A 5.964 5.964 0 0 1 676.034 42.584 A 4.411 4.411 0 0 1 676.204 42.059 Q 677.004 39.342 677.967 38.031 A 4.438 4.438 0 0 1 678.402 37.518 Q 679.622 36.298 682.064 36.298 Q 683.223 36.298 684.066 36.649 A 3.588 3.588 0 0 1 684.359 36.786 A 4.89 4.89 0 0 1 684.697 36.98 Q 685.206 37.302 685.275 37.578 A 0.352 0.352 0 0 1 685.286 37.665 Q 684.913 38.487 684.653 39.024 A 25.67 25.67 0 0 1 684.505 39.325 A 42.853 42.853 0 0 0 683.993 40.388 A 47.191 47.191 0 0 0 683.919 40.546 A 8.68 8.68 0 0 0 683.7 41.07 Q 683.591 41.353 683.482 41.683 A 18.68 18.68 0 0 0 683.333 42.157 A 43.33 43.33 0 0 0 683.175 42.7 Q 682.918 43.598 682.552 44.989 A 11.432 11.432 0 0 0 682.467 45.309 Q 682.256 46.14 681.82 48.163 A 175.602 175.602 0 0 1 681.376 50.161 Q 680.971 51.935 680.452 54.071 A 429.558 429.558 0 0 0 679.598 57.66 A 561.296 561.296 0 0 0 678.695 61.591 A 7249.384 7249.384 0 0 0 676.888 69.599 A 45.757 45.757 0 0 0 680.026 67.624 A 58.074 58.074 0 0 0 682.552 65.79 A 99.458 99.458 0 0 0 688.118 61.2 A 105.64 105.64 0 0 0 690.609 58.917 A 80.186 80.186 0 0 0 692.806 56.757 A 56.735 56.735 0 0 0 693.764 55.753 Q 694.788 54.652 695.457 53.793 A 15.157 15.157 0 0 0 695.833 53.29 A 6.072 6.072 0 0 1 696.473 52.479 Q 696.996 51.927 697.591 51.63 A 4.294 4.294 0 0 1 698.112 51.408 Q 698.56 51.254 698.949 51.254 A 1.786 1.786 0 0 1 699.3 51.288 Q 700.033 51.434 700.179 52.167 Q 700.31 52.824 699.696 53.912 A 7.91 7.91 0 0 1 699.544 54.169 A 41.411 41.411 0 0 1 695.626 59.451 A 47.792 47.792 0 0 1 694.076 61.151 A 90.694 90.694 0 0 1 687.484 67.401 A 88.442 88.442 0 0 1 683.45 70.658 A 71.817 71.817 0 0 1 680.941 72.479 A 170.697 170.697 0 0 1 679.412 73.526 Q 678.31 74.272 677.338 74.9 A 78.333 78.333 0 0 1 675.521 76.044 A 473.187 473.187 0 0 1 675.051 78.137 Q 674.373 81.122 673.861 83.173 A 193.913 193.913 0 0 0 673.226 85.785 A 142.894 142.894 0 0 0 672.689 88.153 Z M 180.72 115.472 A 4.734 4.734 0 0 0 181.478 115.888 Q 183.431 116.669 184.945 116.278 Q 186.458 115.888 187.044 113.251 A 893.003 893.003 0 0 1 187.264 111.976 Q 188.031 107.547 188.767 103.571 A 533.902 533.902 0 0 1 190.218 96.015 Q 191.732 88.446 192.806 83.173 A 374.913 374.913 0 0 1 193.161 81.471 Q 193.691 78.963 194.203 76.715 A 216.573 216.573 0 0 1 195.247 72.333 Q 195.345 71.845 195.394 71.552 Q 195.424 71.369 195.474 71.147 A 11.746 11.746 0 0 1 195.54 70.868 A 14.636 14.636 0 0 0 195.71 71.442 A 16.858 16.858 0 0 0 196.322 73.065 A 8.31 8.31 0 0 0 197.591 75.116 A 5.043 5.043 0 0 0 198.246 75.763 A 5.751 5.751 0 0 0 199.593 76.581 A 5.359 5.359 0 0 0 199.679 76.618 Q 200.331 76.891 201.105 77.015 A 8.661 8.661 0 0 0 202.474 77.118 A 8.852 8.852 0 0 0 203.974 76.988 A 10.678 10.678 0 0 0 206.087 76.386 Q 207.943 75.653 209.701 74.286 A 30.354 30.354 0 0 1 210.109 74.464 Q 210.303 74.551 210.479 74.633 A 16.591 16.591 0 0 1 210.872 74.823 A 28.121 28.121 0 0 0 211.12 74.945 A 31.62 31.62 0 0 0 211.898 75.311 A 3.172 3.172 0 0 0 212.073 75.385 Q 212.324 75.481 212.622 75.55 A 5.923 5.923 0 0 0 213.216 75.653 A 8.026 8.026 0 0 0 213.251 75.657 Q 214.026 75.751 215.267 75.751 A 10.612 10.612 0 0 0 218.11 75.351 A 13.846 13.846 0 0 0 220.687 74.335 A 27.817 27.817 0 0 0 222.069 73.581 A 31.453 31.453 0 0 0 226.107 70.77 A 46.217 46.217 0 0 0 231.136 65.985 A 87.152 87.152 0 0 0 232.991 63.875 A 69.72 69.72 0 0 0 235.384 60.907 A 104.415 104.415 0 0 0 235.894 60.23 Q 237.418 58.191 238.509 56.513 A 70.602 70.602 0 0 0 238.551 56.448 Q 239.785 54.545 240.169 53.681 Q 240.556 52.842 240.688 52.196 A 3.102 3.102 0 0 0 240.755 51.581 A 3.37 3.37 0 0 0 240.754 51.504 Q 240.737 50.737 240.365 50.458 Q 240.043 50.217 239.523 50.406 A 2.209 2.209 0 0 0 239.29 50.507 Q 238.82 50.742 238.304 51.277 A 7.884 7.884 0 0 0 237.826 51.825 A 10.911 10.911 0 0 0 237.781 51.877 Q 237.348 52.389 236.617 53.372 A 89.195 89.195 0 0 0 236.068 54.12 Q 235.409 55.026 234.579 56.056 A 75.782 75.782 0 0 1 233.187 57.733 A 74.108 74.108 0 0 1 231.85 59.255 A 90.441 90.441 0 0 1 229.378 61.884 Q 227.279 64.032 225.033 65.839 A 28.692 28.692 0 0 1 223.903 66.702 A 24.71 24.71 0 0 1 220.443 68.817 A 12.189 12.189 0 0 1 218.843 69.484 A 9.428 9.428 0 0 1 215.853 69.989 A 8.474 8.474 0 0 1 215.73 69.988 Q 215.345 69.983 215.218 69.94 Q 215.072 69.891 215.072 69.843 A 0.058 0.058 0 0 0 215.061 69.811 Q 215.04 69.778 214.974 69.745 A 0.544 0.544 0 0 0 214.923 69.724 Q 214.827 69.688 214.622 69.633 A 11.038 11.038 0 0 0 214.486 69.599 A 45.709 45.709 0 0 0 214.946 69.006 A 50.477 50.477 0 0 0 218.001 64.52 A 50.624 50.624 0 0 0 220.931 58.954 A 41.239 41.239 0 0 0 221.532 57.544 A 35.815 35.815 0 0 0 222.933 53.388 A 27.262 27.262 0 0 0 223.401 51.337 A 21.788 21.788 0 0 0 223.763 48.212 A 34.594 34.594 0 0 0 223.796 46.709 A 35.814 35.814 0 0 0 223.665 43.671 A 15.7 15.7 0 0 0 223.462 42.145 A 12.697 12.697 0 0 0 222.689 39.52 A 8.724 8.724 0 0 0 222.317 38.744 A 7.079 7.079 0 0 0 220.492 36.542 A 4.675 4.675 0 0 0 220.378 36.455 Q 219.53 35.823 218.397 35.577 A 7.367 7.367 0 0 0 216.829 35.419 A 8.17 8.17 0 0 0 215.187 35.591 A 10.439 10.439 0 0 0 213.363 36.151 A 17.216 17.216 0 0 0 213.025 36.292 A 18.667 18.667 0 0 0 209.847 38.056 A 32.263 32.263 0 0 0 209.421 38.353 A 35.549 35.549 0 0 0 206.478 40.692 A 36.235 36.235 0 0 0 206.067 41.06 A 32.804 32.804 0 0 0 203.451 43.72 A 5.826 5.826 0 0 1 203.457 43.434 A 4.837 4.837 0 0 1 203.499 42.987 A 10.529 10.529 0 0 1 203.535 42.759 Q 203.555 42.638 203.579 42.503 A 21.648 21.648 0 0 1 203.646 42.157 A 22.911 22.911 0 0 0 203.734 41.519 Q 204.069 38.785 203.499 37.47 Q 203.013 36.348 201.354 35.971 A 7.641 7.641 0 0 0 200.228 35.809 A 5.93 5.93 0 0 0 199.691 35.785 A 6.1 6.1 0 0 0 198.079 36.005 Q 197.5 36.121 196.834 36.357 A 14.012 14.012 0 0 0 195.882 36.737 A 9.013 9.013 0 0 0 194.896 37.248 A 11.012 11.012 0 0 0 193.49 38.251 Q 195.15 39.911 194.954 42.206 A 17.565 17.565 0 0 1 194.922 42.547 Q 194.688 44.777 193.783 48.309 A 804.42 804.42 0 0 1 192.965 51.849 A 985.537 985.537 0 0 1 192.074 55.634 A 985.537 985.537 0 0 0 191.182 59.418 A 804.42 804.42 0 0 0 190.365 62.958 L 188.411 70.77 A 323.712 323.712 0 0 0 188.408 70.782 Q 187.335 74.881 185.872 80.927 A 455.697 455.697 0 0 0 185.84 81.05 Q 184.826 84.893 183.519 90.119 A 1280.344 1280.344 0 0 0 182.601 93.817 A 987.01 987.01 0 0 1 181.33 98.906 Q 180.654 101.584 179.896 104.529 A 1806.581 1806.581 0 0 1 177.962 111.981 Q 178.353 113.056 178.939 113.788 A 11.283 11.283 0 0 0 178.948 113.799 Q 179.236 114.159 179.525 114.459 A 7.244 7.244 0 0 0 180.111 115.009 A 6.339 6.339 0 0 0 180.72 115.472 Z M 228.402 75.116 A 2.413 2.413 0 0 0 228.877 74.852 Q 229.433 74.459 229.915 73.7 Q 230.208 73.309 231.429 71.307 A 13202.869 13202.869 0 0 1 232.244 69.97 Q 233.199 68.405 234.408 66.425 A 1240.234 1240.234 0 0 0 236.226 63.434 A 1526.901 1526.901 0 0 0 238.167 60.224 A 1755.064 1755.064 0 0 0 240.12 56.976 A 1521.982 1521.982 0 0 0 241.976 53.876 Q 243.105 51.984 244.063 50.397 A 539.639 539.639 0 0 1 245.15 48.602 Q 246.218 46.848 246.69 46.047 A 33.435 33.435 0 0 0 246.908 45.673 A 8.863 8.863 0 0 1 247.661 45.899 A 11.579 11.579 0 0 1 248.568 46.259 A 3.771 3.771 0 0 0 248.845 46.369 Q 249.267 46.517 249.767 46.587 A 6.871 6.871 0 0 0 250.716 46.649 Q 251.375 46.649 251.787 46.622 A 5.678 5.678 0 0 0 252.035 46.6 Q 252.474 46.552 252.718 46.552 A 2.484 2.484 0 0 0 253.206 46.503 A 1.729 1.729 0 0 1 253.356 46.481 Q 253.603 46.454 254.036 46.454 A 1.91 1.91 0 0 1 254.386 46.484 A 1.283 1.283 0 0 1 255.306 47.138 A 2.862 2.862 0 0 1 255.58 47.797 A 3.373 3.373 0 0 1 255.697 48.7 A 3.706 3.706 0 0 1 255.696 48.765 Q 255.672 50.115 254.671 52.069 A 66.652 66.652 0 0 1 253.968 53.401 Q 253.127 54.956 251.986 56.903 A 43.962 43.962 0 0 1 251.635 57.59 A 48.924 48.924 0 0 1 250.472 59.686 Q 249.642 61.102 248.91 62.518 A 37.515 37.515 0 0 0 248.471 63.394 A 31.67 31.67 0 0 0 247.64 65.253 A 10.023 10.023 0 0 0 247.249 66.398 A 7.485 7.485 0 0 0 247.005 67.743 A 8.128 8.128 0 0 0 246.987 68.284 Q 246.987 69.519 247.347 70.917 Q 247.786 72.626 248.812 74.042 A 8.057 8.057 0 0 0 249.67 75.042 A 9.232 9.232 0 0 0 251.497 76.434 A 6.008 6.008 0 0 0 252.108 76.748 Q 252.923 77.109 253.916 77.274 A 10.9 10.9 0 0 0 255.697 77.411 Q 257.146 77.411 258.682 76.895 A 13.413 13.413 0 0 0 260.824 75.946 A 28.054 28.054 0 0 0 263.173 74.506 A 34.825 34.825 0 0 0 266.195 72.186 A 50.252 50.252 0 0 0 271.322 67.108 A 111.442 111.442 0 0 0 272.805 65.383 A 94.316 94.316 0 0 0 275.765 61.688 A 121.934 121.934 0 0 0 276.316 60.956 Q 277.126 59.873 277.832 58.877 A 71.912 71.912 0 0 0 279.183 56.903 Q 280.599 54.755 281.185 53.778 A 9.36 9.36 0 0 0 281.325 53.538 Q 282.052 52.24 281.917 51.434 A 2.737 2.737 0 0 0 281.881 51.253 Q 281.708 50.524 281.185 50.263 A 1.399 1.399 0 0 0 280.55 50.116 Q 280.363 50.116 280.162 50.16 A 2.484 2.484 0 0 0 279.818 50.263 A 2.384 2.384 0 0 0 279.107 50.68 A 2.795 2.795 0 0 0 278.548 51.337 A 26.029 26.029 0 0 0 278.504 51.397 Q 277.917 52.184 276.742 53.876 Q 276.055 54.865 275.198 55.992 A 92.845 92.845 0 0 1 273.763 57.831 A 97.7 97.7 0 0 1 272.866 58.936 A 111.846 111.846 0 0 1 269.954 62.323 A 61.875 61.875 0 0 1 268.926 63.446 A 54.646 54.646 0 0 1 265.804 66.522 A 31.927 31.927 0 0 1 263.857 68.157 A 23.995 23.995 0 0 1 261.702 69.647 A 11.224 11.224 0 0 1 260.873 70.108 Q 260.195 70.447 259.558 70.634 A 5.36 5.36 0 0 1 258.04 70.868 Q 255.794 70.868 255.306 70.087 A 3.697 3.697 0 0 1 255.101 69.71 Q 254.931 69.352 254.809 68.915 A 7.481 7.481 0 0 1 254.622 68.036 A 4.981 4.981 0 0 1 254.598 67.54 Q 254.598 65.778 255.794 63.641 A 59.316 59.316 0 0 1 256.991 61.599 A 46.676 46.676 0 0 1 258.529 59.247 A 107.5 107.5 0 0 0 258.815 58.846 Q 259.809 57.45 260.663 56.154 A 66.129 66.129 0 0 0 262.337 53.485 Q 263.9 50.849 263.607 48.407 Q 263.509 47.235 263.167 45.819 Q 262.826 44.403 262.142 43.182 Q 261.458 41.962 260.384 41.132 A 3.853 3.853 0 0 0 258.857 40.428 A 5.46 5.46 0 0 0 257.65 40.302 Q 256.667 40.302 256.063 40.403 A 3.235 3.235 0 0 0 255.648 40.497 A 3.028 3.028 0 0 1 255.255 40.585 Q 254.607 40.692 253.451 40.692 A 8.234 8.234 0 0 1 253.112 40.686 Q 252.296 40.652 251.888 40.448 A 11.362 11.362 0 0 1 251.589 40.293 Q 251.304 40.14 251.107 40.009 Q 252.181 38.446 252.572 36.493 Q 252.881 34.947 252.823 33.829 A 5.577 5.577 0 0 0 252.767 33.27 A 7.619 7.619 0 0 0 252.418 31.666 A 8.985 8.985 0 0 0 251.449 29.657 Q 250.641 28.394 249.002 28.038 A 6.667 6.667 0 0 0 247.591 27.899 A 3.36 3.36 0 0 0 246.653 28.037 Q 246.099 28.197 245.531 28.546 A 7.182 7.182 0 0 0 244.564 29.266 A 14.927 14.927 0 0 0 243.616 30.173 A 17.177 17.177 0 0 0 241.732 32.538 A 19.873 19.873 0 0 0 239.681 36.493 A 12.514 12.514 0 0 0 239.345 37.493 Q 239.036 38.57 239.057 39.382 A 3.441 3.441 0 0 0 239.095 39.813 Q 239.238 40.889 239.487 41.412 A 1.3 1.3 0 0 0 239.681 41.718 Q 239.974 42.047 240.651 42.679 A 53.431 53.431 0 0 0 241.146 43.134 Q 240.56 44.208 239.29 46.6 Q 238.021 48.993 236.507 52.02 A 1137.77 1137.77 0 0 0 234.957 55.133 A 1329.819 1329.819 0 0 0 233.333 58.417 A 7952.539 7952.539 0 0 0 231.734 61.664 A 6285.277 6285.277 0 0 0 230.257 64.667 Q 228.841 67.548 227.816 69.599 L 226.497 72.235 A 5.515 5.515 0 0 0 226.284 72.715 Q 225.953 73.573 226.107 74.188 Q 226.302 74.97 226.937 75.214 A 1.554 1.554 0 0 0 227.5 75.315 Q 227.917 75.315 228.402 75.116 Z M 731.234 75.116 A 2.413 2.413 0 0 0 731.709 74.852 Q 732.265 74.459 732.747 73.7 Q 733.04 73.309 734.261 71.307 A 13202.869 13202.869 0 0 1 735.076 69.97 Q 736.031 68.405 737.24 66.425 A 1240.234 1240.234 0 0 0 739.058 63.434 A 1526.901 1526.901 0 0 0 740.999 60.224 A 1755.064 1755.064 0 0 0 742.952 56.976 A 1521.982 1521.982 0 0 0 744.808 53.876 Q 745.937 51.984 746.895 50.397 A 539.639 539.639 0 0 1 747.982 48.602 Q 749.05 46.848 749.522 46.047 A 33.435 33.435 0 0 0 749.74 45.673 A 8.863 8.863 0 0 1 750.493 45.899 A 11.579 11.579 0 0 1 751.4 46.259 A 3.771 3.771 0 0 0 751.677 46.369 Q 752.099 46.517 752.599 46.587 A 6.871 6.871 0 0 0 753.548 46.649 Q 754.207 46.649 754.619 46.622 A 5.678 5.678 0 0 0 754.867 46.6 Q 755.306 46.552 755.55 46.552 A 2.484 2.484 0 0 0 756.038 46.503 A 1.729 1.729 0 0 1 756.188 46.481 Q 756.435 46.454 756.868 46.454 A 1.91 1.91 0 0 1 757.218 46.484 A 1.283 1.283 0 0 1 758.138 47.138 A 2.862 2.862 0 0 1 758.412 47.797 A 3.373 3.373 0 0 1 758.529 48.7 A 3.706 3.706 0 0 1 758.528 48.765 Q 758.504 50.115 757.503 52.069 A 66.652 66.652 0 0 1 756.8 53.401 Q 755.959 54.956 754.818 56.903 A 43.962 43.962 0 0 1 754.467 57.59 A 48.924 48.924 0 0 1 753.304 59.686 Q 752.474 61.102 751.742 62.518 A 37.515 37.515 0 0 0 751.303 63.394 A 31.67 31.67 0 0 0 750.472 65.253 A 10.023 10.023 0 0 0 750.081 66.398 A 7.485 7.485 0 0 0 749.837 67.743 A 8.128 8.128 0 0 0 749.819 68.284 Q 749.819 69.519 750.179 70.917 Q 750.618 72.626 751.644 74.042 A 8.057 8.057 0 0 0 752.502 75.042 A 9.232 9.232 0 0 0 754.329 76.434 A 6.008 6.008 0 0 0 754.94 76.748 Q 755.755 77.109 756.748 77.274 A 10.9 10.9 0 0 0 758.529 77.411 Q 759.978 77.411 761.514 76.895 A 13.413 13.413 0 0 0 763.656 75.946 A 28.054 28.054 0 0 0 766.005 74.506 A 34.825 34.825 0 0 0 769.027 72.186 A 50.252 50.252 0 0 0 774.154 67.108 A 111.442 111.442 0 0 0 775.637 65.383 A 94.316 94.316 0 0 0 778.597 61.688 A 121.934 121.934 0 0 0 779.148 60.956 Q 779.958 59.873 780.664 58.877 A 71.912 71.912 0 0 0 782.015 56.903 Q 783.431 54.755 784.017 53.778 A 9.36 9.36 0 0 0 784.157 53.538 Q 784.884 52.24 784.749 51.434 A 2.737 2.737 0 0 0 784.713 51.253 Q 784.54 50.524 784.017 50.263 A 1.399 1.399 0 0 0 783.382 50.116 Q 783.195 50.116 782.994 50.16 A 2.484 2.484 0 0 0 782.65 50.263 A 2.384 2.384 0 0 0 781.939 50.68 A 2.795 2.795 0 0 0 781.38 51.337 A 26.029 26.029 0 0 0 781.336 51.397 Q 780.749 52.184 779.574 53.876 Q 778.887 54.865 778.03 55.992 A 92.845 92.845 0 0 1 776.595 57.831 A 97.7 97.7 0 0 1 775.698 58.936 A 111.846 111.846 0 0 1 772.786 62.323 A 61.875 61.875 0 0 1 771.758 63.446 A 54.646 54.646 0 0 1 768.636 66.522 A 31.927 31.927 0 0 1 766.689 68.157 A 23.995 23.995 0 0 1 764.535 69.647 A 11.224 11.224 0 0 1 763.705 70.108 Q 763.027 70.447 762.39 70.634 A 5.36 5.36 0 0 1 760.872 70.868 Q 758.626 70.868 758.138 70.087 A 3.697 3.697 0 0 1 757.933 69.71 Q 757.763 69.352 757.641 68.915 A 7.481 7.481 0 0 1 757.454 68.036 A 4.981 4.981 0 0 1 757.43 67.54 Q 757.43 65.778 758.626 63.641 A 59.316 59.316 0 0 1 759.823 61.599 A 46.676 46.676 0 0 1 761.361 59.247 A 107.5 107.5 0 0 0 761.647 58.846 Q 762.641 57.45 763.495 56.154 A 66.129 66.129 0 0 0 765.169 53.485 Q 766.732 50.849 766.439 48.407 Q 766.341 47.235 765.999 45.819 Q 765.658 44.403 764.974 43.182 Q 764.29 41.962 763.216 41.132 A 3.853 3.853 0 0 0 761.689 40.428 A 5.46 5.46 0 0 0 760.482 40.302 Q 759.499 40.302 758.895 40.403 A 3.235 3.235 0 0 0 758.48 40.497 A 3.028 3.028 0 0 1 758.087 40.585 Q 757.439 40.692 756.283 40.692 A 8.234 8.234 0 0 1 755.944 40.686 Q 755.128 40.652 754.72 40.448 A 11.362 11.362 0 0 1 754.421 40.293 Q 754.136 40.14 753.939 40.009 Q 755.013 38.446 755.404 36.493 Q 755.713 34.947 755.655 33.829 A 5.577 5.577 0 0 0 755.599 33.27 A 7.619 7.619 0 0 0 755.25 31.666 A 8.985 8.985 0 0 0 754.281 29.657 Q 753.473 28.394 751.834 28.038 A 6.667 6.667 0 0 0 750.423 27.899 A 3.36 3.36 0 0 0 749.485 28.037 Q 748.931 28.197 748.363 28.546 A 7.182 7.182 0 0 0 747.396 29.266 A 14.927 14.927 0 0 0 746.448 30.173 A 17.177 17.177 0 0 0 744.564 32.538 A 19.873 19.873 0 0 0 742.513 36.493 A 12.514 12.514 0 0 0 742.177 37.493 Q 741.868 38.57 741.889 39.382 A 3.441 3.441 0 0 0 741.927 39.813 Q 742.071 40.889 742.319 41.412 A 1.3 1.3 0 0 0 742.513 41.718 Q 742.806 42.047 743.483 42.679 A 53.431 53.431 0 0 0 743.978 43.134 Q 743.392 44.208 742.122 46.6 Q 740.853 48.993 739.339 52.02 A 1137.77 1137.77 0 0 0 737.789 55.133 A 1329.819 1329.819 0 0 0 736.165 58.417 A 7952.539 7952.539 0 0 0 734.566 61.664 A 6285.277 6285.277 0 0 0 733.089 64.667 Q 731.673 67.548 730.648 69.599 L 729.329 72.235 A 5.515 5.515 0 0 0 729.116 72.715 Q 728.785 73.573 728.939 74.188 Q 729.134 74.97 729.769 75.214 A 1.554 1.554 0 0 0 730.332 75.315 Q 730.75 75.315 731.234 75.116 Z M 410.775 49.677 L 409.701 53.974 A 159.592 159.592 0 0 1 409.3 55.615 Q 408.938 57.068 408.48 58.807 A 99.663 99.663 0 0 1 407.662 61.725 A 133.02 133.02 0 0 1 406.673 64.911 A 15.173 15.173 0 0 0 406.37 66.246 Q 406.139 67.543 406.23 68.583 A 6.324 6.324 0 0 0 406.234 68.622 A 2.037 2.037 0 0 0 406.416 69.324 Q 406.833 70.184 408.138 70.184 A 3.864 3.864 0 0 0 409.359 69.964 Q 410.445 69.6 411.79 68.637 A 18.747 18.747 0 0 0 412.581 68.036 A 41.685 41.685 0 0 0 415.618 65.341 A 53.878 53.878 0 0 0 418.001 62.86 Q 420.736 59.833 423.177 56.659 Q 425.189 54.043 426.405 52.256 A 41.025 41.025 0 0 0 426.888 51.532 A 9.122 9.122 0 0 1 427.375 50.888 Q 427.987 50.153 428.548 49.872 A 2.751 2.751 0 0 1 428.816 49.754 Q 429.28 49.581 429.602 49.692 A 0.722 0.722 0 0 1 429.769 49.774 A 0.783 0.783 0 0 1 430.032 50.088 Q 430.169 50.365 430.2 50.818 A 4.103 4.103 0 0 1 430.208 51.093 A 3.553 3.553 0 0 1 430.118 51.852 Q 429.957 52.583 429.51 53.511 A 12.797 12.797 0 0 1 429.427 53.681 A 24.602 24.602 0 0 1 428.928 54.621 Q 428.301 55.75 427.327 57.294 A 54.836 54.836 0 0 1 425.777 59.613 A 72.656 72.656 0 0 1 423.958 62.079 A 110.789 110.789 0 0 1 420.316 66.56 A 122.53 122.53 0 0 1 419.759 67.206 A 45.901 45.901 0 0 1 415.528 71.495 A 41.994 41.994 0 0 1 415.072 71.893 A 32.209 32.209 0 0 1 412.416 73.956 A 25.146 25.146 0 0 1 410.238 75.311 A 11.966 11.966 0 0 1 408.334 76.165 Q 406.972 76.63 405.697 76.63 Q 403.49 76.63 401.896 75.829 A 6.4 6.4 0 0 1 401.839 75.8 Q 400.228 74.97 399.251 73.602 Q 398.275 72.235 397.982 70.429 A 8.667 8.667 0 0 1 397.872 69.039 Q 397.872 68.187 398.03 67.285 A 12.003 12.003 0 0 1 398.177 66.571 Q 398.442 65.336 399.025 63.344 A 98.468 98.468 0 0 1 399.154 62.909 Q 399.837 60.614 400.57 57.929 Q 401.302 55.243 401.937 52.557 A 41.578 41.578 0 0 0 402.435 50.147 Q 402.663 48.842 402.767 47.675 A 16.893 16.893 0 0 0 402.821 46.836 Q 402.879 45.341 402.624 44.264 A 5.832 5.832 0 0 0 402.572 44.061 A 2.648 2.648 0 0 0 402.317 43.434 Q 401.859 42.645 400.911 42.645 Q 399.349 42.645 397.689 43.671 Q 396.133 44.632 394.534 46.237 A 24.741 24.741 0 0 0 394.32 46.454 A 36.911 36.911 0 0 0 392.29 48.731 A 46.536 46.536 0 0 0 390.902 50.507 Q 389.193 52.802 387.533 55.243 A 287.43 287.43 0 0 0 386.915 57.617 Q 386.674 58.557 386.463 59.416 A 160.876 160.876 0 0 0 386.068 61.054 A 366.778 366.778 0 0 0 385.534 63.351 Q 385.286 64.441 385.071 65.416 A 220.166 220.166 0 0 0 385.042 65.546 Q 384.665 67.266 384.323 68.626 A 69.769 69.769 0 0 1 384.212 69.061 A 75.417 75.417 0 0 0 383.721 71.073 A 63.721 63.721 0 0 0 383.529 71.942 A 2.277 2.277 0 0 1 383.147 72.664 Q 382.735 73.205 381.949 73.73 A 8.54 8.54 0 0 1 381.771 73.847 A 15.398 15.398 0 0 1 378.646 75.36 A 12.615 12.615 0 0 1 377.509 75.706 Q 376.938 75.848 376.43 75.906 A 5.868 5.868 0 0 1 375.765 75.946 Q 374.544 75.946 374.74 75.067 Q 374.834 74.499 375.342 72.554 A 160.983 160.983 0 0 1 375.374 72.431 A 3232.082 3232.082 0 0 1 375.805 70.789 Q 376.186 69.336 376.644 67.597 A 454.86 454.86 0 0 0 377.389 64.728 A 538.527 538.527 0 0 0 378.158 61.688 A 814.721 814.721 0 0 0 378.914 58.637 A 700.831 700.831 0 0 0 379.622 55.731 A 1490.628 1490.628 0 0 0 380.135 53.363 A 1999.136 1999.136 0 0 0 380.697 50.751 Q 381.185 48.407 381.917 45.282 A 228.456 228.456 0 0 1 382.711 42.011 A 298.514 298.514 0 0 1 383.626 38.446 A 6.592 6.592 0 0 1 384.545 37.782 A 5.632 5.632 0 0 1 385.042 37.518 A 8.374 8.374 0 0 1 386.556 36.981 A 6.829 6.829 0 0 1 388.107 36.604 A 7.571 7.571 0 0 1 388.216 36.591 Q 388.997 36.591 389.779 36.688 A 7.698 7.698 0 0 1 390.742 36.892 A 9.128 9.128 0 0 1 391.195 37.03 A 4.032 4.032 0 0 1 392.513 37.763 Q 392.248 38.38 391.904 39.436 A 43.684 43.684 0 0 0 391.829 39.667 Q 391.439 40.888 391.048 42.255 A 34.575 34.575 0 0 1 390.352 44.653 A 39.525 39.525 0 0 1 390.072 45.477 A 42.41 42.41 0 0 1 391.979 43.037 A 50.027 50.027 0 0 1 392.952 41.913 A 25.692 25.692 0 0 1 396.468 38.641 Q 398.372 37.177 400.521 36.249 Q 402.669 35.321 404.915 35.321 A 5.473 5.473 0 0 1 408.236 36.395 A 6.71 6.71 0 0 1 410.013 38.368 A 8.567 8.567 0 0 1 410.531 39.374 A 11.004 11.004 0 0 1 411.19 41.461 Q 411.403 42.455 411.486 43.588 A 18.817 18.817 0 0 1 411.507 43.915 A 13.76 13.76 0 0 1 411.528 44.678 Q 411.528 46.998 410.775 49.677 Z M 495.787 75.612 A 19.411 19.411 0 0 0 498.177 75.751 A 12.397 12.397 0 0 0 504.915 73.847 A 15.365 15.365 0 0 0 507.747 71.539 A 19.49 19.49 0 0 0 510.189 68.427 Q 511.263 71.845 512.777 73.651 A 4.825 4.825 0 0 0 515.107 75.204 A 6.199 6.199 0 0 0 516.927 75.458 A 7.869 7.869 0 0 0 518.519 75.291 Q 520.743 74.832 523.177 73.114 A 37.381 37.381 0 0 0 526.176 70.75 A 48.056 48.056 0 0 0 529.769 67.255 Q 533.04 63.739 535.921 59.589 A 87.246 87.246 0 0 0 538.57 55.548 A 65.967 65.967 0 0 0 540.755 51.727 A 4.691 4.691 0 0 0 540.878 51.491 Q 541.199 50.827 541.199 50.25 A 2.02 2.02 0 0 0 541.195 50.116 A 2.582 2.582 0 0 0 541.168 49.876 Q 541.079 49.325 540.755 49.042 A 0.875 0.875 0 0 0 540.159 48.824 Q 540.053 48.824 539.938 48.845 A 1.723 1.723 0 0 0 539.73 48.895 Q 539.274 49.036 538.792 49.529 A 5.218 5.218 0 0 0 538.411 49.97 A 21.536 21.536 0 0 0 538.37 50.025 Q 538.109 50.376 537.355 51.41 A 886.639 886.639 0 0 0 536.947 51.972 Q 535.775 53.583 534.115 55.731 A 135.676 135.676 0 0 1 532.369 57.941 A 167.074 167.074 0 0 1 530.452 60.272 A 74.813 74.813 0 0 1 529.42 61.48 A 64.69 64.69 0 0 1 526.449 64.667 A 42.112 42.112 0 0 1 526.386 64.729 Q 524.418 66.689 522.591 67.987 A 12.688 12.688 0 0 1 522.443 68.091 Q 521.355 68.841 520.438 69.128 A 3.588 3.588 0 0 1 519.368 69.306 A 3.452 3.452 0 0 1 519.175 69.3 A 2.887 2.887 0 0 1 517.952 68.964 A 1.868 1.868 0 0 1 517.596 68.712 Q 517.189 68.349 516.878 67.694 A 4.649 4.649 0 0 1 516.815 67.554 Q 516.548 66.939 516.338 66.003 A 18.303 18.303 0 0 1 516.146 65.009 Q 515.944 63.8 515.789 62.038 A 81.091 81.091 0 0 1 515.658 60.321 A 289.652 289.652 0 0 0 516.17 59.601 A 385.004 385.004 0 0 0 516.732 58.807 A 8.401 8.401 0 0 0 517.006 58.392 Q 517.455 57.668 517.904 56.659 A 24.575 24.575 0 0 0 518.181 56.009 Q 518.414 55.44 518.655 54.782 A 49.169 49.169 0 0 0 519.124 53.436 A 42.759 42.759 0 0 0 519.425 52.498 Q 519.677 51.678 519.937 50.732 A 87.216 87.216 0 0 0 520.443 48.798 A 33.033 33.033 0 0 0 520.882 47.15 A 28.225 28.225 0 0 0 521.615 42.352 A 167.562 167.562 0 0 0 521.695 40.973 Q 521.773 39.551 521.798 38.544 A 35.498 35.498 0 0 0 521.81 37.665 A 0.994 0.994 0 0 0 521.515 36.931 Q 521.222 36.639 520.638 36.493 Q 520.412 36.437 520.137 36.396 A 7.927 7.927 0 0 0 519.71 36.347 A 3.749 3.749 0 0 0 519.572 36.337 Q 519.076 36.31 518.392 36.395 Q 516.439 36.493 515.56 37.03 Q 514.887 37.441 514.1 38.912 A 18.089 18.089 0 0 0 513.607 39.911 A 22.745 22.745 0 0 0 513.43 40.273 Q 513.055 41.058 512.591 42.163 A 80.769 80.769 0 0 0 512.191 43.134 A 39.081 39.081 0 0 0 511.385 45.319 A 52.381 52.381 0 0 0 510.628 47.772 Q 509.896 50.36 509.359 53.339 Q 508.822 56.317 508.822 59.442 Q 508.822 61.102 509.115 62.665 A 24.422 24.422 0 0 1 507.397 65.019 A 18.613 18.613 0 0 1 504.818 67.597 A 9.761 9.761 0 0 1 503.334 68.601 A 7.025 7.025 0 0 1 499.935 69.501 A 11.11 11.11 0 0 1 498.496 69.413 Q 495.778 69.058 494.759 67.255 Q 493.666 65.321 493.876 61.793 A 23.175 23.175 0 0 1 493.978 60.614 Q 494.112 59.271 494.57 57.329 A 55.876 55.876 0 0 1 495.052 55.438 A 71.741 71.741 0 0 1 495.225 54.823 Q 495.778 52.884 496.636 50.256 A 236.612 236.612 0 0 1 497.347 48.114 Q 498.482 44.745 500.249 40.112 A 403.227 403.227 0 0 1 501.497 36.884 A 4.414 4.414 0 0 0 500.891 36.705 A 5.143 5.143 0 0 0 499.788 36.591 A 16.353 16.353 0 0 0 497.982 36.688 A 132.019 132.019 0 0 0 497.451 36.786 A 115.161 115.161 0 0 0 495.931 37.079 A 7.147 7.147 0 0 0 491.976 39.96 A 16.484 16.484 0 0 0 490.766 42.089 A 20.92 20.92 0 0 0 489.681 44.891 A 2.972 2.972 0 0 0 489.661 44.942 Q 489.499 45.369 489.138 46.652 A 112.171 112.171 0 0 0 488.949 47.333 Q 488.411 49.286 487.728 52.069 A 58.718 58.718 0 0 0 487.205 54.411 A 72.862 72.862 0 0 0 486.556 58.124 A 47.607 47.607 0 0 0 486.288 60.234 A 39.636 39.636 0 0 0 486.068 64.325 A 10.364 10.364 0 0 0 486.068 64.436 Q 486.077 65.268 486.219 66.185 A 17.027 17.027 0 0 0 486.605 67.987 A 10.475 10.475 0 0 0 488.46 71.698 A 9.114 9.114 0 0 0 490.209 73.407 A 12.358 12.358 0 0 0 492.122 74.579 A 9.293 9.293 0 0 0 493.471 75.121 Q 494.526 75.456 495.787 75.612 Z M 742.269 55.789 A 126.445 126.445 0 0 0 743.001 54.755 A 14.832 14.832 0 0 0 743.049 54.69 Q 744.178 53.168 744.417 52.02 A 5.443 5.443 0 0 0 744.442 51.895 Q 744.64 50.817 744.271 50.263 A 1.309 1.309 0 0 0 744.237 50.214 Q 743.847 49.683 743.099 49.823 A 1.989 1.989 0 0 0 742.562 50.01 Q 742.049 50.272 741.536 50.849 Q 740.951 51.63 739.632 53.29 Q 738.891 54.224 738.041 55.312 A 452.476 452.476 0 0 0 736.654 57.099 A 147.566 147.566 0 0 1 735.808 58.182 A 170.056 170.056 0 0 1 733.089 61.542 A 117.618 117.618 0 0 1 731.222 63.739 A 95.297 95.297 0 0 1 729.427 65.741 Q 727.669 67.645 726.107 68.866 Q 724.544 70.087 723.568 70.087 Q 722.396 70.087 721.761 69.55 A 2.865 2.865 0 0 1 721.249 68.982 A 3.371 3.371 0 0 1 720.833 68.134 A 6.407 6.407 0 0 1 720.667 67.541 A 7.433 7.433 0 0 1 720.492 66.229 Q 720.443 65.204 720.54 64.325 L 721.029 61.884 L 721.37 60.175 L 721.663 58.71 A 67.659 67.659 0 0 1 721.822 57.941 A 89.496 89.496 0 0 1 722.005 57.099 A 1371.173 1371.173 0 0 0 722.207 56.169 Q 723.044 52.308 723.568 49.774 A 290.755 290.755 0 0 0 723.826 48.511 Q 724.093 47.193 724.282 46.185 A 86.451 86.451 0 0 0 724.447 45.282 Q 724.74 43.622 724.74 42.987 Q 724.74 42.501 724.682 42.273 A 0.574 0.574 0 0 0 724.642 42.157 Q 724.447 42.059 723.861 42.059 A 6.586 6.586 0 0 0 723.608 42.065 Q 723.155 42.082 722.445 42.157 A 14.328 14.328 0 0 0 721.89 42.227 Q 721.134 42.337 720.15 42.548 A 18.266 18.266 0 0 0 720.472 42.039 Q 722.164 39.265 721.761 37.518 A 6.024 6.024 0 0 0 721.473 36.598 A 4.377 4.377 0 0 0 719.954 34.638 A 8.298 8.298 0 0 0 719.232 34.222 Q 718.451 33.821 717.498 33.524 A 15.934 15.934 0 0 0 715.658 33.075 A 5.32 5.32 0 0 0 715.197 33.056 Q 713.07 33.056 709.993 34.638 A 20.767 20.767 0 0 0 709.271 35.027 Q 706.205 36.761 703.06 39.862 Q 699.544 43.329 696.566 48.212 A 33.971 33.971 0 0 0 695.632 49.843 A 36.78 36.78 0 0 0 692.22 59.052 A 37.291 37.291 0 0 0 691.999 60.008 Q 691.351 62.998 691.377 65.387 A 15.199 15.199 0 0 0 691.439 66.62 Q 691.732 69.794 692.806 71.796 A 10.861 10.861 0 0 0 692.865 71.904 Q 693.311 72.714 693.839 73.342 A 6.3 6.3 0 0 0 695.443 74.725 A 8.848 8.848 0 0 0 695.836 74.946 Q 696.422 75.255 696.979 75.428 A 4.668 4.668 0 0 0 698.372 75.653 A 19.729 19.729 0 0 0 698.967 75.604 A 21.21 21.21 0 0 0 704.232 74.384 A 16.331 16.331 0 0 0 704.772 74.165 Q 705.948 73.663 707.186 72.927 A 28.832 28.832 0 0 0 709.603 71.307 A 14.84 14.84 0 0 0 710.33 70.732 Q 712.739 68.701 714.779 65.302 A 26.982 26.982 0 0 0 714.771 65.54 Q 714.727 67.105 714.878 68.352 A 11.028 11.028 0 0 0 715.12 69.696 A 25.662 25.662 0 0 0 715.414 70.776 Q 715.564 71.279 715.718 71.709 A 10.965 10.965 0 0 0 716.048 72.528 Q 716.323 73.123 716.662 73.59 A 4.386 4.386 0 0 0 717.513 74.481 A 5.227 5.227 0 0 0 718.307 74.915 A 6.291 6.291 0 0 0 719.564 75.311 A 7.93 7.93 0 0 0 719.774 75.352 Q 720.853 75.547 722.054 75.458 Q 723.372 75.36 724.642 74.97 A 11.737 11.737 0 0 0 725.589 74.635 A 9.28 9.28 0 0 0 726.888 73.993 A 9.378 9.378 0 0 0 727.292 73.707 Q 728.206 73.025 729.372 71.858 A 41.001 41.001 0 0 0 730.55 70.624 A 87.881 87.881 0 0 0 732.212 68.761 A 106.191 106.191 0 0 0 735.042 65.35 A 228.204 228.204 0 0 0 739.486 59.589 Q 741.097 57.428 742.269 55.789 Z M 117.354 61.972 A 74.426 74.426 0 0 0 123.763 53.876 A 6.025 6.025 0 0 0 124.088 53.301 Q 124.253 52.966 124.342 52.657 A 2.476 2.476 0 0 0 124.447 51.972 A 2.612 2.612 0 0 0 124.428 51.65 Q 124.401 51.43 124.333 51.254 A 1.026 1.026 0 0 0 124.007 50.8 A 1.093 1.093 0 0 0 123.628 50.609 Q 123.378 50.539 123.068 50.569 A 2.336 2.336 0 0 0 122.835 50.604 A 1.888 1.888 0 0 0 122.424 50.738 Q 121.909 50.972 121.419 51.532 A 100.733 100.733 0 0 1 120.098 53.083 Q 119.388 53.901 118.577 54.805 A 206.023 206.023 0 0 1 116.488 57.099 A 77.803 77.803 0 0 1 110.042 63.3 A 53.055 53.055 0 0 1 108.519 64.561 A 46.157 46.157 0 0 1 102.962 68.378 A 20.524 20.524 0 0 1 102.656 68.552 Q 101.177 69.378 99.748 69.849 A 11.834 11.834 0 0 1 96.029 70.477 A 10.98 10.98 0 0 1 92.952 70.038 Q 91.439 69.599 90.267 68.573 A 7.162 7.162 0 0 1 89.193 67.389 A 9.218 9.218 0 0 1 88.314 65.888 Q 87.533 64.227 87.435 61.786 Q 88.259 61.182 89.237 60.5 A 134.254 134.254 0 0 1 90.853 59.393 A 987.321 987.321 0 0 0 92.855 58.038 A 1144.49 1144.49 0 0 0 94.954 56.61 Q 96.908 55.243 99.105 53.583 A 34.198 34.198 0 0 0 103.255 49.872 Q 105.208 47.821 106.624 45.282 Q 108.04 42.743 108.333 39.716 Q 108.359 39.35 108.352 39 A 5.793 5.793 0 0 0 106.868 35.126 A 4.84 4.84 0 0 0 105.247 33.954 Q 104.443 33.587 103.423 33.417 A 11.749 11.749 0 0 0 101.497 33.27 A 12.994 12.994 0 0 0 97.3 33.98 A 16.729 16.729 0 0 0 93.734 35.712 A 27.97 27.97 0 0 0 93.463 35.885 A 29.517 29.517 0 0 0 86.8 41.864 A 38.476 38.476 0 0 0 81.624 50.018 A 30.535 30.535 0 0 0 80.072 53.955 A 22.454 22.454 0 0 0 79.134 58.466 Q 78.837 61.441 79.174 63.873 A 14.512 14.512 0 0 0 79.867 66.766 A 18.563 18.563 0 0 0 81.094 69.514 A 13.567 13.567 0 0 0 83.138 72.333 A 15.347 15.347 0 0 0 83.989 73.159 A 12.815 12.815 0 0 0 87.679 75.507 Q 88.866 75.995 89.975 76.251 A 10.421 10.421 0 0 0 92.318 76.532 A 18.385 18.385 0 0 0 96.348 76.074 A 23.122 23.122 0 0 0 100.765 74.579 A 39.217 39.217 0 0 0 103.194 73.384 A 44.803 44.803 0 0 0 109.261 69.452 A 60.473 60.473 0 0 0 117.122 62.225 A 81.265 81.265 0 0 0 117.354 61.972 Z M 312.08 61.972 A 74.426 74.426 0 0 0 318.49 53.876 A 6.025 6.025 0 0 0 318.815 53.301 Q 318.98 52.966 319.069 52.657 A 2.476 2.476 0 0 0 319.173 51.972 A 2.612 2.612 0 0 0 319.154 51.65 Q 319.127 51.43 319.06 51.254 A 1.026 1.026 0 0 0 318.734 50.8 A 1.093 1.093 0 0 0 318.354 50.609 Q 318.104 50.539 317.794 50.569 A 2.336 2.336 0 0 0 317.562 50.604 A 1.888 1.888 0 0 0 317.151 50.738 Q 316.636 50.972 316.146 51.532 A 100.733 100.733 0 0 1 314.825 53.083 Q 314.115 53.901 313.304 54.805 A 206.023 206.023 0 0 1 311.214 57.099 A 77.803 77.803 0 0 1 304.769 63.3 A 53.055 53.055 0 0 1 303.245 64.561 A 46.157 46.157 0 0 1 297.689 68.378 A 20.524 20.524 0 0 1 297.382 68.552 Q 295.904 69.378 294.474 69.849 A 11.834 11.834 0 0 1 290.755 70.477 A 10.98 10.98 0 0 1 287.679 70.038 Q 286.165 69.599 284.993 68.573 A 7.162 7.162 0 0 1 283.919 67.389 A 9.218 9.218 0 0 1 283.04 65.888 Q 282.259 64.227 282.161 61.786 Q 282.985 61.182 283.964 60.5 A 134.254 134.254 0 0 1 285.579 59.393 A 987.321 987.321 0 0 0 287.581 58.038 A 1144.49 1144.49 0 0 0 289.681 56.61 Q 291.634 55.243 293.831 53.583 A 34.198 34.198 0 0 0 297.982 49.872 Q 299.935 47.821 301.351 45.282 Q 302.767 42.743 303.06 39.716 Q 303.086 39.35 303.079 39 A 5.793 5.793 0 0 0 301.595 35.126 A 4.84 4.84 0 0 0 299.973 33.954 Q 299.17 33.587 298.149 33.417 A 11.749 11.749 0 0 0 296.224 33.27 A 12.994 12.994 0 0 0 292.027 33.98 A 16.729 16.729 0 0 0 288.46 35.712 A 27.97 27.97 0 0 0 288.19 35.885 A 29.517 29.517 0 0 0 281.527 41.864 A 38.476 38.476 0 0 0 276.351 50.018 A 30.535 30.535 0 0 0 274.799 53.955 A 22.454 22.454 0 0 0 273.861 58.466 Q 273.563 61.441 273.9 63.873 A 14.512 14.512 0 0 0 274.593 66.766 A 18.563 18.563 0 0 0 275.82 69.514 A 13.567 13.567 0 0 0 277.865 72.333 A 15.347 15.347 0 0 0 278.716 73.159 A 12.815 12.815 0 0 0 282.406 75.507 Q 283.592 75.995 284.701 76.251 A 10.421 10.421 0 0 0 287.044 76.532 A 18.385 18.385 0 0 0 291.075 76.074 A 23.122 23.122 0 0 0 295.492 74.579 A 39.217 39.217 0 0 0 297.921 73.384 A 44.803 44.803 0 0 0 303.988 69.452 A 60.473 60.473 0 0 0 311.849 62.225 A 81.265 81.265 0 0 0 312.08 61.972 Z M 377.315 61.972 A 74.426 74.426 0 0 0 383.724 53.876 A 6.025 6.025 0 0 0 384.049 53.301 Q 384.214 52.966 384.303 52.657 A 2.476 2.476 0 0 0 384.408 51.972 A 2.612 2.612 0 0 0 384.389 51.65 Q 384.362 51.43 384.294 51.254 A 1.026 1.026 0 0 0 383.968 50.8 A 1.093 1.093 0 0 0 383.589 50.609 Q 383.339 50.539 383.029 50.569 A 2.336 2.336 0 0 0 382.796 50.604 A 1.888 1.888 0 0 0 382.385 50.738 Q 381.87 50.972 381.38 51.532 A 100.733 100.733 0 0 1 380.059 53.083 Q 379.349 53.901 378.538 54.805 A 206.023 206.023 0 0 1 376.449 57.099 A 77.803 77.803 0 0 1 370.003 63.3 A 53.055 53.055 0 0 1 368.48 64.561 A 46.157 46.157 0 0 1 362.923 68.378 A 20.524 20.524 0 0 1 362.617 68.552 Q 361.138 69.378 359.709 69.849 A 11.834 11.834 0 0 1 355.99 70.477 A 10.98 10.98 0 0 1 352.913 70.038 Q 351.4 69.599 350.228 68.573 A 7.162 7.162 0 0 1 349.154 67.389 A 9.218 9.218 0 0 1 348.275 65.888 Q 347.493 64.227 347.396 61.786 Q 348.22 61.182 349.198 60.5 A 134.254 134.254 0 0 1 350.814 59.393 A 987.321 987.321 0 0 0 352.816 58.038 A 1144.49 1144.49 0 0 0 354.915 56.61 Q 356.868 55.243 359.066 53.583 A 34.198 34.198 0 0 0 363.216 49.872 Q 365.169 47.821 366.585 45.282 Q 368.001 42.743 368.294 39.716 Q 368.32 39.35 368.313 39 A 5.793 5.793 0 0 0 366.829 35.126 A 4.84 4.84 0 0 0 365.207 33.954 Q 364.404 33.587 363.384 33.417 A 11.749 11.749 0 0 0 361.458 33.27 A 12.994 12.994 0 0 0 357.261 33.98 A 16.729 16.729 0 0 0 353.695 35.712 A 27.97 27.97 0 0 0 353.424 35.885 A 29.517 29.517 0 0 0 346.761 41.864 A 38.476 38.476 0 0 0 341.585 50.018 A 30.535 30.535 0 0 0 340.033 53.955 A 22.454 22.454 0 0 0 339.095 58.466 Q 338.798 61.441 339.135 63.873 A 14.512 14.512 0 0 0 339.827 66.766 A 18.563 18.563 0 0 0 341.054 69.514 A 13.567 13.567 0 0 0 343.099 72.333 A 15.347 15.347 0 0 0 343.95 73.159 A 12.815 12.815 0 0 0 347.64 75.507 Q 348.827 75.995 349.936 76.251 A 10.421 10.421 0 0 0 352.279 76.532 A 18.385 18.385 0 0 0 356.309 76.074 A 23.122 23.122 0 0 0 360.726 74.579 A 39.217 39.217 0 0 0 363.155 73.384 A 44.803 44.803 0 0 0 369.222 69.452 A 60.473 60.473 0 0 0 377.083 62.225 A 81.265 81.265 0 0 0 377.315 61.972 Z M 464.681 70.868 A 2.194 2.194 0 0 0 465.375 71.167 Q 465.744 71.259 466.195 71.259 A 4.65 4.65 0 0 0 467.76 70.981 A 5.44 5.44 0 0 0 468.05 70.868 A 7.017 7.017 0 0 0 469.651 69.919 A 7.91 7.91 0 0 0 469.808 69.794 A 3.971 3.971 0 0 0 470.991 68.136 A 4.719 4.719 0 0 0 471.029 68.036 A 3.027 3.027 0 0 0 471.169 67.482 Q 471.305 66.636 471.106 65.394 A 12.937 12.937 0 0 0 471.029 64.96 A 25.745 25.745 0 0 0 470.47 62.683 A 33.703 33.703 0 0 0 469.808 60.663 A 104.323 104.323 0 0 0 468.001 56.024 A 92.937 92.937 0 0 1 467.098 53.778 A 68.412 68.412 0 0 1 466.341 51.727 A 40.455 40.455 0 0 1 465.804 50.311 A 31.256 31.256 0 0 1 465.365 48.993 A 82.561 82.561 0 0 1 464.654 46.958 A 75.05 75.05 0 0 1 464.632 46.893 A 29.91 29.91 0 0 0 464.471 46.421 Q 464.247 45.785 464.102 45.491 A 2.579 2.579 0 0 0 464.095 45.477 Q 463.645 46.197 462.575 47.745 A 191.938 191.938 0 0 1 462.386 48.016 A 129.099 129.099 0 0 1 461.117 49.811 A 150.735 150.735 0 0 1 459.749 51.679 A 177.26 177.26 0 0 1 458.37 53.51 A 142.494 142.494 0 0 1 457.064 55.194 A 319.357 319.357 0 0 1 456.512 55.893 Q 455.875 56.697 455.506 57.148 A 31.439 31.439 0 0 1 455.306 57.391 Q 454.821 57.937 454.355 58.201 A 1.906 1.906 0 0 1 453.792 58.417 Q 453.609 58.453 453.441 58.453 A 1.257 1.257 0 0 1 452.572 58.124 A 1.539 1.539 0 0 1 452.135 57.427 Q 452.059 57.189 452.038 56.903 A 2.937 2.937 0 0 1 452.035 56.854 Q 451.988 56.057 452.707 54.943 A 7.678 7.678 0 0 1 452.767 54.852 A 32.037 32.037 0 0 0 453.097 54.404 Q 453.618 53.682 454.438 52.489 A 201.496 201.496 0 0 0 454.525 52.362 Q 455.697 50.653 456.868 48.847 A 163.742 163.742 0 0 1 457.958 47.188 Q 458.513 46.354 459.017 45.624 A 53.948 53.948 0 0 0 459.352 45.132 Q 460.012 44.153 460.091 43.915 A 1.415 1.415 0 0 0 460.132 43.612 Q 460.151 42.946 459.627 41.994 A 7.325 7.325 0 0 0 459.554 41.864 A 3.272 3.272 0 0 1 459.115 40.2 Q 459.115 39.599 459.31 38.934 A 6.364 6.364 0 0 1 459.694 37.943 Q 460.17 36.946 461.068 35.761 A 18.012 18.012 0 0 1 464.29 32.489 Q 466.146 31.024 468.099 30.292 A 5.851 5.851 0 0 1 469.021 30.026 Q 470.43 29.748 471.615 30.341 A 9.969 9.969 0 0 1 472.697 31.105 A 7.277 7.277 0 0 1 473.665 32.05 Q 474.29 32.792 474.29 33.565 A 1.978 1.978 0 0 1 474.251 33.954 Q 474.065 34.42 473.701 35.153 A 33.981 33.981 0 0 1 473.665 35.224 Q 473.403 35.748 472.964 36.428 A 24.732 24.732 0 0 1 472.493 37.128 A 25.32 25.32 0 0 1 471.938 37.892 Q 471.254 38.8 470.247 40.009 A 30.687 30.687 0 0 0 470.654 42.412 A 24.151 24.151 0 0 0 471.077 44.11 Q 471.51 45.603 471.91 46.78 A 39.182 39.182 0 0 0 472.103 47.333 A 28.871 28.871 0 0 0 472.833 49.201 A 23.345 23.345 0 0 0 473.372 50.36 A 192.8 192.8 0 0 0 474.985 53.511 A 212.379 212.379 0 0 0 475.228 53.974 A 53.887 53.887 0 0 1 476.787 57.183 A 49.033 49.033 0 0 1 476.986 57.636 A 39.473 39.473 0 0 1 477.694 59.381 A 29.939 29.939 0 0 1 478.255 61.005 A 8.953 8.953 0 0 1 478.468 61.807 Q 478.669 62.753 478.573 63.486 A 3.252 3.252 0 0 1 478.548 63.641 A 7.52 7.52 0 0 1 478.214 64.864 Q 477.775 66.088 476.868 67.597 A 24.566 24.566 0 0 1 476.839 67.645 Q 475.423 69.989 473.324 72.186 Q 471.224 74.384 468.538 75.946 A 11.284 11.284 0 0 1 464.507 77.392 A 10.716 10.716 0 0 1 462.923 77.509 A 6.78 6.78 0 0 1 459.718 76.687 A 8.576 8.576 0 0 1 458.968 76.239 A 13.554 13.554 0 0 1 455.998 73.577 A 12.736 12.736 0 0 1 455.745 73.261 A 15.615 15.615 0 0 1 454.613 71.59 A 11.627 11.627 0 0 1 453.792 69.891 A 6.853 6.853 0 0 1 453.595 69.303 Q 453.342 68.403 453.485 67.779 A 1.612 1.612 0 0 1 453.646 67.352 Q 454.04 66.565 454.389 65.998 A 8.918 8.918 0 0 1 454.72 65.497 Q 455.048 65.038 455.597 64.49 A 15.718 15.718 0 0 1 456.185 63.934 A 15.466 15.466 0 0 1 456.505 63.701 Q 456.65 63.598 456.814 63.485 A 31.572 31.572 0 0 1 457.161 63.251 A 4.211 4.211 0 0 1 457.505 63.068 Q 457.897 62.88 458.449 62.692 A 13.516 13.516 0 0 1 458.529 62.665 L 460.579 61.981 Q 461.462 64.716 462.184 66.375 A 21.006 21.006 0 0 0 462.337 66.718 Q 462.935 68.026 463.362 68.905 A 46.34 46.34 0 0 0 463.607 69.403 A 10.096 10.096 0 0 0 463.894 69.898 Q 464.212 70.409 464.498 70.701 A 2.061 2.061 0 0 0 464.681 70.868 Z M 634.026 65.19 A 34.13 34.13 0 0 0 636.458 58.661 A 26.465 26.465 0 0 0 639.461 57.44 A 35.734 35.734 0 0 0 642.611 55.731 A 81.255 81.255 0 0 0 644.24 54.718 A 70.181 70.181 0 0 0 648.568 51.727 A 108.656 108.656 0 0 0 649.322 51.156 Q 650.432 50.309 651.412 49.513 A 64.445 64.445 0 0 0 653.304 47.919 A 104.52 104.52 0 0 0 653.318 47.907 Q 655.308 46.159 655.794 45.575 A 7.924 7.924 0 0 0 656.237 44.982 Q 656.472 44.634 656.626 44.309 A 3.259 3.259 0 0 0 656.868 43.622 Q 657.064 42.743 656.771 42.255 A 0.789 0.789 0 0 0 656.334 41.896 Q 656.104 41.82 655.794 41.864 Q 655.292 41.936 654.632 42.429 A 7.117 7.117 0 0 0 654.134 42.841 Q 653.393 43.582 652.338 44.441 A 42.2 42.2 0 0 1 651.009 45.477 A 50.931 50.931 0 0 1 649.883 46.298 A 59.142 59.142 0 0 1 646.761 48.358 Q 644.466 49.774 642.025 51.044 A 54.908 54.908 0 0 1 640.221 51.941 A 45.073 45.073 0 0 1 637.337 53.192 A 35.523 35.523 0 0 0 637.398 52.671 Q 637.429 52.393 637.459 52.082 A 72 72 0 0 0 637.533 51.288 Q 637.594 50.586 637.616 50.018 A 15.825 15.825 0 0 0 637.63 49.384 Q 637.63 47.479 637.313 45.856 A 12.546 12.546 0 0 0 636.361 42.89 A 17.806 17.806 0 0 0 635.287 40.933 A 13.763 13.763 0 0 0 633.285 38.446 A 15.856 15.856 0 0 0 631.685 37.076 A 11.944 11.944 0 0 0 629.574 35.809 A 19.58 19.58 0 0 0 629.494 35.773 Q 627.643 34.929 626.4 34.833 A 11.014 11.014 0 0 1 626.119 34.735 A 8.655 8.655 0 0 1 625.863 34.638 A 1.31 1.31 0 0 0 625.671 34.578 A 1.53 1.53 0 0 0 625.326 34.54 A 14.381 14.381 0 0 0 624.441 34.567 A 16.14 16.14 0 0 0 621.712 34.979 Q 619.857 35.419 618.245 36.249 Q 616.634 37.079 615.413 38.349 A 8.041 8.041 0 0 0 613.607 41.278 Q 611.947 43.231 610.726 45.575 A 35.326 35.326 0 0 0 610.428 46.161 A 31.773 31.773 0 0 0 608.724 50.263 A 40.673 40.673 0 0 0 608.443 51.138 A 36.185 36.185 0 0 0 607.503 54.852 A 29.302 29.302 0 0 0 607.496 54.887 Q 607.282 55.991 607.174 57.001 A 18.362 18.362 0 0 0 607.064 58.954 A 62.062 62.062 0 0 0 607.101 61.074 A 76.795 76.795 0 0 0 607.308 64.618 A 19.409 19.409 0 0 0 607.432 65.748 A 16.596 16.596 0 0 0 608.675 70.184 Q 609.798 72.724 612.093 74.432 Q 613.635 75.581 615.948 75.957 A 15.224 15.224 0 0 0 618.392 76.141 A 17.223 17.223 0 0 0 619.238 76.121 A 14.715 14.715 0 0 0 624.691 74.823 A 17.245 17.245 0 0 0 629.867 71.161 A 20.802 20.802 0 0 0 631.304 69.528 A 24.005 24.005 0 0 0 633.822 65.595 A 31.717 31.717 0 0 0 634.026 65.19 Z M 60.091 37.47 Q 60.579 36.884 61.947 36.493 A 25.652 25.652 0 0 1 64.779 35.858 A 25.132 25.132 0 0 1 66.182 35.663 A 18.749 18.749 0 0 1 67.464 35.565 A 25.436 25.436 0 0 1 67.661 35.558 Q 68.659 35.526 68.864 35.607 A 0.2 0.2 0 0 1 68.88 35.614 A 0.049 0.049 0 0 1 68.891 35.639 Q 68.928 35.828 68.531 37.195 A 56.378 56.378 0 0 1 68.392 37.665 Q 67.989 39.008 67.448 40.674 A 220.067 220.067 0 0 1 66.927 42.255 A 362.977 362.977 0 0 1 65.193 47.327 A 396.335 396.335 0 0 1 65.072 47.675 A 123.801 123.801 0 0 0 64.614 49.002 Q 64.063 50.631 63.715 51.834 A 37.349 37.349 0 0 0 63.607 52.216 Q 63.151 53.857 62.525 55.881 A 185.399 185.399 0 0 1 62.435 56.171 A 87.832 87.832 0 0 0 61.282 60.205 A 80.278 80.278 0 0 0 61.214 60.468 A 30.607 30.607 0 0 0 60.718 62.752 A 24.435 24.435 0 0 0 60.482 64.423 A 10.61 10.61 0 0 0 60.44 64.935 Q 60.375 66.082 60.611 66.843 A 2.723 2.723 0 0 0 60.775 67.255 A 6.971 6.971 0 0 0 61.057 67.856 Q 61.428 68.55 61.849 68.866 A 2.203 2.203 0 0 0 62.539 69.221 A 2.006 2.006 0 0 0 63.118 69.306 A 4.744 4.744 0 0 0 64.502 69.077 Q 66.043 68.605 68.05 67.157 A 50.229 50.229 0 0 0 71.622 64.313 A 63.253 63.253 0 0 0 74.105 62.03 A 89.873 89.873 0 0 0 79.652 56.168 A 82.815 82.815 0 0 0 79.818 55.975 A 113.258 113.258 0 0 0 81.051 54.514 Q 82.368 52.923 83.235 51.734 A 28.155 28.155 0 0 0 83.724 51.044 A 5.466 5.466 0 0 1 84.265 50.455 Q 84.79 49.967 85.335 49.774 Q 86.002 49.539 86.48 49.745 A 1.153 1.153 0 0 1 86.702 49.872 Q 87.24 50.263 87.288 51.141 Q 87.325 51.802 86.948 52.627 A 6.383 6.383 0 0 1 86.654 53.192 A 33.529 33.529 0 0 1 85.406 55.193 Q 84.728 56.206 83.893 57.329 A 78.12 78.12 0 0 1 82.064 59.686 A 96.422 96.422 0 0 1 75.618 66.913 Q 72.201 70.38 68.929 72.821 A 23.153 23.153 0 0 1 67.37 73.895 Q 65.145 75.287 63.607 75.36 Q 61.947 75.458 60.335 74.823 A 10.321 10.321 0 0 1 57.406 73.065 A 10.096 10.096 0 0 1 55.208 70.429 A 7.104 7.104 0 0 1 54.247 67.462 A 6.977 6.977 0 0 1 54.232 67.255 Q 53.959 64.985 54.193 61.154 A 75.246 75.246 0 0 1 54.232 60.565 A 82.834 82.834 0 0 1 55.21 52.429 A 90.536 90.536 0 0 1 55.306 51.874 A 72.796 72.796 0 0 1 56.866 44.944 A 65.166 65.166 0 0 1 57.308 43.427 A 30.598 30.598 0 0 1 58.099 41.138 Q 58.942 39 59.922 37.689 A 8.459 8.459 0 0 1 60.091 37.47 Z M 660.384 68.915 A 7.423 7.423 0 0 0 664.242 67.841 Q 666.048 66.766 667.513 65.35 A 19.475 19.475 0 0 0 669.006 63.742 A 15.638 15.638 0 0 0 669.954 62.47 A 64.567 64.567 0 0 0 670.412 61.774 Q 671.053 60.785 671.419 60.126 Q 671.81 59.247 672.347 57.782 A 22.182 22.182 0 0 0 672.97 55.815 A 18.829 18.829 0 0 0 673.177 54.95 A 12.26 12.26 0 0 0 673.357 53.899 Q 673.45 53.151 673.421 52.509 Q 673.399 52.03 673.252 51.746 A 0.721 0.721 0 0 0 672.689 51.337 A 1.112 1.112 0 0 1 672.028 50.96 Q 671.898 50.814 671.791 50.614 A 2.348 2.348 0 0 1 671.761 50.556 A 6.08 6.08 0 0 1 671.423 49.725 A 7.799 7.799 0 0 1 671.224 48.993 Q 671.029 48.114 670.98 47.235 Q 670.938 46.48 670.86 45.869 A 13.284 13.284 0 0 0 670.833 45.673 A 20.396 20.396 0 0 0 670.505 43.897 Q 670.088 42.124 669.415 41.047 A 5.028 5.028 0 0 0 669.173 40.692 A 5.12 5.12 0 0 0 668.452 39.902 Q 667.961 39.474 667.425 39.283 A 2.628 2.628 0 0 0 666.536 39.13 A 6.279 6.279 0 0 0 663.33 40.032 A 8.963 8.963 0 0 0 661.898 41.083 A 16.927 16.927 0 0 0 659.52 43.717 A 22.35 22.35 0 0 0 657.992 46.112 A 28.946 28.946 0 0 0 655.595 51.832 A 32.775 32.775 0 0 0 655.306 52.85 A 29.438 29.438 0 0 0 654.491 57.079 A 24.164 24.164 0 0 0 654.329 59.833 A 23.422 23.422 0 0 0 654.465 62.435 Q 654.728 64.781 655.501 66.425 A 4.043 4.043 0 0 0 658.133 68.621 Q 659.108 68.915 660.384 68.915 Z M 714.388 59.052 Q 714.876 57.099 715.56 54.462 A 95.919 95.919 0 0 0 716.475 50.617 A 83.754 83.754 0 0 0 716.732 49.384 Q 717.196 47.064 717.439 45.493 A 47.197 47.197 0 0 0 717.464 45.331 A 12.147 12.147 0 0 0 717.505 45.037 Q 717.67 43.734 717.32 43.817 A 0.21 0.21 0 0 0 717.318 43.817 A 7.671 7.671 0 0 0 716.805 43.939 Q 716.541 44.011 716.253 44.107 A 12.243 12.243 0 0 0 716.243 44.11 A 3.552 3.552 0 0 1 715.837 44.243 Q 715.626 44.299 715.38 44.342 A 8.021 8.021 0 0 1 714.974 44.403 Q 714.193 44.501 713.411 44.696 A 15.075 15.075 0 0 0 713.838 43.772 Q 714.238 42.813 714.339 42.108 A 10.215 10.215 0 0 0 714.393 41.669 Q 714.464 40.951 714.388 40.497 Q 714.29 39.813 713.997 39.423 A 1.088 1.088 0 0 0 713.318 39.18 Q 712.214 39.15 710.238 40.839 A 14.973 14.973 0 0 0 708.661 42.435 Q 707.076 44.271 705.245 47.246 A 72.937 72.937 0 0 0 704.036 49.286 Q 702.572 51.825 701.693 54.706 A 38.243 38.243 0 0 0 700.874 57.839 A 29.982 29.982 0 0 0 700.472 60.126 A 25.688 25.688 0 0 0 700.309 61.677 Q 700.21 63.032 700.291 64.173 A 12.813 12.813 0 0 0 700.326 64.569 A 10.992 10.992 0 0 0 700.439 65.389 Q 700.578 66.165 700.81 66.629 A 1.64 1.64 0 0 0 701.107 67.059 A 3.758 3.758 0 0 0 702.004 67.734 Q 702.671 68.087 703.43 68.087 A 3.315 3.315 0 0 0 703.548 68.085 A 6.046 6.046 0 0 0 705.364 67.726 A 7.782 7.782 0 0 0 706.331 67.304 A 14.761 14.761 0 0 0 708.101 66.216 A 18.332 18.332 0 0 0 709.163 65.399 A 23.278 23.278 0 0 0 711.234 63.47 A 20.675 20.675 0 0 0 711.702 62.958 Q 712.826 61.688 713.558 60.614 A 13.713 13.713 0 0 0 713.866 60.143 Q 714.281 59.477 714.375 59.108 A 1.097 1.097 0 0 0 714.388 59.052 Z M 655.892 114.227 A 2.589 2.589 0 0 0 657.711 113.461 Q 658.117 113.079 658.474 112.506 A 8.376 8.376 0 0 0 659.066 111.347 Q 660.286 108.466 661.654 103.485 A 335.33 335.33 0 0 0 661.815 102.835 Q 662.081 101.764 662.484 100.116 A 315.883 315.883 0 0 1 662.991 98.072 Q 663.341 96.68 663.753 95.087 A 304.369 304.369 0 0 0 664.498 92.145 A 375.187 375.187 0 0 0 665.267 88.983 Q 666.048 85.712 666.927 82.391 Q 666.146 83.075 665.316 83.807 Q 664.486 84.54 663.607 85.516 Q 661.458 87.567 659.456 89.472 A 31.455 31.455 0 0 0 655.941 93.41 A 29.178 29.178 0 0 0 655.892 93.475 A 18.693 18.693 0 0 0 653.402 98.016 A 13.717 13.717 0 0 0 652.678 100.831 Q 652.474 102.17 652.474 103.681 Q 652.474 106.903 652.718 108.954 Q 652.962 111.005 653.402 112.177 Q 653.841 113.349 654.476 113.788 A 2.431 2.431 0 0 0 655.892 114.227 Z M 199.349 55.341 A 69.407 69.407 0 0 0 198.912 56.896 Q 198.626 57.962 198.324 59.198 Q 197.786 61.395 197.103 64.423 A 5.57 5.57 0 0 1 198.861 63.544 Q 199.837 63.251 200.814 63.251 A 2.753 2.753 0 0 1 201.572 63.369 Q 202.272 63.571 203.152 64.116 A 12.039 12.039 0 0 1 203.548 64.374 A 36.638 36.638 0 0 0 204.889 65.237 Q 205.713 65.743 206.663 66.276 A 67.012 67.012 0 0 0 207.552 66.766 A 71.227 71.227 0 0 0 209.054 64.899 A 92.534 92.534 0 0 0 210.628 62.811 Q 212.24 60.614 213.558 58.27 A 35.409 35.409 0 0 0 215.804 53.485 A 16.725 16.725 0 0 0 216.57 50.873 A 13.344 13.344 0 0 0 216.829 48.798 A 15.959 15.959 0 0 0 216.862 48.054 Q 216.898 46.254 216.478 44.993 A 5.148 5.148 0 0 0 216.146 44.208 Q 215.267 42.548 213.216 42.548 A 6.178 6.178 0 0 0 210.769 43.092 Q 208.922 43.886 206.899 45.842 A 22.959 22.959 0 0 0 206.624 46.112 Q 203.58 49.156 200.43 53.731 A 84.013 84.013 0 0 0 199.349 55.341 Z M 613.704 61.005 A 30.509 30.509 0 0 0 613.9 64.472 A 11.766 11.766 0 0 0 614.205 66.13 A 9.012 9.012 0 0 0 614.681 67.499 A 6.45 6.45 0 0 0 615.464 68.828 A 5.411 5.411 0 0 0 616.243 69.647 A 3.399 3.399 0 0 0 617.767 70.377 A 4.885 4.885 0 0 0 618.783 70.477 A 6.423 6.423 0 0 0 622.005 69.647 A 10.332 10.332 0 0 0 624.642 67.499 A 15.494 15.494 0 0 0 626.262 65.302 A 18.071 18.071 0 0 0 626.742 64.472 A 27.088 27.088 0 0 0 628.353 60.907 Q 627.669 61.005 627.035 61.054 A 15.928 15.928 0 0 1 626.363 61.09 A 21.644 21.644 0 0 1 625.618 61.102 A 10.483 10.483 0 0 1 621.965 60.482 A 9.496 9.496 0 0 1 619.222 58.905 A 14.317 14.317 0 0 1 615.357 53.92 A 16.852 16.852 0 0 1 615.072 53.29 A 51.636 51.636 0 0 0 614.196 56.804 A 46.615 46.615 0 0 0 614.095 57.294 A 20.338 20.338 0 0 0 613.759 59.659 A 16.877 16.877 0 0 0 613.704 61.005 Z M 98.763 38.837 Q 97.591 38.837 95.98 40.009 A 11.218 11.218 0 0 0 94.579 41.23 Q 93.936 41.885 93.302 42.708 A 21.35 21.35 0 0 0 92.806 43.378 A 23.96 23.96 0 0 0 91.384 45.652 Q 90.725 46.842 90.105 48.229 A 40.985 40.985 0 0 0 89.876 48.749 A 27.789 27.789 0 0 0 88.57 52.555 A 36.781 36.781 0 0 0 87.826 56.024 A 61.721 61.721 0 0 1 89.367 54.907 A 73.861 73.861 0 0 1 90.365 54.218 A 48.591 48.591 0 0 0 93.099 52.216 A 48.702 48.702 0 0 0 95.368 50.371 Q 97.791 48.268 98.958 46.552 A 17.005 17.005 0 0 0 99.815 45.162 Q 100.612 43.706 100.789 42.539 A 4.708 4.708 0 0 0 100.814 42.352 A 9.293 9.293 0 0 0 100.85 41.905 Q 100.911 40.839 100.673 40.163 A 2.011 2.011 0 0 0 100.423 39.667 A 1.868 1.868 0 0 0 99.071 38.855 A 2.523 2.523 0 0 0 98.763 38.837 Z M 293.49 38.837 Q 292.318 38.837 290.706 40.009 A 11.218 11.218 0 0 0 289.306 41.23 Q 288.663 41.885 288.028 42.708 A 21.35 21.35 0 0 0 287.533 43.378 A 23.96 23.96 0 0 0 286.111 45.652 Q 285.451 46.842 284.831 48.229 A 40.985 40.985 0 0 0 284.603 48.749 A 27.789 27.789 0 0 0 283.296 52.555 A 36.781 36.781 0 0 0 282.552 56.024 A 61.721 61.721 0 0 1 284.093 54.907 A 73.861 73.861 0 0 1 285.091 54.218 A 48.591 48.591 0 0 0 287.826 52.216 A 48.702 48.702 0 0 0 290.095 50.371 Q 292.518 48.268 293.685 46.552 A 17.005 17.005 0 0 0 294.542 45.162 Q 295.339 43.706 295.516 42.539 A 4.708 4.708 0 0 0 295.54 42.352 A 9.293 9.293 0 0 0 295.577 41.905 Q 295.637 40.839 295.4 40.163 A 2.011 2.011 0 0 0 295.15 39.667 A 1.868 1.868 0 0 0 293.798 38.855 A 2.523 2.523 0 0 0 293.49 38.837 Z M 358.724 38.837 Q 357.552 38.837 355.941 40.009 A 11.218 11.218 0 0 0 354.54 41.23 Q 353.897 41.885 353.263 42.708 A 21.35 21.35 0 0 0 352.767 43.378 A 23.96 23.96 0 0 0 351.345 45.652 Q 350.686 46.842 350.066 48.229 A 40.985 40.985 0 0 0 349.837 48.749 A 27.789 27.789 0 0 0 348.531 52.555 A 36.781 36.781 0 0 0 347.786 56.024 A 61.721 61.721 0 0 1 349.328 54.907 A 73.861 73.861 0 0 1 350.326 54.218 A 48.591 48.591 0 0 0 353.06 52.216 A 48.702 48.702 0 0 0 355.329 50.371 Q 357.752 48.268 358.919 46.552 A 17.005 17.005 0 0 0 359.776 45.162 Q 360.573 43.706 360.75 42.539 A 4.708 4.708 0 0 0 360.775 42.352 A 9.293 9.293 0 0 0 360.811 41.905 Q 360.872 40.839 360.634 40.163 A 2.011 2.011 0 0 0 360.384 39.667 A 1.868 1.868 0 0 0 359.032 38.855 A 2.523 2.523 0 0 0 358.724 38.837 Z M 619.954 43.817 A 5.827 5.827 0 0 0 619.661 45.665 A 6.611 6.611 0 0 0 619.661 45.673 A 27.82 27.82 0 0 0 619.771 48.099 A 32.157 32.157 0 0 0 619.857 48.944 A 8.318 8.318 0 0 0 620.384 51.086 A 7.389 7.389 0 0 0 620.833 52.02 A 5.37 5.37 0 0 0 622.067 53.472 A 7.583 7.583 0 0 0 623.324 54.315 A 6.574 6.574 0 0 0 624.791 54.881 Q 625.522 55.073 626.399 55.163 A 16.261 16.261 0 0 0 628.06 55.243 A 9.808 9.808 0 0 0 629.036 55.194 A 10.103 10.103 0 0 0 630.013 55.048 A 400.206 400.206 0 0 1 630.294 53.839 A 291.5 291.5 0 0 1 630.55 52.753 A 10.324 10.324 0 0 0 630.708 51.96 Q 630.767 51.582 630.786 51.244 A 5.454 5.454 0 0 0 630.794 50.946 Q 630.99 49.091 630.794 47.138 A 18.097 18.097 0 0 0 630.466 45.048 A 14.562 14.562 0 0 0 630.062 43.573 A 10.488 10.488 0 0 0 629.557 42.318 Q 629.246 41.677 628.871 41.166 A 6.04 6.04 0 0 0 628.695 40.936 A 3.058 3.058 0 0 0 628.032 40.317 A 2.343 2.343 0 0 0 626.693 39.911 A 6.743 6.743 0 0 0 623.45 40.753 A 8.095 8.095 0 0 0 623.128 40.936 A 10.699 10.699 0 0 0 621.185 42.447 A 13.97 13.97 0 0 0 619.954 43.817 Z M 73.011 17.96 A 5.214 5.214 0 0 0 73.568 16.669 A 5.72 5.72 0 0 0 73.756 15.778 Q 73.84 15.148 73.812 14.423 Q 73.763 13.153 73.372 12.128 A 4.829 4.829 0 0 0 73.141 11.611 A 3.854 3.854 0 0 0 72.249 10.468 A 1.951 1.951 0 0 0 70.929 9.982 Q 70.695 9.982 70.443 10.028 A 2.965 2.965 0 0 0 70.308 10.056 Q 69.604 10.218 68.739 10.762 A 11.003 11.003 0 0 0 67.904 11.347 Q 66.439 12.47 65.462 14.081 A 6.986 6.986 0 0 0 65.448 14.104 Q 64.574 15.558 64.574 17.172 A 6.055 6.055 0 0 0 64.583 17.499 A 3.425 3.425 0 0 0 64.917 18.791 Q 65.433 19.878 66.732 20.868 A 1.772 1.772 0 0 0 67.299 21.198 Q 67.688 21.335 68.163 21.301 A 3.056 3.056 0 0 0 68.49 21.259 Q 69.564 21.063 70.589 20.429 A 6.828 6.828 0 0 0 71.211 19.994 A 7.732 7.732 0 0 0 72.445 18.768 A 6.832 6.832 0 0 0 73.011 17.96 Z" vector-effect="non-scaling-stroke"/></g></svg>