<svg width="473.58" height="98.277" viewBox="0 0 473.58 98.277" xmlns="http://www.w3.org/2000/svg"><g id="svgGroup" stroke-linecap="round" fill-rule="evenodd" font-size="9pt" stroke="#fff" stroke-width="0.25mm" fill="#fff" style="stroke:#fff;stroke-width:0.25mm;fill:#fff"><path d="M 60.033 27.919 A 29.368 29.368 0 0 0 61.035 22.657 A 17.606 17.606 0 0 0 61.076 22.188 Q 61.278 19.418 60.693 15.821 A 21.452 21.452 0 0 0 58.008 8.399 A 16.301 16.301 0 0 0 55.965 5.624 A 19.005 19.005 0 0 0 52.148 2.442 A 13.176 13.176 0 0 0 50.132 1.388 Q 46.826 0 42.188 0 Q 36.035 0 31.006 1.172 A 80.291 80.291 0 0 0 30.688 1.247 Q 25.856 2.394 22.168 3.907 Q 20.011 4.792 18.245 5.708 A 31.226 31.226 0 0 0 15.771 7.129 A 290.522 290.522 0 0 0 14.631 7.864 Q 13.456 8.626 12.631 9.18 A 62.42 62.42 0 0 0 11.914 9.668 Q 10.504 10.667 9.942 11.648 A 2.583 2.583 0 0 0 9.57 12.94 A 7.574 7.574 0 0 0 9.57 12.99 A 6.555 6.555 0 0 0 10.254 15.918 A 4.506 4.506 0 0 0 10.84 17.188 A 9.737 9.737 0 0 0 10.843 17.194 Q 11.062 17.558 11.389 18.03 A 27.441 27.441 0 0 0 11.621 18.36 A 5.187 5.187 0 0 0 12.114 18.949 A 6.505 6.505 0 0 0 12.891 19.629 Q 14.453 17.871 16.26 16.26 A 111.169 111.169 0 0 1 18.005 14.734 A 84.345 84.345 0 0 1 19.629 13.379 A 45.468 45.468 0 0 1 20.288 12.84 A 40.294 40.294 0 0 1 23.145 10.742 A 586.281 586.281 0 0 0 22.848 11.833 Q 22.499 13.123 22.046 14.817 A 1947.614 1947.614 0 0 0 21.582 16.553 Q 20.605 20.215 19.434 24.756 A 2903.904 2903.904 0 0 0 18.225 29.456 A 3528.732 3528.732 0 0 0 16.943 34.473 A 2384.933 2384.933 0 0 0 14.355 44.727 A 12.19 12.19 0 0 0 13.239 45.03 A 9.937 9.937 0 0 0 9.863 46.875 Q 8.008 48.438 7.813 50.684 A 6.149 6.149 0 0 0 7.792 51.181 Q 7.792 53.528 9.669 55.221 A 9.31 9.31 0 0 0 11.426 56.446 Q 10.449 60.352 9.619 63.623 Q 9.1 65.668 8.715 67.388 A 87.15 87.15 0 0 0 8.301 69.336 A 146.02 146.02 0 0 1 8.18 69.859 Q 6.875 75.449 5.615 78.809 Q 4.297 82.325 3.174 84.229 A 20.995 20.995 0 0 1 2.744 84.928 Q 2.187 85.792 1.711 86.31 A 3.893 3.893 0 0 1 1.221 86.768 A 449.672 449.672 0 0 1 1.159 86.815 Q 0.376 87.414 0 87.696 Q 1.367 89.258 2.832 90.137 A 5.943 5.943 0 0 0 4.419 90.796 A 7.332 7.332 0 0 0 6.25 91.016 A 11.835 11.835 0 0 0 7.81 90.92 Q 8.71 90.8 9.432 90.53 A 4.544 4.544 0 0 0 11.084 89.502 A 10.09 10.09 0 0 0 12.579 87.569 A 13.885 13.885 0 0 0 13.574 85.547 A 50.545 50.545 0 0 0 13.989 84.398 Q 14.337 83.397 14.692 82.255 A 96.165 96.165 0 0 0 15.381 79.932 A 114.17 114.17 0 0 0 15.951 77.844 A 135.155 135.155 0 0 0 17.139 72.95 A 343.633 343.633 0 0 0 18.75 65.332 A 560.527 560.527 0 0 0 18.774 65.21 A 509.033 509.033 0 0 0 20.215 57.715 A 58.922 58.922 0 0 0 24.669 57.29 A 44.201 44.201 0 0 0 29.199 56.446 A 6.427 6.427 0 0 1 29.456 56.866 A 7.605 7.605 0 0 1 29.883 57.764 A 68.936 68.936 0 0 1 29.901 57.81 A 74.916 74.916 0 0 1 30.469 59.278 A 28.806 28.806 0 0 1 31.471 62.288 A 32.7 32.7 0 0 1 32.568 69.483 A 872.098 872.098 0 0 1 32.687 72.275 A 1003.036 1003.036 0 0 1 33.008 81.055 Q 33.13 83.863 33.443 86.136 A 32.855 32.855 0 0 0 33.887 88.672 A 27.752 27.752 0 0 0 34.184 89.901 Q 34.485 91.029 34.853 91.987 A 13.875 13.875 0 0 0 35.693 93.799 A 12.673 12.673 0 0 0 35.776 93.944 Q 36.872 95.839 38.33 96.826 A 7.817 7.817 0 0 0 39.319 97.396 A 8.604 8.604 0 0 0 41.797 98.145 A 9.637 9.637 0 0 0 41.988 98.176 Q 42.653 98.277 43.288 98.277 A 7.173 7.173 0 0 0 46.924 97.315 A 18.519 18.519 0 0 0 47.522 96.956 A 16.186 16.186 0 0 0 50.879 94.19 A 30.78 30.78 0 0 0 51.332 93.686 Q 51.992 92.935 52.53 92.219 A 17.589 17.589 0 0 0 53.516 90.772 A 180.047 180.047 0 0 1 53.747 90.391 Q 54.504 89.148 54.59 89.063 Q 53.516 89.746 51.611 90.332 A 10.313 10.313 0 0 1 48.564 90.801 A 9.928 9.928 0 0 1 47.803 90.772 A 6.074 6.074 0 0 1 44.385 89.405 Q 43.315 88.542 42.806 86.824 A 10.353 10.353 0 0 1 42.48 85.254 A 151.06 151.06 0 0 0 42.461 85.077 Q 42.268 83.363 41.943 80.811 A 399.803 399.803 0 0 0 41.577 78.015 A 503.033 503.033 0 0 0 41.162 75 A 121.418 121.418 0 0 0 41.049 74.216 A 134.681 134.681 0 0 0 40.088 68.555 A 77.656 77.656 0 0 0 38.574 62.11 A 33.583 33.583 0 0 0 38.003 60.086 A 25.541 25.541 0 0 0 37.207 57.91 A 48.257 48.257 0 0 0 37.01 57.45 A 43.455 43.455 0 0 0 35.547 54.395 A 45.085 45.085 0 0 0 36.634 53.943 A 39.887 39.887 0 0 0 45.996 48.34 A 50.741 50.741 0 0 0 48.206 46.448 A 43.646 43.646 0 0 0 53.809 40.332 A 42.725 42.725 0 0 0 54.967 38.711 A 37.095 37.095 0 0 0 58.838 31.446 A 37.381 37.381 0 0 0 60.033 27.919 Z M 344.853 48.766 A 1.827 1.827 0 0 0 344.434 49.219 A 77.107 77.107 0 0 1 344.335 49.35 Q 343.896 49.933 343.06 51.023 A 768.032 768.032 0 0 1 342.383 51.905 A 99.575 99.575 0 0 1 342.186 52.159 Q 341.49 53.058 340.689 54.052 A 170.126 170.126 0 0 1 338.965 56.153 A 96.461 96.461 0 0 1 337.967 57.331 A 111.115 111.115 0 0 1 334.717 60.938 A 93.299 93.299 0 0 1 333.537 62.171 A 80.728 80.728 0 0 1 330.176 65.43 A 35.619 35.619 0 0 1 330.035 65.558 Q 327.864 67.519 325.83 68.701 Q 324.02 69.754 322.682 69.754 A 3.147 3.147 0 0 1 322.266 69.727 A 6.353 6.353 0 0 1 321.59 69.656 A 4.923 4.923 0 0 1 319.141 68.555 A 4.709 4.709 0 0 1 318.401 67.677 Q 318.094 67.218 317.823 66.632 A 12.167 12.167 0 0 1 317.334 65.381 A 6.302 6.302 0 0 1 317.195 64.9 Q 316.663 62.745 317.188 58.985 A 419.51 419.51 0 0 0 319.604 53.296 A 341.544 341.544 0 0 0 321.777 47.95 A 521.548 521.548 0 0 0 322.343 46.517 Q 324.034 42.211 325.293 38.77 A 312.827 312.827 0 0 0 326.855 34.351 A 241.578 241.578 0 0 0 328.223 30.274 A 31.838 31.838 0 0 0 328.628 29.049 A 26.346 26.346 0 0 0 329.15 27.1 A 138.14 138.14 0 0 1 329.883 24.024 Q 330.664 24.024 331.396 23.975 Q 332.129 23.926 332.715 23.926 Q 335.84 23.926 338.184 24.121 A 184.413 184.413 0 0 1 339.586 24.243 Q 340.257 24.305 340.865 24.366 A 100.131 100.131 0 0 1 342.236 24.512 A 35.169 35.169 0 0 1 343.011 24.609 Q 344.231 24.776 345.166 25 Q 345.815 25.156 346.394 25.256 A 13.616 13.616 0 0 0 347.363 25.391 A 2.677 2.677 0 0 0 347.432 25.404 Q 347.907 25.486 348.336 25.381 A 2.166 2.166 0 0 0 349.121 25 A 3.996 3.996 0 0 0 349.315 24.845 A 3.288 3.288 0 0 0 350.244 23.584 A 4.321 4.321 0 0 0 350.402 23.134 Q 350.543 22.643 350.543 22.169 A 3.143 3.143 0 0 0 350.537 21.973 A 1.486 1.486 0 0 0 350.49 21.677 Q 350.348 21.152 349.805 20.996 A 7.362 7.362 0 0 1 349.78 20.989 Q 349.096 20.791 347.754 20.264 A 17.666 17.666 0 0 0 346.71 19.895 Q 346.136 19.71 345.459 19.525 A 43.619 43.619 0 0 0 344.141 19.19 Q 342.737 18.854 340.971 18.557 A 77.825 77.825 0 0 0 338.721 18.213 Q 336.935 17.966 334.857 17.858 A 65.778 65.778 0 0 0 331.445 17.774 Q 332.422 12.793 332.52 9.571 Q 332.617 6.348 332.129 5.567 A 1.695 1.695 0 0 0 331.753 5.235 Q 331.294 4.934 330.566 4.834 Q 329.492 4.688 328.32 4.834 A 12.73 12.73 0 0 0 327.815 4.908 A 11.079 11.079 0 0 0 326.123 5.323 Q 325.098 5.664 324.805 6.153 Q 324.072 7.178 323.203 9.384 A 46.472 46.472 0 0 0 322.607 10.987 A 80.328 80.328 0 0 0 322.263 11.986 Q 321.745 13.521 321.219 15.273 A 146.912 146.912 0 0 0 320.117 19.141 Q 318.457 19.434 316.748 19.629 A 53.61 53.61 0 0 1 315.884 19.721 A 60.208 60.208 0 0 1 313.184 19.922 A 55.733 55.733 0 0 1 312.931 19.931 Q 311.647 19.975 310.465 19.955 A 38.448 38.448 0 0 1 308.496 19.873 A 121.943 121.943 0 0 1 306.421 19.715 A 98.359 98.359 0 0 1 304.492 19.532 A 1.529 1.529 0 0 0 304.039 19.605 Q 303.831 19.67 303.607 19.791 A 3.813 3.813 0 0 0 303.174 20.069 Q 302.441 20.606 301.953 21.338 A 4.153 4.153 0 0 0 301.631 21.91 A 3.131 3.131 0 0 0 301.367 22.803 A 1.305 1.305 0 0 0 301.365 22.823 Q 301.28 23.541 302.051 23.926 A 9.342 9.342 0 0 0 302.441 24.109 Q 303.352 24.513 304.748 24.934 A 42.856 42.856 0 0 0 306.201 25.342 A 21.266 21.266 0 0 0 307.614 25.663 A 23.862 23.862 0 0 0 312.109 26.075 A 22.414 22.414 0 0 0 313.55 26.026 A 30.303 30.303 0 0 0 315.137 25.879 L 318.457 25.489 Q 317.09 31.153 315.869 37.256 A 813.535 813.535 0 0 0 314.709 43.164 A 659.555 659.555 0 0 0 313.672 48.682 A 358.467 358.467 0 0 0 313.405 50.154 Q 312.613 54.574 312.109 58.057 Q 311.665 61.128 311.502 62.769 A 25.023 25.023 0 0 0 311.426 63.672 A 10.391 10.391 0 0 0 311.37 64.76 Q 311.37 65.371 311.437 66.014 A 15.046 15.046 0 0 0 311.719 67.725 A 12.077 12.077 0 0 0 313.428 71.778 A 9.231 9.231 0 0 0 314.673 73.289 A 10.971 10.971 0 0 0 316.797 74.903 A 7.793 7.793 0 0 0 317.389 75.219 Q 318.48 75.742 319.814 75.978 A 13.518 13.518 0 0 0 322.168 76.172 A 4.643 4.643 0 0 0 322.869 76.117 Q 324.275 75.902 326.046 74.856 A 20.286 20.286 0 0 0 327.734 73.731 Q 329.498 72.434 331.317 70.765 A 60.073 60.073 0 0 0 334.57 67.53 A 90.534 90.534 0 0 0 341.26 59.473 Q 342.946 57.19 344.287 55.073 A 52.115 52.115 0 0 0 346.387 51.465 A 9.025 9.025 0 0 0 346.499 51.232 Q 346.968 50.224 346.924 49.61 Q 346.901 49.288 346.802 49.053 A 0.99 0.99 0 0 0 346.484 48.633 A 0.941 0.941 0 0 0 346.187 48.484 Q 345.955 48.414 345.664 48.45 A 2 2 0 0 0 345.459 48.487 A 1.59 1.59 0 0 0 344.853 48.766 Z M 127.832 55.274 Q 127.344 58.301 126.904 61.035 Q 126.485 63.645 126.377 65.276 A 20.796 20.796 0 0 0 126.367 65.43 A 10.936 10.936 0 0 0 126.358 65.81 Q 126.347 67.957 127.246 68.946 A 3.888 3.888 0 0 0 127.936 69.554 A 2.555 2.555 0 0 0 129.395 70.02 Q 130.762 70.02 132.764 68.653 Q 134.766 67.285 137.012 65.235 A 70.716 70.716 0 0 0 140.381 61.939 A 80.561 80.561 0 0 0 141.504 60.742 Q 143.75 58.301 145.654 56.104 Q 147.559 53.907 148.877 52.246 Q 150.195 50.586 150.684 50.098 Q 151.27 49.512 151.904 49.414 A 2.12 2.12 0 0 1 152.097 49.393 Q 152.348 49.378 152.557 49.432 A 1.058 1.058 0 0 1 152.93 49.61 A 0.853 0.853 0 0 1 153.202 49.971 Q 153.32 50.254 153.32 50.684 A 2.053 2.053 0 0 1 153.236 51.239 Q 153.089 51.761 152.684 52.412 A 8.455 8.455 0 0 1 152.539 52.637 Q 151.642 54.058 150.344 55.85 A 102.715 102.715 0 0 1 149.512 56.983 A 95.863 95.863 0 0 1 146.776 60.476 A 112.818 112.818 0 0 1 145.41 62.11 Q 143.164 64.746 140.674 67.285 A 55.222 55.222 0 0 1 137.561 70.23 A 46.354 46.354 0 0 1 135.693 71.778 A 38.014 38.014 0 0 1 133.252 73.548 A 28.272 28.272 0 0 1 130.908 74.951 A 12.809 12.809 0 0 1 129.382 75.646 Q 128.547 75.959 127.778 76.085 A 6.267 6.267 0 0 1 126.758 76.172 Q 125.391 76.172 124.17 75.391 Q 122.949 74.61 121.973 73.34 A 9.873 9.873 0 0 1 120.459 70.508 Q 119.922 68.946 120.02 67.383 A 37.363 37.363 0 0 0 120.074 66.98 Q 120.156 66.358 120.282 65.296 A 304.702 304.702 0 0 0 120.312 65.039 A 49.539 49.539 0 0 1 116.457 68.924 Q 114.265 70.888 112.061 72.315 Q 108.559 74.581 105.3 74.935 A 11.089 11.089 0 0 1 104.102 75 A 6.285 6.285 0 0 1 102.594 74.807 Q 101.904 74.637 101.172 74.317 A 6.692 6.692 0 0 1 99.227 73.001 A 8.658 8.658 0 0 1 98.389 72.071 Q 97.168 70.508 96.387 67.969 A 13.424 13.424 0 0 1 95.923 65.803 Q 95.702 64.155 95.784 62.175 A 27.896 27.896 0 0 1 95.801 61.817 Q 96.094 56.153 98.047 51.075 Q 100 45.996 102.979 42.237 A 25.447 25.447 0 0 1 107.224 37.975 A 22.232 22.232 0 0 1 109.717 36.28 A 16.721 16.721 0 0 1 113.489 34.632 A 13.557 13.557 0 0 1 117.285 34.082 A 5.721 5.721 0 0 1 120.312 34.912 A 8.179 8.179 0 0 1 122.656 37.061 A 13.101 13.101 0 0 1 124.268 39.942 A 20.36 20.36 0 0 1 124.817 41.455 A 15.357 15.357 0 0 1 125.195 42.871 Q 125.879 40.039 126.465 37.305 A 235.681 235.681 0 0 1 127.051 34.644 A 200.517 200.517 0 0 1 127.637 32.129 A 536.832 536.832 0 0 0 128.638 28.369 A 668.832 668.832 0 0 0 129.687 24.317 A 13274.167 13274.167 0 0 1 130.598 20.949 Q 131.064 19.227 131.582 17.313 A 22873.797 22873.797 0 0 1 131.934 16.016 A 330.479 330.479 0 0 1 133.276 11.206 A 388.164 388.164 0 0 1 134.766 6.153 A 10.822 10.822 0 0 1 135.598 5.546 Q 136.026 5.266 136.434 5.068 A 6.075 6.075 0 0 1 136.621 4.981 A 11.579 11.579 0 0 1 137.527 4.621 A 8.863 8.863 0 0 1 138.281 4.395 A 5.98 5.98 0 0 1 139.162 4.171 A 4.617 4.617 0 0 1 139.941 4.102 A 6.716 6.716 0 0 1 140.897 4.167 A 5.139 5.139 0 0 1 141.699 4.346 A 1.816 1.816 0 0 1 142.419 4.785 Q 142.636 4.994 142.826 5.286 A 4.071 4.071 0 0 1 143.018 5.616 Q 143.555 6.641 143.75 8.692 Q 143.932 10.598 143.776 13.771 A 76.783 76.783 0 0 1 143.75 14.258 A 39.461 39.461 0 0 1 143.274 18.75 A 53.233 53.233 0 0 1 142.236 23.633 A 85.422 85.422 0 0 1 140.031 30.777 A 100.14 100.14 0 0 1 138.77 34.131 A 122.788 122.788 0 0 1 133.838 44.971 A 109.442 109.442 0 0 1 127.832 55.274 Z M 168.164 87.891 A 14.792 14.792 0 0 0 168.387 87.72 Q 168.762 87.427 169.385 86.914 Q 170.069 86.351 170.953 84.99 A 22.88 22.88 0 0 0 171.338 84.375 A 19.856 19.856 0 0 0 172.064 83.054 Q 172.888 81.421 173.828 79.004 A 45.593 45.593 0 0 0 174.692 76.559 Q 175.589 73.793 176.527 69.981 A 150.375 150.375 0 0 0 176.66 69.434 A 444.041 444.041 0 0 1 177.081 67.713 Q 177.759 64.966 178.711 61.231 A 865.071 865.071 0 0 1 180.042 56.079 A 1053.726 1053.726 0 0 1 181.494 50.586 A 1814.886 1814.886 0 0 0 184.375 39.666 A 1975.354 1975.354 0 0 0 184.57 38.916 A 1351.164 1351.164 0 0 1 186.108 33.057 A 1162.785 1162.785 0 0 1 187.598 27.491 Q 189.063 22.071 190.234 17.676 A 1107.903 1107.903 0 0 1 190.79 15.601 Q 191.331 13.587 191.743 12.092 A 296.972 296.972 0 0 1 192.09 10.84 A 34.035 34.035 0 0 0 188.477 13.477 A 65.205 65.205 0 0 0 186.865 14.832 A 84.034 84.034 0 0 0 185.156 16.358 A 66.639 66.639 0 0 0 181.738 19.727 A 9.038 9.038 0 0 1 180.525 18.494 A 7.289 7.289 0 0 1 179.785 17.383 A 7.863 7.863 0 0 1 179.111 16.135 A 8.557 8.557 0 0 1 179.102 16.114 A 8.08 8.08 0 0 1 178.516 13.086 A 2.381 2.381 0 0 1 178.866 11.888 Q 179.441 10.895 180.957 9.864 A 62.42 62.42 0 0 1 181.674 9.375 Q 182.499 8.821 183.674 8.06 A 290.522 290.522 0 0 1 184.814 7.325 Q 187.01 5.916 190.085 4.542 A 61.793 61.793 0 0 1 191.211 4.053 Q 195.02 2.442 200.098 1.27 Q 205.176 0.098 211.328 0.098 Q 217.48 0.098 221.24 2.539 A 18.601 18.601 0 0 1 225.043 5.769 A 16.051 16.051 0 0 1 227.002 8.496 Q 229.004 12.012 229.59 15.918 Q 230.176 19.825 229.883 22.754 A 30.295 30.295 0 0 1 228.482 29.061 A 40.503 40.503 0 0 1 226.367 34.18 A 38.936 38.936 0 0 1 219.9 43.491 A 45.23 45.23 0 0 1 218.262 45.166 A 43.54 43.54 0 0 1 210.188 51.304 A 53.545 53.545 0 0 1 205.664 53.711 A 40.943 40.943 0 0 1 195.547 56.923 A 52.392 52.392 0 0 1 188.672 57.715 Q 187.891 61.426 187.109 65.332 A 243.279 243.279 0 0 1 185.449 72.998 A 167.48 167.48 0 0 1 184.332 77.507 A 138.284 138.284 0 0 1 183.643 80.03 Q 182.715 83.301 181.738 85.645 Q 180.762 88.184 179.199 89.698 A 4.687 4.687 0 0 1 177.551 90.705 Q 176.195 91.211 174.219 91.211 A 6.404 6.404 0 0 1 170.947 90.332 A 9.509 9.509 0 0 1 169.066 88.884 A 11.903 11.903 0 0 1 168.164 87.891 Z M 262.549 74.854 A 2.413 2.413 0 0 0 263.024 74.59 Q 263.58 74.196 264.063 73.438 Q 264.355 73.047 265.576 71.045 A 13202.869 13202.869 0 0 1 266.392 69.708 Q 267.346 68.143 268.555 66.162 A 1240.234 1240.234 0 0 0 270.374 63.172 A 1526.901 1526.901 0 0 0 272.314 59.961 A 1755.064 1755.064 0 0 0 274.268 56.714 A 1521.982 1521.982 0 0 0 276.123 53.614 Q 277.252 51.721 278.21 50.135 A 539.639 539.639 0 0 1 279.297 48.34 Q 280.365 46.585 280.837 45.784 A 33.435 33.435 0 0 0 281.055 45.41 A 8.863 8.863 0 0 1 281.809 45.636 A 11.579 11.579 0 0 1 282.715 45.996 A 3.771 3.771 0 0 0 282.992 46.107 Q 283.414 46.255 283.914 46.325 A 6.871 6.871 0 0 0 284.863 46.387 Q 285.522 46.387 285.934 46.36 A 5.678 5.678 0 0 0 286.182 46.338 Q 286.621 46.289 286.865 46.289 A 2.484 2.484 0 0 0 287.354 46.241 A 1.729 1.729 0 0 1 287.503 46.218 Q 287.75 46.192 288.184 46.192 A 1.91 1.91 0 0 1 288.533 46.222 A 1.283 1.283 0 0 1 289.453 46.875 A 2.862 2.862 0 0 1 289.727 47.535 A 3.373 3.373 0 0 1 289.844 48.438 A 3.706 3.706 0 0 1 289.843 48.503 Q 289.82 49.852 288.818 51.807 A 66.652 66.652 0 0 1 288.116 53.139 Q 287.274 54.694 286.133 56.641 A 43.962 43.962 0 0 1 285.782 57.328 A 48.924 48.924 0 0 1 284.619 59.424 Q 283.789 60.84 283.057 62.256 A 37.515 37.515 0 0 0 282.618 63.132 A 31.67 31.67 0 0 0 281.787 64.991 A 10.023 10.023 0 0 0 281.396 66.136 A 7.485 7.485 0 0 0 281.152 67.481 A 8.128 8.128 0 0 0 281.135 68.022 Q 281.135 69.256 281.494 70.655 Q 281.934 72.364 282.959 73.78 A 8.057 8.057 0 0 0 283.817 74.78 A 9.232 9.232 0 0 0 285.645 76.172 A 6.008 6.008 0 0 0 286.255 76.485 Q 287.071 76.847 288.063 77.011 A 10.9 10.9 0 0 0 289.844 77.149 Q 291.293 77.149 292.829 76.632 A 13.413 13.413 0 0 0 294.971 75.684 A 28.054 28.054 0 0 0 297.321 74.243 A 34.825 34.825 0 0 0 300.342 71.924 A 50.252 50.252 0 0 0 305.469 66.846 A 111.442 111.442 0 0 0 306.952 65.121 A 94.316 94.316 0 0 0 309.912 61.426 A 121.934 121.934 0 0 0 310.464 60.694 Q 311.273 59.611 311.979 58.614 A 71.912 71.912 0 0 0 313.33 56.641 Q 314.746 54.492 315.332 53.516 A 9.36 9.36 0 0 0 315.472 53.275 Q 316.199 51.978 316.064 51.172 A 2.737 2.737 0 0 0 316.028 50.991 Q 315.855 50.262 315.332 50 A 1.399 1.399 0 0 0 314.697 49.854 Q 314.51 49.854 314.309 49.898 A 2.484 2.484 0 0 0 313.965 50 A 2.384 2.384 0 0 0 313.254 50.417 A 2.795 2.795 0 0 0 312.695 51.075 A 26.029 26.029 0 0 0 312.651 51.134 Q 312.064 51.921 310.889 53.614 Q 310.202 54.602 309.345 55.73 A 92.845 92.845 0 0 1 307.91 57.569 A 97.7 97.7 0 0 1 307.013 58.673 A 111.846 111.846 0 0 1 304.102 62.061 A 61.875 61.875 0 0 1 303.073 63.184 A 54.646 54.646 0 0 1 299.951 66.26 A 31.927 31.927 0 0 1 298.004 67.895 A 23.995 23.995 0 0 1 295.85 69.385 A 11.224 11.224 0 0 1 295.02 69.846 Q 294.342 70.184 293.706 70.372 A 5.36 5.36 0 0 1 292.188 70.606 Q 289.941 70.606 289.453 69.825 A 3.697 3.697 0 0 1 289.248 69.448 Q 289.078 69.09 288.956 68.653 A 7.481 7.481 0 0 1 288.77 67.774 A 4.981 4.981 0 0 1 288.745 67.278 Q 288.745 65.515 289.941 63.379 A 59.316 59.316 0 0 1 291.138 61.336 A 46.676 46.676 0 0 1 292.676 58.985 A 107.5 107.5 0 0 0 292.962 58.584 Q 293.956 57.188 294.81 55.892 A 66.129 66.129 0 0 0 296.484 53.223 Q 298.047 50.586 297.754 48.145 Q 297.656 46.973 297.314 45.557 Q 296.973 44.141 296.289 42.92 Q 295.605 41.7 294.531 40.869 A 3.853 3.853 0 0 0 293.004 40.166 A 5.46 5.46 0 0 0 291.797 40.039 Q 290.814 40.039 290.21 40.14 A 3.235 3.235 0 0 0 289.795 40.235 A 3.028 3.028 0 0 1 289.402 40.323 Q 288.754 40.43 287.598 40.43 A 8.234 8.234 0 0 1 287.259 40.423 Q 286.443 40.39 286.035 40.186 A 11.362 11.362 0 0 1 285.736 40.031 Q 285.451 39.878 285.254 39.746 Q 286.328 38.184 286.719 36.231 Q 287.028 34.685 286.97 33.567 A 5.577 5.577 0 0 0 286.914 33.008 A 7.619 7.619 0 0 0 286.566 31.403 A 8.985 8.985 0 0 0 285.596 29.395 Q 284.789 28.131 283.149 27.776 A 6.667 6.667 0 0 0 281.738 27.637 A 3.36 3.36 0 0 0 280.8 27.774 Q 280.246 27.935 279.678 28.283 A 7.182 7.182 0 0 0 278.711 29.004 A 14.927 14.927 0 0 0 277.763 29.911 A 17.177 17.177 0 0 0 275.879 32.276 A 19.873 19.873 0 0 0 273.828 36.231 A 12.514 12.514 0 0 0 273.492 37.23 Q 273.183 38.308 273.205 39.12 A 3.441 3.441 0 0 0 273.242 39.551 Q 273.386 40.627 273.634 41.15 A 1.3 1.3 0 0 0 273.828 41.455 Q 274.121 41.785 274.799 42.417 A 53.431 53.431 0 0 0 275.293 42.871 Q 274.707 43.946 273.438 46.338 Q 272.168 48.731 270.654 51.758 A 1137.77 1137.77 0 0 0 269.104 54.871 A 1329.819 1329.819 0 0 0 267.48 58.155 A 7952.539 7952.539 0 0 0 265.881 61.402 A 6285.277 6285.277 0 0 0 264.404 64.405 Q 262.988 67.285 261.963 69.336 L 260.645 71.973 A 5.515 5.515 0 0 0 260.431 72.453 Q 260.1 73.311 260.254 73.926 Q 260.449 74.707 261.084 74.951 A 1.554 1.554 0 0 0 261.647 75.053 Q 262.065 75.053 262.549 74.854 Z M 409.863 49.414 L 408.789 53.711 A 159.592 159.592 0 0 1 408.389 55.352 Q 408.026 56.806 407.568 58.545 A 99.663 99.663 0 0 1 406.75 61.463 A 133.02 133.02 0 0 1 405.762 64.649 A 15.173 15.173 0 0 0 405.458 65.983 Q 405.228 67.281 405.319 68.321 A 6.324 6.324 0 0 0 405.322 68.36 A 2.037 2.037 0 0 0 405.505 69.061 Q 405.922 69.922 407.227 69.922 A 3.864 3.864 0 0 0 408.448 69.702 Q 409.534 69.338 410.878 68.375 A 18.747 18.747 0 0 0 411.67 67.774 A 41.685 41.685 0 0 0 414.707 65.079 A 53.878 53.878 0 0 0 417.09 62.598 Q 419.824 59.571 422.266 56.397 Q 424.278 53.781 425.494 51.994 A 41.025 41.025 0 0 0 425.977 51.27 A 9.122 9.122 0 0 1 426.463 50.625 Q 427.075 49.89 427.637 49.61 A 2.751 2.751 0 0 1 427.905 49.492 Q 428.369 49.319 428.691 49.43 A 0.722 0.722 0 0 1 428.857 49.512 A 0.783 0.783 0 0 1 429.121 49.826 Q 429.258 50.102 429.288 50.556 A 4.103 4.103 0 0 1 429.297 50.83 A 3.553 3.553 0 0 1 429.207 51.589 Q 429.046 52.321 428.599 53.249 A 12.797 12.797 0 0 1 428.516 53.418 A 24.602 24.602 0 0 1 428.017 54.359 Q 427.39 55.487 426.416 57.032 A 54.836 54.836 0 0 1 424.866 59.351 A 72.656 72.656 0 0 1 423.047 61.817 A 110.789 110.789 0 0 1 419.405 66.297 A 122.53 122.53 0 0 1 418.848 66.944 A 45.901 45.901 0 0 1 414.616 71.233 A 41.994 41.994 0 0 1 414.16 71.631 A 32.209 32.209 0 0 1 411.504 73.694 A 25.146 25.146 0 0 1 409.326 75.049 A 11.966 11.966 0 0 1 407.422 75.903 Q 406.061 76.367 404.785 76.367 Q 402.579 76.367 400.985 75.567 A 6.4 6.4 0 0 1 400.928 75.537 Q 399.316 74.707 398.34 73.34 Q 397.363 71.973 397.07 70.166 A 8.667 8.667 0 0 1 396.96 68.777 Q 396.96 67.924 397.118 67.022 A 12.003 12.003 0 0 1 397.266 66.309 Q 397.53 65.074 398.114 63.082 A 98.468 98.468 0 0 1 398.242 62.647 Q 398.926 60.352 399.658 57.666 Q 400.391 54.981 401.025 52.295 A 41.578 41.578 0 0 0 401.524 49.885 Q 401.752 48.58 401.855 47.412 A 16.893 16.893 0 0 0 401.91 46.573 Q 401.968 45.079 401.712 44.002 A 5.832 5.832 0 0 0 401.66 43.799 A 2.648 2.648 0 0 0 401.405 43.171 Q 400.947 42.383 400 42.383 Q 398.438 42.383 396.777 43.409 Q 395.221 44.37 393.622 45.974 A 24.741 24.741 0 0 0 393.408 46.192 A 36.911 36.911 0 0 0 391.379 48.468 A 46.536 46.536 0 0 0 389.99 50.244 Q 388.281 52.539 386.621 54.981 A 287.43 287.43 0 0 0 386.003 57.354 Q 385.763 58.295 385.551 59.154 A 160.876 160.876 0 0 0 385.156 60.791 A 366.778 366.778 0 0 0 384.623 63.089 Q 384.374 64.179 384.159 65.154 A 220.166 220.166 0 0 0 384.131 65.284 Q 383.753 67.004 383.412 68.364 A 69.769 69.769 0 0 1 383.301 68.799 A 75.417 75.417 0 0 0 382.81 70.811 A 63.721 63.721 0 0 0 382.617 71.68 A 2.277 2.277 0 0 1 382.236 72.402 Q 381.823 72.943 381.038 73.468 A 8.54 8.54 0 0 1 380.859 73.584 A 15.398 15.398 0 0 1 377.734 75.098 A 12.615 12.615 0 0 1 376.598 75.443 Q 376.026 75.586 375.519 75.644 A 5.868 5.868 0 0 1 374.854 75.684 Q 373.633 75.684 373.828 74.805 Q 373.923 74.237 374.431 72.291 A 160.983 160.983 0 0 1 374.463 72.168 A 3232.082 3232.082 0 0 1 374.893 70.527 Q 375.275 69.074 375.732 67.334 A 454.86 454.86 0 0 0 376.477 64.466 A 538.527 538.527 0 0 0 377.246 61.426 A 814.721 814.721 0 0 0 378.003 58.374 A 700.831 700.831 0 0 0 378.711 55.469 A 1490.628 1490.628 0 0 0 379.224 53.101 A 1999.136 1999.136 0 0 0 379.785 50.489 Q 380.273 48.145 381.006 45.02 A 228.456 228.456 0 0 1 381.799 41.748 A 298.514 298.514 0 0 1 382.715 38.184 A 6.592 6.592 0 0 1 383.633 37.52 A 5.632 5.632 0 0 1 384.131 37.256 A 8.374 8.374 0 0 1 385.645 36.719 A 6.829 6.829 0 0 1 387.195 36.341 A 7.571 7.571 0 0 1 387.305 36.328 Q 388.086 36.328 388.867 36.426 A 7.698 7.698 0 0 1 389.83 36.63 A 9.128 9.128 0 0 1 390.283 36.768 A 4.032 4.032 0 0 1 391.602 37.5 Q 391.337 38.118 390.993 39.174 A 43.684 43.684 0 0 0 390.918 39.405 Q 390.527 40.625 390.137 41.992 A 34.575 34.575 0 0 1 389.441 44.391 A 39.525 39.525 0 0 1 389.16 45.215 A 42.41 42.41 0 0 1 391.067 42.775 A 50.027 50.027 0 0 1 392.041 41.651 A 25.692 25.692 0 0 1 395.557 38.379 Q 397.461 36.914 399.609 35.987 Q 401.758 35.059 404.004 35.059 A 5.473 5.473 0 0 1 407.324 36.133 A 6.71 6.71 0 0 1 409.102 38.106 A 8.567 8.567 0 0 1 409.619 39.112 A 11.004 11.004 0 0 1 410.278 41.199 Q 410.492 42.192 410.575 43.326 A 18.817 18.817 0 0 1 410.596 43.653 A 13.76 13.76 0 0 1 410.617 44.416 Q 410.617 46.736 409.863 49.414 Z M 471.338 55.527 A 126.445 126.445 0 0 0 472.07 54.492 A 14.832 14.832 0 0 0 472.118 54.428 Q 473.247 52.906 473.486 51.758 A 5.443 5.443 0 0 0 473.511 51.633 Q 473.709 50.555 473.34 50 A 1.309 1.309 0 0 0 473.306 49.952 Q 472.916 49.421 472.168 49.561 A 1.989 1.989 0 0 0 471.631 49.748 Q 471.118 50.009 470.605 50.586 Q 470.02 51.367 468.701 53.028 Q 467.96 53.961 467.11 55.05 A 452.476 452.476 0 0 0 465.723 56.836 A 147.566 147.566 0 0 1 464.877 57.92 A 170.056 170.056 0 0 1 462.158 61.28 A 117.618 117.618 0 0 1 460.291 63.477 A 95.297 95.297 0 0 1 458.496 65.479 Q 456.738 67.383 455.176 68.604 Q 453.613 69.825 452.637 69.825 Q 451.465 69.825 450.83 69.287 A 2.865 2.865 0 0 1 450.318 68.72 A 3.371 3.371 0 0 1 449.902 67.871 A 6.407 6.407 0 0 1 449.736 67.279 A 7.433 7.433 0 0 1 449.561 65.967 Q 449.512 64.942 449.609 64.063 L 450.098 61.621 L 450.439 59.912 L 450.732 58.448 A 67.659 67.659 0 0 1 450.891 57.679 A 89.496 89.496 0 0 1 451.074 56.836 A 1371.173 1371.173 0 0 0 451.276 55.907 Q 452.113 52.045 452.637 49.512 A 290.755 290.755 0 0 0 452.895 48.249 Q 453.162 46.93 453.351 45.923 A 86.451 86.451 0 0 0 453.516 45.02 Q 453.809 43.36 453.809 42.725 Q 453.809 42.239 453.751 42.011 A 0.574 0.574 0 0 0 453.711 41.895 Q 453.516 41.797 452.93 41.797 A 6.586 6.586 0 0 0 452.677 41.803 Q 452.224 41.82 451.514 41.895 A 14.328 14.328 0 0 0 450.959 41.965 Q 450.203 42.075 449.219 42.285 A 18.266 18.266 0 0 0 449.541 41.777 Q 451.233 39.003 450.83 37.256 A 6.024 6.024 0 0 0 450.542 36.336 A 4.377 4.377 0 0 0 449.023 34.375 A 8.298 8.298 0 0 0 448.301 33.959 Q 447.52 33.559 446.567 33.261 A 15.934 15.934 0 0 0 444.727 32.813 A 5.32 5.32 0 0 0 444.266 32.793 Q 442.139 32.793 439.063 34.375 A 20.767 20.767 0 0 0 438.34 34.765 Q 435.274 36.499 432.129 39.6 Q 428.613 43.067 425.635 47.95 A 33.971 33.971 0 0 0 424.701 49.581 A 36.78 36.78 0 0 0 421.289 58.789 A 37.291 37.291 0 0 0 421.068 59.746 Q 420.42 62.736 420.446 65.125 A 15.199 15.199 0 0 0 420.508 66.358 Q 420.801 69.532 421.875 71.534 A 10.861 10.861 0 0 0 421.934 71.642 Q 422.38 72.451 422.908 73.08 A 6.3 6.3 0 0 0 424.512 74.463 A 8.848 8.848 0 0 0 424.905 74.684 Q 425.491 74.992 426.048 75.166 A 4.668 4.668 0 0 0 427.441 75.391 A 19.729 19.729 0 0 0 428.036 75.342 A 21.21 21.21 0 0 0 433.301 74.121 A 16.331 16.331 0 0 0 433.841 73.903 Q 435.017 73.401 436.255 72.664 A 28.832 28.832 0 0 0 438.672 71.045 A 14.84 14.84 0 0 0 439.399 70.469 Q 441.808 68.438 443.848 65.039 A 26.982 26.982 0 0 0 443.84 65.277 Q 443.796 66.843 443.947 68.089 A 11.028 11.028 0 0 0 444.189 69.434 A 25.662 25.662 0 0 0 444.483 70.514 Q 444.633 71.017 444.787 71.447 A 10.965 10.965 0 0 0 445.117 72.266 Q 445.392 72.861 445.731 73.327 A 4.386 4.386 0 0 0 446.582 74.219 A 5.227 5.227 0 0 0 447.376 74.653 A 6.291 6.291 0 0 0 448.633 75.049 A 7.93 7.93 0 0 0 448.843 75.09 Q 449.922 75.285 451.123 75.196 Q 452.441 75.098 453.711 74.707 A 11.737 11.737 0 0 0 454.658 74.372 A 9.28 9.28 0 0 0 455.957 73.731 A 9.378 9.378 0 0 0 456.361 73.445 Q 457.275 72.763 458.441 71.595 A 41.001 41.001 0 0 0 459.619 70.362 A 87.881 87.881 0 0 0 461.281 68.499 A 106.191 106.191 0 0 0 464.111 65.088 A 228.204 228.204 0 0 0 468.555 59.326 Q 470.166 57.166 471.338 55.527 Z M 97.399 61.71 A 74.426 74.426 0 0 0 103.809 53.614 A 6.025 6.025 0 0 0 104.134 53.039 Q 104.299 52.703 104.388 52.395 A 2.476 2.476 0 0 0 104.492 51.709 A 2.612 2.612 0 0 0 104.473 51.388 Q 104.446 51.168 104.379 50.992 A 1.026 1.026 0 0 0 104.053 50.537 A 1.093 1.093 0 0 0 103.673 50.347 Q 103.423 50.277 103.113 50.307 A 2.336 2.336 0 0 0 102.881 50.342 A 1.888 1.888 0 0 0 102.47 50.476 Q 101.955 50.71 101.465 51.27 A 100.733 100.733 0 0 1 100.144 52.821 Q 99.434 53.639 98.623 54.543 A 206.023 206.023 0 0 1 96.533 56.836 A 77.803 77.803 0 0 1 90.088 63.037 A 53.055 53.055 0 0 1 88.564 64.298 A 46.157 46.157 0 0 1 83.008 68.116 A 20.524 20.524 0 0 1 82.701 68.29 Q 81.223 69.116 79.793 69.587 A 11.834 11.834 0 0 1 76.074 70.215 A 10.98 10.98 0 0 1 72.998 69.776 Q 71.484 69.336 70.313 68.311 A 7.162 7.162 0 0 1 69.238 67.127 A 9.218 9.218 0 0 1 68.359 65.625 Q 67.578 63.965 67.48 61.524 Q 68.304 60.919 69.283 60.238 A 134.254 134.254 0 0 1 70.898 59.131 A 987.321 987.321 0 0 0 72.9 57.776 A 1144.49 1144.49 0 0 0 75 56.348 Q 76.953 54.981 79.15 53.321 A 34.198 34.198 0 0 0 83.301 49.61 Q 85.254 47.559 86.67 45.02 Q 88.086 42.481 88.379 39.453 Q 88.405 39.088 88.398 38.738 A 5.793 5.793 0 0 0 86.914 34.864 A 4.84 4.84 0 0 0 85.292 33.692 Q 84.489 33.325 83.468 33.155 A 11.749 11.749 0 0 0 81.543 33.008 A 12.994 12.994 0 0 0 77.346 33.718 A 16.729 16.729 0 0 0 73.779 35.45 A 27.97 27.97 0 0 0 73.509 35.623 A 29.517 29.517 0 0 0 66.846 41.602 A 38.476 38.476 0 0 0 61.67 49.756 A 30.535 30.535 0 0 0 60.118 53.693 A 22.454 22.454 0 0 0 59.18 58.203 Q 58.882 61.179 59.219 63.61 A 14.512 14.512 0 0 0 59.912 66.504 A 18.563 18.563 0 0 0 61.139 69.252 A 13.567 13.567 0 0 0 63.184 72.071 A 15.347 15.347 0 0 0 64.035 72.897 A 12.815 12.815 0 0 0 67.725 75.244 Q 68.911 75.733 70.02 75.989 A 10.421 10.421 0 0 0 72.363 76.27 A 18.385 18.385 0 0 0 76.394 75.812 A 23.122 23.122 0 0 0 80.811 74.317 A 39.217 39.217 0 0 0 83.24 73.122 A 44.803 44.803 0 0 0 89.307 69.19 A 60.473 60.473 0 0 0 97.168 61.963 A 81.265 81.265 0 0 0 97.399 61.71 Z M 376.403 61.71 A 74.426 74.426 0 0 0 382.812 53.614 A 6.025 6.025 0 0 0 383.138 53.039 Q 383.303 52.703 383.392 52.395 A 2.476 2.476 0 0 0 383.496 51.709 A 2.612 2.612 0 0 0 383.477 51.388 Q 383.45 51.168 383.383 50.992 A 1.026 1.026 0 0 0 383.057 50.537 A 1.093 1.093 0 0 0 382.677 50.347 Q 382.427 50.277 382.117 50.307 A 2.336 2.336 0 0 0 381.885 50.342 A 1.888 1.888 0 0 0 381.473 50.476 Q 380.959 50.71 380.469 51.27 A 100.733 100.733 0 0 1 379.148 52.821 Q 378.437 53.639 377.627 54.543 A 206.023 206.023 0 0 1 375.537 56.836 A 77.803 77.803 0 0 1 369.092 63.037 A 53.055 53.055 0 0 1 367.568 64.298 A 46.157 46.157 0 0 1 362.012 68.116 A 20.524 20.524 0 0 1 361.705 68.29 Q 360.227 69.116 358.797 69.587 A 11.834 11.834 0 0 1 355.078 70.215 A 10.98 10.98 0 0 1 352.002 69.776 Q 350.488 69.336 349.316 68.311 A 7.162 7.162 0 0 1 348.242 67.127 A 9.218 9.218 0 0 1 347.363 65.625 Q 346.582 63.965 346.484 61.524 Q 347.308 60.919 348.287 60.238 A 134.254 134.254 0 0 1 349.902 59.131 A 987.321 987.321 0 0 0 351.904 57.776 A 1144.49 1144.49 0 0 0 354.004 56.348 Q 355.957 54.981 358.154 53.321 A 34.198 34.198 0 0 0 362.305 49.61 Q 364.258 47.559 365.674 45.02 Q 367.09 42.481 367.383 39.453 Q 367.409 39.088 367.402 38.738 A 5.793 5.793 0 0 0 365.918 34.864 A 4.84 4.84 0 0 0 364.296 33.692 Q 363.493 33.325 362.472 33.155 A 11.749 11.749 0 0 0 360.547 33.008 A 12.994 12.994 0 0 0 356.35 33.718 A 16.729 16.729 0 0 0 352.783 35.45 A 27.97 27.97 0 0 0 352.513 35.623 A 29.517 29.517 0 0 0 345.85 41.602 A 38.476 38.476 0 0 0 340.674 49.756 A 30.535 30.535 0 0 0 339.122 53.693 A 22.454 22.454 0 0 0 338.184 58.203 Q 337.886 61.179 338.223 63.61 A 14.512 14.512 0 0 0 338.916 66.504 A 18.563 18.563 0 0 0 340.143 69.252 A 13.567 13.567 0 0 0 342.187 72.071 A 15.347 15.347 0 0 0 343.039 72.897 A 12.815 12.815 0 0 0 346.729 75.244 Q 347.915 75.733 349.024 75.989 A 10.421 10.421 0 0 0 351.367 76.27 A 18.385 18.385 0 0 0 355.398 75.812 A 23.122 23.122 0 0 0 359.814 74.317 A 39.217 39.217 0 0 0 362.243 73.122 A 44.803 44.803 0 0 0 368.311 69.19 A 60.473 60.473 0 0 0 376.172 61.963 A 81.265 81.265 0 0 0 376.403 61.71 Z M 254.892 64.928 A 34.13 34.13 0 0 0 257.324 58.399 A 26.465 26.465 0 0 0 260.327 57.178 A 35.734 35.734 0 0 0 263.477 55.469 A 81.255 81.255 0 0 0 265.106 54.455 A 70.181 70.181 0 0 0 269.434 51.465 A 108.656 108.656 0 0 0 270.188 50.894 Q 271.298 50.046 272.278 49.251 A 64.445 64.445 0 0 0 274.17 47.657 A 104.52 104.52 0 0 0 274.184 47.644 Q 276.174 45.897 276.66 45.313 A 7.924 7.924 0 0 0 277.103 44.72 Q 277.337 44.372 277.492 44.046 A 3.259 3.259 0 0 0 277.734 43.36 Q 277.93 42.481 277.637 41.992 A 0.789 0.789 0 0 0 277.199 41.634 Q 276.97 41.558 276.66 41.602 Q 276.158 41.674 275.498 42.167 A 7.117 7.117 0 0 0 275 42.578 Q 274.258 43.32 273.204 44.179 A 42.2 42.2 0 0 1 271.875 45.215 A 50.931 50.931 0 0 1 270.749 46.035 A 59.142 59.142 0 0 1 267.627 48.096 Q 265.332 49.512 262.891 50.782 A 54.908 54.908 0 0 1 261.087 51.679 A 45.073 45.073 0 0 1 258.203 52.93 A 35.523 35.523 0 0 0 258.264 52.408 Q 258.295 52.131 258.325 51.82 A 72 72 0 0 0 258.398 51.026 Q 258.459 50.324 258.482 49.755 A 15.825 15.825 0 0 0 258.496 49.121 Q 258.496 47.217 258.179 45.594 A 12.546 12.546 0 0 0 257.227 42.627 A 17.806 17.806 0 0 0 256.153 40.671 A 13.763 13.763 0 0 0 254.15 38.184 A 15.856 15.856 0 0 0 252.551 36.814 A 11.944 11.944 0 0 0 250.439 35.547 A 19.58 19.58 0 0 0 250.36 35.511 Q 248.509 34.666 247.266 34.571 A 11.014 11.014 0 0 1 246.985 34.473 A 8.655 8.655 0 0 1 246.729 34.375 A 1.31 1.31 0 0 0 246.536 34.315 A 1.53 1.53 0 0 0 246.191 34.278 A 14.381 14.381 0 0 0 245.306 34.305 A 16.14 16.14 0 0 0 242.578 34.717 Q 240.723 35.157 239.111 35.987 Q 237.5 36.817 236.279 38.086 A 8.041 8.041 0 0 0 234.473 41.016 Q 232.813 42.969 231.592 45.313 A 35.326 35.326 0 0 0 231.293 45.899 A 31.773 31.773 0 0 0 229.59 50 A 40.673 40.673 0 0 0 229.309 50.876 A 36.185 36.185 0 0 0 228.369 54.59 A 29.302 29.302 0 0 0 228.362 54.625 Q 228.148 55.729 228.04 56.739 A 18.362 18.362 0 0 0 227.93 58.692 A 62.062 62.062 0 0 0 227.967 60.811 A 76.795 76.795 0 0 0 228.174 64.356 A 19.409 19.409 0 0 0 228.298 65.485 A 16.596 16.596 0 0 0 229.541 69.922 Q 230.664 72.461 232.959 74.17 Q 234.501 75.318 236.814 75.695 A 15.224 15.224 0 0 0 239.258 75.879 A 17.223 17.223 0 0 0 240.104 75.859 A 14.715 14.715 0 0 0 245.557 74.561 A 17.245 17.245 0 0 0 250.732 70.899 A 20.802 20.802 0 0 0 252.17 69.266 A 24.005 24.005 0 0 0 254.687 65.332 A 31.717 31.717 0 0 0 254.892 64.928 Z M 191.309 43.36 A 231.548 231.548 0 0 0 191.153 44.199 Q 190.941 45.355 190.667 46.897 A 710.527 710.527 0 0 0 190.576 47.412 Q 190.166 49.737 189.628 52.615 A 733.569 733.569 0 0 1 189.551 53.028 Q 192.012 52.663 194.985 51.745 A 52.367 52.367 0 0 0 195.41 51.612 A 35.869 35.869 0 0 0 200.647 49.462 A 40.818 40.818 0 0 0 201.855 48.828 A 41.204 41.204 0 0 0 207.189 45.341 A 46.411 46.411 0 0 0 208.154 44.58 A 34.915 34.915 0 0 0 213.77 38.819 A 30.999 30.999 0 0 0 217.348 32.922 A 35.464 35.464 0 0 0 218.018 31.397 A 30.246 30.246 0 0 0 219.763 25.401 A 37.008 37.008 0 0 0 220.215 22.168 Q 220.703 17.285 219.678 14.014 A 15.647 15.647 0 0 0 218.603 11.394 A 11.337 11.337 0 0 0 216.699 8.741 A 10.976 10.976 0 0 0 212.207 5.909 A 16.259 16.259 0 0 0 207.129 5.078 A 17.004 17.004 0 0 0 202.344 5.762 A 34.256 34.256 0 0 0 197.729 7.486 A 37.448 37.448 0 0 0 197.656 7.52 A 1.03 1.03 0 0 1 197.849 7.609 Q 198.071 7.74 198.34 8.008 A 2.896 2.896 0 0 1 198.825 8.665 Q 199 8.983 199.13 9.375 A 5.597 5.597 0 0 1 199.219 9.668 A 3036.635 3036.635 0 0 0 198.099 14.209 Q 196.497 20.728 195.361 25.489 A 999.841 999.841 0 0 0 194.644 28.516 Q 193.628 32.837 192.969 35.84 A 645.003 645.003 0 0 0 192.462 38.068 Q 191.971 40.246 191.61 41.93 A 204.518 204.518 0 0 0 191.309 43.36 Z M 31.543 49.512 A 43.85 43.85 0 0 0 36.642 46.582 A 50.44 50.44 0 0 0 38.33 45.41 Q 41.699 42.969 44.434 39.551 A 32.624 32.624 0 0 0 48.422 33.123 A 37.155 37.155 0 0 0 49.023 31.787 A 29.548 29.548 0 0 0 50.809 25.917 A 37.343 37.343 0 0 0 51.367 21.973 A 34.135 34.135 0 0 0 51.46 20.337 Q 51.572 16.819 50.857 14.242 A 13.232 13.232 0 0 0 50.732 13.819 A 14.847 14.847 0 0 0 49.648 11.208 A 10.735 10.735 0 0 0 47.705 8.594 A 11.608 11.608 0 0 0 43.164 5.811 A 16.259 16.259 0 0 0 38.086 4.981 A 17.074 17.074 0 0 0 33.648 5.582 A 19.064 19.064 0 0 0 33.35 5.664 A 29.544 29.544 0 0 0 28.711 7.422 A 1.03 1.03 0 0 1 28.904 7.512 Q 29.126 7.642 29.395 7.91 Q 29.529 8.112 29.686 8.383 A 15.359 15.359 0 0 1 29.834 8.643 A 3.186 3.186 0 0 1 30.176 9.571 A 1242.623 1242.623 0 0 0 29.108 14.112 Q 27.588 20.63 26.563 25.391 A 4527.947 4527.947 0 0 1 25.909 28.418 Q 24.976 32.74 24.316 35.742 A 252.627 252.627 0 0 0 23.816 37.97 Q 23.12 41.138 22.754 43.262 A 6.588 6.588 0 0 0 22.607 44.043 A 10.195 10.195 0 0 1 22.551 44.431 Q 22.513 44.663 22.461 44.922 A 23.063 23.063 0 0 1 25.152 45.717 A 28.909 28.909 0 0 1 26.953 46.436 A 15.203 15.203 0 0 1 29.666 47.99 A 19.865 19.865 0 0 1 31.543 49.512 Z M 122.07 56.543 A 149.341 149.341 0 0 0 122.803 52.832 A 61.352 61.352 0 0 1 123.513 49.51 A 67.626 67.626 0 0 1 123.633 49.024 Q 123.439 49.121 123.293 49.218 A 2.205 2.205 0 0 0 123.291 49.219 A 2.712 2.712 0 0 1 123.132 49.317 Q 123.047 49.366 122.949 49.414 A 3.568 3.568 0 0 1 122.674 49.527 Q 122.136 49.719 121.803 49.604 A 0.648 0.648 0 0 1 121.484 49.366 Q 121.129 48.877 121.097 47.862 A 6.533 6.533 0 0 1 121.094 47.657 Q 121.094 47.071 120.996 45.557 A 15.162 15.162 0 0 0 120.657 43.232 A 17.616 17.616 0 0 0 120.459 42.432 A 9.257 9.257 0 0 0 119.716 40.528 A 7.971 7.971 0 0 0 119.141 39.6 A 2.788 2.788 0 0 0 117.125 38.403 A 3.662 3.662 0 0 0 116.699 38.379 A 4.976 4.976 0 0 0 114.572 38.883 Q 113.821 39.236 113.059 39.836 A 11.717 11.717 0 0 0 112.109 40.674 A 27.108 27.108 0 0 0 109.565 43.565 A 34.719 34.719 0 0 0 107.715 46.241 A 37.536 37.536 0 0 0 104.297 53.223 A 31.561 31.561 0 0 0 103.379 56.109 Q 102.999 57.557 102.832 58.863 A 16.614 16.614 0 0 0 102.734 59.864 A 27.972 27.972 0 0 0 102.712 60.711 Q 102.67 64.377 103.692 66.248 A 4.712 4.712 0 0 0 103.906 66.602 Q 105.26 68.633 107.572 68.652 A 5.324 5.324 0 0 0 107.617 68.653 A 5.353 5.353 0 0 0 109.221 68.391 Q 110.294 68.055 111.475 67.285 A 25.622 25.622 0 0 0 114.315 65.129 A 30.334 30.334 0 0 0 115.576 63.965 A 53.009 53.009 0 0 0 119.287 59.961 Q 120.911 58.013 121.962 56.681 A 81.956 81.956 0 0 0 122.07 56.543 Z M 443.457 58.789 Q 443.945 56.836 444.629 54.2 A 95.919 95.919 0 0 0 445.544 50.354 A 83.754 83.754 0 0 0 445.801 49.121 Q 446.265 46.802 446.508 45.231 A 47.197 47.197 0 0 0 446.533 45.069 A 12.147 12.147 0 0 0 446.574 44.775 Q 446.739 43.472 446.39 43.554 A 0.21 0.21 0 0 0 446.387 43.555 A 7.671 7.671 0 0 0 445.874 43.677 Q 445.61 43.749 445.322 43.845 A 12.243 12.243 0 0 0 445.312 43.848 A 3.552 3.552 0 0 1 444.906 43.981 Q 444.695 44.036 444.449 44.08 A 8.021 8.021 0 0 1 444.043 44.141 Q 443.262 44.239 442.48 44.434 A 15.075 15.075 0 0 0 442.907 43.51 Q 443.307 42.551 443.408 41.846 A 10.215 10.215 0 0 0 443.462 41.407 Q 443.533 40.689 443.457 40.235 Q 443.359 39.551 443.066 39.16 A 1.088 1.088 0 0 0 442.387 38.918 Q 441.283 38.887 439.307 40.576 A 14.973 14.973 0 0 0 437.73 42.172 Q 436.145 44.009 434.314 46.983 A 72.937 72.937 0 0 0 433.105 49.024 Q 431.641 51.563 430.762 54.444 A 38.243 38.243 0 0 0 429.943 57.576 A 29.982 29.982 0 0 0 429.541 59.864 A 25.688 25.688 0 0 0 429.378 61.415 Q 429.279 62.77 429.36 63.911 A 12.813 12.813 0 0 0 429.395 64.307 A 10.992 10.992 0 0 0 429.508 65.127 Q 429.647 65.902 429.879 66.366 A 1.64 1.64 0 0 0 430.176 66.797 A 3.758 3.758 0 0 0 431.073 67.472 Q 431.74 67.825 432.499 67.825 A 3.315 3.315 0 0 0 432.617 67.823 A 6.046 6.046 0 0 0 434.433 67.464 A 7.782 7.782 0 0 0 435.4 67.041 A 14.761 14.761 0 0 0 437.17 65.954 A 18.332 18.332 0 0 0 438.232 65.137 A 23.278 23.278 0 0 0 440.303 63.207 A 20.675 20.675 0 0 0 440.771 62.696 Q 441.895 61.426 442.627 60.352 A 13.713 13.713 0 0 0 442.935 59.881 Q 443.35 59.215 443.444 58.845 A 1.097 1.097 0 0 0 443.457 58.789 Z M 413.379 18.75 Q 415.039 19.727 415.039 21.973 A 4.026 4.026 0 0 1 414.724 23.511 A 5.361 5.361 0 0 1 414.307 24.317 A 6.047 6.047 0 0 1 412.915 25.854 A 7.476 7.476 0 0 1 412.256 26.319 Q 410.938 27.149 409.131 27.539 A 10.082 10.082 0 0 1 407.309 27.757 Q 406.5 27.782 405.632 27.692 A 14.434 14.434 0 0 1 405.176 27.637 A 24.994 24.994 0 0 1 403.052 27.271 A 18.472 18.472 0 0 1 401.172 26.758 Q 399.414 26.172 397.949 25.733 A 16.485 16.485 0 0 0 395.981 25.267 A 14.083 14.083 0 0 0 395.117 25.147 Q 394.194 25.048 393.182 25.283 A 7.965 7.965 0 0 0 392.188 25.586 L 390.43 26.367 Q 389.648 26.758 388.818 27.198 A 14.207 14.207 0 0 0 387.838 27.766 A 12.018 12.018 0 0 0 387.305 28.125 A 2.649 2.649 0 0 1 386.829 28.002 A 1.94 1.94 0 0 1 386.328 27.735 A 20.755 20.755 0 0 0 386.049 27.529 Q 385.911 27.429 385.787 27.343 A 10.446 10.446 0 0 0 385.645 27.246 A 2.183 2.183 0 0 1 385.438 27.072 Q 385.339 26.977 385.271 26.881 A 0.844 0.844 0 0 1 385.156 26.66 Q 384.766 26.075 384.57 25.489 A 3.534 3.534 0 0 1 384.365 24.736 A 4.229 4.229 0 0 1 384.326 24.414 A 1.991 1.991 0 0 1 384.319 24.249 A 1.735 1.735 0 0 1 384.57 23.34 Q 385.742 21.778 387.451 20.996 A 14.746 14.746 0 0 1 389.673 20.181 A 12.577 12.577 0 0 1 390.82 19.922 A 14.895 14.895 0 0 1 393.713 19.611 Q 394.214 19.605 394.727 19.629 A 27.025 27.025 0 0 1 396.274 19.728 Q 397.071 19.804 397.746 19.926 A 10.951 10.951 0 0 1 398.975 20.215 A 42.634 42.634 0 0 1 400.882 20.841 A 34.71 34.71 0 0 1 401.953 21.241 A 17.504 17.504 0 0 0 404.688 22.071 A 6.281 6.281 0 0 0 405.42 22.18 Q 406.612 22.291 408.301 22.071 Q 408.984 21.973 409.863 21.582 A 10.325 10.325 0 0 0 410.669 21.131 Q 411.071 20.882 411.496 20.577 A 16.67 16.67 0 0 0 411.523 20.557 A 7.741 7.741 0 0 0 412.254 19.953 Q 412.799 19.446 413.379 18.75 Z M 234.57 60.742 A 30.509 30.509 0 0 0 234.766 64.209 A 11.766 11.766 0 0 0 235.071 65.868 A 9.012 9.012 0 0 0 235.547 67.237 A 6.45 6.45 0 0 0 236.33 68.565 A 5.411 5.411 0 0 0 237.109 69.385 A 3.399 3.399 0 0 0 238.633 70.115 A 4.885 4.885 0 0 0 239.648 70.215 A 6.423 6.423 0 0 0 242.871 69.385 A 10.332 10.332 0 0 0 245.508 67.237 A 15.494 15.494 0 0 0 247.128 65.039 A 18.071 18.071 0 0 0 247.607 64.209 A 27.088 27.088 0 0 0 249.219 60.645 Q 248.535 60.742 247.9 60.791 A 15.928 15.928 0 0 1 247.229 60.828 A 21.644 21.644 0 0 1 246.484 60.84 A 10.483 10.483 0 0 1 242.831 60.22 A 9.496 9.496 0 0 1 240.088 58.643 A 14.317 14.317 0 0 1 236.223 53.658 A 16.852 16.852 0 0 1 235.937 53.028 A 51.636 51.636 0 0 0 235.062 56.542 A 46.615 46.615 0 0 0 234.961 57.032 A 20.338 20.338 0 0 0 234.625 59.397 A 16.877 16.877 0 0 0 234.57 60.742 Z M 78.809 38.575 Q 77.637 38.575 76.025 39.746 A 11.218 11.218 0 0 0 74.625 40.968 Q 73.982 41.623 73.347 42.446 A 21.35 21.35 0 0 0 72.852 43.116 A 23.96 23.96 0 0 0 71.43 45.39 Q 70.77 46.58 70.15 47.966 A 40.985 40.985 0 0 0 69.922 48.487 A 27.789 27.789 0 0 0 68.615 52.293 A 36.781 36.781 0 0 0 67.871 55.762 A 61.721 61.721 0 0 1 69.412 54.644 A 73.861 73.861 0 0 1 70.41 53.955 A 48.591 48.591 0 0 0 73.145 51.953 A 48.702 48.702 0 0 0 75.414 50.109 Q 77.837 48.006 79.004 46.289 A 17.005 17.005 0 0 0 79.861 44.9 Q 80.658 43.444 80.835 42.277 A 4.708 4.708 0 0 0 80.859 42.09 A 9.293 9.293 0 0 0 80.896 41.642 Q 80.956 40.576 80.719 39.901 A 2.011 2.011 0 0 0 80.469 39.405 A 1.868 1.868 0 0 0 79.117 38.593 A 2.523 2.523 0 0 0 78.809 38.575 Z M 357.813 38.575 Q 356.641 38.575 355.029 39.746 A 11.218 11.218 0 0 0 353.629 40.968 Q 352.986 41.623 352.351 42.446 A 21.35 21.35 0 0 0 351.855 43.116 A 23.96 23.96 0 0 0 350.434 45.39 Q 349.774 46.58 349.154 47.966 A 40.985 40.985 0 0 0 348.926 48.487 A 27.789 27.789 0 0 0 347.619 52.293 A 36.781 36.781 0 0 0 346.875 55.762 A 61.721 61.721 0 0 1 348.416 54.644 A 73.861 73.861 0 0 1 349.414 53.955 A 48.591 48.591 0 0 0 352.148 51.953 A 48.702 48.702 0 0 0 354.418 50.109 Q 356.841 48.006 358.008 46.289 A 17.005 17.005 0 0 0 358.864 44.9 Q 359.662 43.444 359.839 42.277 A 4.708 4.708 0 0 0 359.863 42.09 A 9.293 9.293 0 0 0 359.9 41.642 Q 359.96 40.576 359.723 39.901 A 2.011 2.011 0 0 0 359.473 39.405 A 1.868 1.868 0 0 0 358.121 38.593 A 2.523 2.523 0 0 0 357.812 38.575 Z M 240.82 43.555 A 5.827 5.827 0 0 0 240.527 45.403 A 6.611 6.611 0 0 0 240.527 45.41 A 27.82 27.82 0 0 0 240.637 47.837 A 32.157 32.157 0 0 0 240.723 48.682 A 8.318 8.318 0 0 0 241.25 50.824 A 7.389 7.389 0 0 0 241.699 51.758 A 5.37 5.37 0 0 0 242.933 53.209 A 7.583 7.583 0 0 0 244.189 54.053 A 6.574 6.574 0 0 0 245.657 54.618 Q 246.388 54.811 247.265 54.901 A 16.261 16.261 0 0 0 248.926 54.981 A 9.808 9.808 0 0 0 249.902 54.932 A 10.103 10.103 0 0 0 250.879 54.785 A 400.206 400.206 0 0 1 251.16 53.577 A 291.5 291.5 0 0 1 251.416 52.491 A 10.324 10.324 0 0 0 251.574 51.698 Q 251.633 51.32 251.652 50.982 A 5.454 5.454 0 0 0 251.66 50.684 Q 251.855 48.828 251.66 46.875 A 18.097 18.097 0 0 0 251.332 44.786 A 14.562 14.562 0 0 0 250.928 43.311 A 10.488 10.488 0 0 0 250.422 42.056 Q 250.112 41.415 249.737 40.903 A 6.04 6.04 0 0 0 249.561 40.674 A 3.058 3.058 0 0 0 248.897 40.054 A 2.343 2.343 0 0 0 247.559 39.649 A 6.743 6.743 0 0 0 244.316 40.491 A 8.095 8.095 0 0 0 243.994 40.674 A 10.699 10.699 0 0 0 242.051 42.184 A 13.97 13.97 0 0 0 240.82 43.555 Z M 21.094 52.832 A 59.248 59.248 0 0 0 23.437 52.393 A 31.69 31.69 0 0 0 24.658 52.112 A 41.019 41.019 0 0 0 25.977 51.758 A 7.039 7.039 0 0 0 23.445 50.25 A 9.811 9.811 0 0 0 21.582 49.805 A 59.75 59.75 0 0 0 21.198 52.094 A 53.53 53.53 0 0 0 21.094 52.832 Z" vector-effect="non-scaling-stroke"/></g></svg>